SplineFontDB: 3.0
FontName: PfennigBoldItalic
FullName: Pfennig Bold Italic
FamilyName: Pfennig
Weight: Bold
Copyright: Copyright 2009-2012 by Daniel Johnson.  Released under the terms of the SIL Open Font License.
UComments: "2009-7-16: Created." 
Version: 20120410
ItalicAngle: -13
UnderlinePosition: -204
UnderlineWidth: 102
Ascent: 1638
Descent: 410
LayerCount: 2
Layer: 0 0 "Back"  1
Layer: 1 1 "Fore"  0
NeedsXUIDChange: 1
XUID: [1021 1003 1579404955 6722392]
FSType: 0
OS2Version: 0
OS2_WeightWidthSlopeOnly: 0
OS2_UseTypoMetrics: 1
CreationTime: 1247766582
ModificationTime: 1334085701
PfmFamily: 33
TTFWeight: 700
TTFWidth: 5
LineGap: 0
VLineGap: 0
OS2TypoAscent: 2174
OS2TypoAOffset: 0
OS2TypoDescent: -531
OS2TypoDOffset: 0
OS2TypoLinegap: 0
OS2WinAscent: 2174
OS2WinAOffset: 0
OS2WinDescent: 531
OS2WinDOffset: 0
HheadAscent: 2174
HheadAOffset: 0
HheadDescent: -531
HheadDOffset: 0
OS2FamilyClass: 2050
OS2Vendor: 'PfEd'
Lookup: 1 0 0 "'locl' Localized Forms in Sami"  {"'locl' Localized Forms in Sami-1"  } ['locl' ('latn' <'ISM ' > 'latn' <'LSM ' > 'latn' <'NSM ' > 'latn' <'SKS ' > ) ]
Lookup: 4 0 1 "'liga' Standard Ligatures in Latin lookup 0"  {"'liga' Standard Ligatures in Latin lookup 0-1"  } ['liga' ('DFLT' <'dflt' > 'latn' <'dflt' > ) ]
Lookup: 258 0 0 "'kern' Horizontal Kerning lookup 1"  {"'kern' Horizontal Kerning lookup 1-1"  } ['kern' ('DFLT' <'dflt' > 'cyrl' <'dflt' > 'latn' <'dflt' > ) ]
Lookup: 260 0 0 "'mark' Mark Positioning in Latin lookup 0"  {"'mark' Mark Positioning in Latin lookup 0-1"  } ['mark' ('DFLT' <'dflt' > 'latn' <'dflt' > ) ]
MarkAttachClasses: 1
DEI: 91125
KernClass2: 9 9 "'kern' Horizontal Kerning lookup 1-1" 
 109 A L Agrave Aacute Acircumflex Atilde Adieresis Aring Amacron Abreve Aogonek Lacute Lcommaaccent Lcaron Lslash

StartChar: d
Encoding: 100 100 0
Width: 1142
VWidth: 0
Flags: W
HStem: -20 102<421 631 956 1082> 819 102<584 774>
VStem: 152 238<130 500> 1090 70<96 131>
AnchorPoint: "bottom" 481 0 basechar 0
AnchorPoint: "top" 735 1004 basechar 0
LayerCount: 2
Fore
SplineSet
979 276 m 2,0,1
 954 170 954 170 954 143 c 0,2,3
 954 82 954 82 1012 82 c 0,4,5
 1036 82 1036 82 1058.5 98 c 128,-1,6
 1081 114 1081 114 1090 131 c 1,7,-1
 1159 131 l 1,8,9
 1145 73 1145 73 1085.5 26.5 c 128,-1,10
 1026 -20 1026 -20 961 -20 c 0,11,12
 825 -20 825 -20 756 43 c 1,13,14
 638 -20 638 -20 471 -20 c 0,15,16
 312 -20 312 -20 232 74.5 c 128,-1,17
 152 169 152 169 152 317 c 0,18,19
 152 398 152 398 176 483.5 c 128,-1,20
 200 569 200 569 247 647 c 128,-1,21
 294 725 294 725 357.5 786.5 c 128,-1,22
 421 848 421 848 507 885 c 128,-1,23
 593 922 593 922 688 922 c 0,24,25
 786 922 786 922 862 883 c 1,26,-1
 971 1352 l 1,27,-1
 1227 1352 l 1,28,-1
 979 276 l 2,0,1
524 82 m 0,29,30
 582 82 582 82 628.5 123 c 128,-1,31
 675 164 675 164 703 229.5 c 128,-1,32
 731 295 731 295 751 366 c 128,-1,33
 771 437 771 437 779.5 508 c 128,-1,34
 788 579 788 579 791.5 618 c 128,-1,35
 795 657 795 657 795 672 c 0,36,37
 795 819 795 819 694 819 c 0,38,39
 638 819 638 819 591.5 787 c 128,-1,40
 545 755 545 755 514.5 704.5 c 128,-1,41
 484 654 484 654 460 592.5 c 128,-1,42
 436 531 436 531 423 469 c 128,-1,43
 410 407 410 407 402 356.5 c 128,-1,44
 394 306 394 306 392 274 c 2,45,-1
 389 242 l 1,46,47
 389 82 389 82 524 82 c 0,29,30
EndSplineSet
Validated: 1
EndChar

StartChar: a
Encoding: 97 97 1
Width: 1130
VWidth: 0
Flags: W
HStem: -20 102<443 701 907 1067> 819 102<633 835>
VStem: 154 246<136 485> 690 262<96 373> 1075 72<97 131>
AnchorPoint: "bottom" 594 0 basechar 0
AnchorPoint: "ogonek" 891 0 basechar 0
AnchorPoint: "top" 803 1004 basechar 0
LayerCount: 2
Fore
SplineSet
1098 838 m 1,0,-1
 967 276 l 2,1,2
 952 215 952 215 952 166 c 0,3,4
 952 82 952 82 997 82 c 0,5,6
 1022 82 1022 82 1046.5 97 c 128,-1,7
 1071 112 1071 112 1075 131 c 1,8,-1
 1147 131 l 1,9,10
 1133 74 1133 74 1072 27 c 128,-1,11
 1011 -20 1011 -20 946 -20 c 0,12,13
 830 -20 830 -20 766 25 c 1,14,15
 706 4 706 4 622.5 -8 c 128,-1,16
 539 -20 539 -20 471 -20 c 0,17,18
 336 -20 336 -20 245 74 c 128,-1,19
 154 168 154 168 154 309 c 0,20,21
 154 461 154 461 234.5 602.5 c 128,-1,22
 315 744 315 744 455 833 c 128,-1,23
 595 922 595 922 754 922 c 0,24,25
 833 922 833 922 902 908 c 128,-1,26
 971 894 971 894 1009.5 879 c 128,-1,27
 1048 864 1048 864 1098 838 c 1,0,-1
836 815 m 1,28,29
 790 819 790 819 760 819 c 0,30,31
 678 819 678 819 607 757 c 128,-1,32
 536 695 536 695 492.5 604.5 c 128,-1,33
 449 514 449 514 424 420.5 c 128,-1,34
 399 327 399 327 399 254 c 0,35,36
 399 165 399 165 441 123.5 c 128,-1,37
 483 82 483 82 524 82 c 0,38,39
 634 82 634 82 702 100 c 1,40,41
 690 130 690 130 690 164 c 0,42,43
 690 189 690 189 696 213 c 2,44,-1
 836 815 l 1,28,29
EndSplineSet
Validated: 1
EndChar

StartChar: h
Encoding: 104 104 2
Width: 1034
VWidth: 0
Flags: W
HStem: 0 43G<143 409 688 954> 819 102<610 813> 1270 102<289 504>
VStem: 213 70<1221 1259> 410 260<985 1268> 829 248<415 804>
AnchorPoint: "bottom" 553 0 basechar 0
AnchorPoint: "top" 807 1434 basechar 0
LayerCount: 2
Fore
SplineSet
399 0 m 1,0,-1
 143 0 l 1,1,-1
 391 1075 l 2,2,3
 410 1160 410 1160 410 1196 c 0,4,5
 410 1270 410 1270 358 1270 c 0,6,7
 305 1270 305 1270 283 1221 c 1,8,-1
 213 1221 l 1,9,10
 225 1279 225 1279 286 1325.5 c 128,-1,11
 347 1372 347 1372 412 1372 c 0,12,13
 543 1372 543 1372 606.5 1324 c 128,-1,14
 670 1276 670 1276 670 1196 c 0,15,16
 670 1166 670 1166 662 1139 c 1,17,-1
 608 907 l 1,18,19
 685 922 685 922 729 922 c 0,20,21
 1077 922 1077 922 1077 641 c 0,22,23
 1077 571 1077 571 1057 492 c 1,24,-1
 944 0 l 1,25,-1
 688 0 l 1,26,-1
 797 467 l 2,27,28
 829 606 829 606 829 692 c 0,29,30
 829 762 829 762 805 790.5 c 128,-1,31
 781 819 781 819 735 819 c 0,32,33
 657 819 657 819 582 784 c 1,34,-1
 399 0 l 1,0,-1
EndSplineSet
Validated: 1
EndChar

StartChar: e
Encoding: 101 101 3
Width: 964
VWidth: 0
Flags: W
HStem: -20 102<439 705> 451 102<449 789> 819 102<575 781>
VStem: 150 246<143 446> 799 233<561 763>
AnchorPoint: "bottom" 535 0 basechar 0
AnchorPoint: "cedilla" 512 0 basechar 0
AnchorPoint: "ogonek" 559 0 basechar 0
AnchorPoint: "top" 733 1004 basechar 0
LayerCount: 2
Fore
SplineSet
150 324 m 0,0,1
 150 443 150 443 199.5 555.5 c 128,-1,2
 249 668 249 668 327.5 747.5 c 128,-1,3
 406 827 406 827 504 874.5 c 128,-1,4
 602 922 602 922 696 922 c 0,5,6
 780 922 780 922 846 893.5 c 128,-1,7
 912 865 912 865 952 815.5 c 128,-1,8
 992 766 992 766 1012 704 c 128,-1,9
 1032 642 1032 642 1032 571 c 0,10,11
 1032 516 1032 516 996.5 483.5 c 128,-1,12
 961 451 961 451 887 451 c 2,13,-1
 422 451 l 1,14,15
 395 330 395 330 395 262 c 0,16,17
 395 172 395 172 436.5 127 c 128,-1,18
 478 82 478 82 573 82 c 0,19,20
 647 82 647 82 689 113 c 128,-1,21
 731 144 731 144 756 205 c 1,22,-1
 940 158 l 1,23,24
 856 76 856 76 748.5 28 c 128,-1,25
 641 -20 641 -20 520 -20 c 0,26,27
 351 -20 351 -20 250.5 72.5 c 128,-1,28
 150 165 150 165 150 324 c 0,0,1
449 553 m 1,29,-1
 700 553 l 2,30,31
 762 553 762 553 780.5 580.5 c 128,-1,32
 799 608 799 608 799 694 c 0,33,34
 799 755 799 755 777 787 c 128,-1,35
 755 819 755 819 702 819 c 0,36,37
 609 819 609 819 549 751.5 c 128,-1,38
 489 684 489 684 449 553 c 1,29,-1
EndSplineSet
Validated: 1
EndChar

StartChar: n
Encoding: 110 110 4
Width: 1075
VWidth: 0
Flags: W
HStem: 0 43G<184 450 729 994> 819 102<226 400 616 855>
VStem: 150 70<770 809> 346 260<527 780> 872 246<427 804>
AnchorPoint: "bottom" 580 0 basechar 0
AnchorPoint: "cedilla" 578 0 basechar 0
AnchorPoint: "top" 817 1004 basechar 0
LayerCount: 2
Fore
SplineSet
440 0 m 1,0,-1
 184 0 l 1,1,-1
 328 625 l 1,2,3
 346 692 346 692 346 745 c 0,4,5
 346 819 346 819 295 819 c 0,6,7
 241 819 241 819 219 770 c 1,8,-1
 150 770 l 1,9,10
 162 828 162 828 222.5 875 c 128,-1,11
 283 922 283 922 348 922 c 0,12,13
 494 922 494 922 561 858 c 1,14,15
 675 922 675 922 770 922 c 0,16,17
 1118 922 1118 922 1118 641 c 0,18,19
 1118 571 1118 571 1098 492 c 1,20,-1
 985 0 l 1,21,-1
 729 0 l 1,22,-1
 838 467 l 1,23,24
 872 621 872 621 872 700 c 0,25,26
 872 766 872 766 848 792.5 c 128,-1,27
 824 819 824 819 776 819 c 0,28,29
 685 819 685 819 604 768 c 1,30,31
 606 762 606 762 606 745 c 0,32,33
 606 718 606 718 600 688 c 2,34,-1
 440 0 l 1,0,-1
EndSplineSet
Validated: 1
EndChar

StartChar: c
Encoding: 99 99 5
Width: 944
VWidth: 0
Flags: W
HStem: -20 102<439 698> 819 102<587 786>
VStem: 150 246<143 528> 801 219<671 782>
AnchorPoint: "bottom" 539 0 basechar 0
AnchorPoint: "cedilla" 541 0 basechar 0
AnchorPoint: "top" 735 1004 basechar 0
LayerCount: 2
Fore
SplineSet
150 324 m 0,0,1
 150 443 150 443 199.5 555.5 c 128,-1,2
 249 668 249 668 327.5 747.5 c 128,-1,3
 406 827 406 827 504 874.5 c 128,-1,4
 602 922 602 922 696 922 c 0,5,6
 830 922 830 922 912 854.5 c 128,-1,7
 994 787 994 787 1020 676 c 1,8,-1
 801 608 l 1,9,10
 800 627 800 627 799.5 665 c 128,-1,11
 799 703 799 703 798 718.5 c 128,-1,12
 797 734 797 734 791.5 758.5 c 128,-1,13
 786 783 786 783 776.5 793 c 128,-1,14
 767 803 767 803 748.5 811 c 128,-1,15
 730 819 730 819 702 819 c 0,16,17
 629 819 629 819 571 766.5 c 128,-1,18
 513 714 513 714 481.5 642 c 128,-1,19
 450 570 450 570 429 485 c 128,-1,20
 408 400 408 400 401.5 345 c 128,-1,21
 395 290 395 290 395 262 c 0,22,23
 395 172 395 172 436.5 127 c 128,-1,24
 478 82 478 82 573 82 c 0,25,26
 592 82 592 82 609 84.5 c 128,-1,27
 626 87 626 87 638 90 c 128,-1,28
 650 93 650 93 663.5 101.5 c 128,-1,29
 677 110 677 110 684.5 114.5 c 128,-1,30
 692 119 692 119 705.5 133.5 c 128,-1,31
 719 148 719 148 723.5 153.5 c 128,-1,32
 728 159 728 159 744 178.5 c 128,-1,33
 760 198 760 198 766 205 c 1,34,-1
 940 158 l 1,35,36
 856 76 856 76 748.5 28 c 128,-1,37
 641 -20 641 -20 520 -20 c 0,38,39
 351 -20 351 -20 250.5 72.5 c 128,-1,40
 150 165 150 165 150 324 c 0,0,1
EndSplineSet
Validated: 1
EndChar

StartChar: b
Encoding: 98 98 6
Width: 1069
VWidth: 0
Flags: W
HStem: -20 102<467 694> 819 102<648 849> 1270 102<289 504>
VStem: 211 242<100 425> 213 70<1221 1259> 410 260<983 1268> 877 244<389 787>
AnchorPoint: "bottom" 541 0 basechar 0
AnchorPoint: "top" 813 1004 basechar 0
LayerCount: 2
Fore
SplineSet
602 82 m 0,0,1
 664 82 664 82 714.5 137.5 c 128,-1,2
 765 193 765 193 794 270 c 128,-1,3
 823 347 823 347 843 435 c 128,-1,4
 863 523 863 523 870 582 c 128,-1,5
 877 641 877 641 877 666 c 0,6,7
 877 819 877 819 772 819 c 0,8,9
 714 819 714 819 669.5 792.5 c 128,-1,10
 625 766 625 766 594.5 714 c 128,-1,11
 564 662 564 662 545 606.5 c 128,-1,12
 526 551 526 551 508 471 c 2,13,-1
 469 303 l 1,14,15
 453 225 453 225 453 186 c 0,16,17
 453 124 453 124 487 103 c 128,-1,18
 521 82 521 82 602 82 c 0,0,1
1120 606 m 0,19,20
 1120 561 1120 561 1112.5 510 c 128,-1,21
 1105 459 1105 459 1086.5 397 c 128,-1,22
 1068 335 1068 335 1040 277.5 c 128,-1,23
 1012 220 1012 220 966 165 c 128,-1,24
 920 110 920 110 863 69.5 c 128,-1,25
 806 29 806 29 725 4.5 c 128,-1,26
 644 -20 644 -20 549 -20 c 0,27,28
 492 -20 492 -20 446.5 -14.5 c 128,-1,29
 401 -9 401 -9 355.5 7 c 128,-1,30
 310 23 310 23 279.5 50 c 128,-1,31
 249 77 249 77 230 123 c 128,-1,32
 211 169 211 169 211 231 c 0,33,34
 211 292 211 292 229 369 c 2,35,-1
 391 1075 l 2,36,37
 410 1160 410 1160 410 1196 c 0,38,39
 410 1270 410 1270 358 1270 c 0,40,41
 305 1270 305 1270 283 1221 c 1,42,-1
 213 1221 l 1,43,44
 225 1279 225 1279 286 1325.5 c 128,-1,45
 347 1372 347 1372 412 1372 c 0,46,47
 543 1372 543 1372 606.5 1324 c 128,-1,48
 670 1276 670 1276 670 1196 c 0,49,50
 670 1166 670 1166 662 1139 c 1,51,-1
 606 897 l 1,52,53
 686 922 686 922 766 922 c 0,54,55
 950 922 950 922 1035 837 c 128,-1,56
 1120 752 1120 752 1120 606 c 0,19,20
EndSplineSet
Validated: 1
EndChar

StartChar: s
Encoding: 115 115 7
Width: 860
VWidth: 0
Flags: W
HStem: -20 102<290 523> 817 104<550 718>
VStem: 252 256<549 774> 596 258<167 388>
AnchorPoint: "bottom" 428 0 basechar 0
AnchorPoint: "cedilla" 422 0 basechar 0
AnchorPoint: "top" 621 1004 basechar 0
LayerCount: 2
Fore
SplineSet
252 641 m 0,0,1
 252 690 252 690 276 739 c 128,-1,2
 300 788 300 788 344 829 c 128,-1,3
 388 870 388 870 458.5 896 c 128,-1,4
 529 922 529 922 614 922 c 0,5,6
 713 922 713 922 771 894.5 c 128,-1,7
 829 867 829 867 913 795 c 1,8,-1
 743 723 l 1,9,10
 711 817 711 817 618 817 c 0,11,12
 567 817 567 817 537.5 757 c 128,-1,13
 508 697 508 697 508 641 c 0,14,15
 508 600 508 600 526 573.5 c 128,-1,16
 544 547 544 547 575 539 c 0,17,18
 707 508 707 508 780.5 448 c 128,-1,19
 854 388 854 388 854 305 c 0,20,21
 854 269 854 269 841 228.5 c 128,-1,22
 828 188 828 188 795 143 c 128,-1,23
 762 98 762 98 713 62.5 c 128,-1,24
 664 27 664 27 583 3.5 c 128,-1,25
 502 -20 502 -20 403 -20 c 0,26,27
 345 -20 345 -20 303.5 -12.5 c 128,-1,28
 262 -5 262 -5 222.5 17 c 128,-1,29
 183 39 183 39 160 57 c 128,-1,30
 137 75 137 75 88 117 c 1,31,-1
 236 201 l 1,32,33
 265 141 265 141 308 111.5 c 128,-1,34
 351 82 351 82 420 82 c 0,35,36
 460 82 460 82 492.5 101 c 128,-1,37
 525 120 525 120 543.5 147 c 128,-1,38
 562 174 562 174 574.5 205.5 c 128,-1,39
 587 237 587 237 591.5 259.5 c 128,-1,40
 596 282 596 282 596 295 c 0,41,42
 596 350 596 350 554.5 385.5 c 128,-1,43
 513 421 513 421 463 434 c 1,44,45
 365 462 365 462 308.5 514 c 128,-1,46
 252 566 252 566 252 641 c 0,0,1
EndSplineSet
Validated: 1
EndChar

StartChar: i
Encoding: 105 105 8
Width: 573
VWidth: 0
Flags: W
HStem: -20 102<305 513> 860 41G<291 555> 1065 164<397 573>
VStem: 133 254<83 364> 520 70<96 131>
AnchorPoint: "bottom" 221 0 basechar 0
AnchorPoint: "ogonek" 307 2 basechar 0
LayerCount: 2
Fore
SplineSet
397 1229 m 1,0,-1
 612 1229 l 1,1,-1
 573 1065 l 1,2,-1
 358 1065 l 1,3,-1
 397 1229 l 1,0,-1
410 276 m 2,4,5
 387 178 387 178 387 143 c 0,6,7
 387 82 387 82 442 82 c 0,8,9
 466 82 466 82 488.5 98 c 128,-1,10
 511 114 511 114 520 131 c 1,11,-1
 590 131 l 1,12,13
 576 73 576 73 516 26.5 c 128,-1,14
 456 -20 456 -20 391 -20 c 0,15,16
 268 -20 268 -20 200.5 31.5 c 128,-1,17
 133 83 133 83 133 164 c 0,18,19
 133 189 133 189 139 213 c 2,20,-1
 301 901 l 1,21,-1
 555 901 l 1,22,-1
 410 276 l 2,4,5
EndSplineSet
Validated: 1
EndChar

StartChar: o
Encoding: 111 111 9
Width: 1013
VWidth: 0
Flags: W
HStem: -20 102<427 637> 819 102<586 795>
VStem: 147 244<117 508> 821 244<380 773>
AnchorPoint: "bottom" 487 0 basechar 0
AnchorPoint: "horn" 999 635 basechar 0
AnchorPoint: "ogonek" 508 0 basechar 0
AnchorPoint: "top" 737 1004 basechar 0
LayerCount: 2
Fore
SplineSet
821 664 m 0,0,1
 821 819 821 819 702 819 c 0,2,3
 627 819 627 819 568 763 c 128,-1,4
 509 707 509 707 477 631 c 128,-1,5
 445 555 445 555 424.5 466.5 c 128,-1,6
 404 378 404 378 397.5 323.5 c 128,-1,7
 391 269 391 269 391 246 c 0,8,9
 391 165 391 165 424.5 123.5 c 128,-1,10
 458 82 458 82 532 82 c 0,11,12
 601 82 601 82 656 138 c 128,-1,13
 711 194 711 194 740.5 271 c 128,-1,14
 770 348 770 348 789.5 437 c 128,-1,15
 809 526 809 526 815 582.5 c 128,-1,16
 821 639 821 639 821 664 c 0,0,1
1065 594 m 0,17,18
 1065 546 1065 546 1056 492.5 c 128,-1,19
 1047 439 1047 439 1026 378.5 c 128,-1,20
 1005 318 1005 318 974.5 262 c 128,-1,21
 944 206 944 206 896 154 c 128,-1,22
 848 102 848 102 789.5 64 c 128,-1,23
 731 26 731 26 651 3 c 128,-1,24
 571 -20 571 -20 479 -20 c 0,25,26
 318 -20 318 -20 232.5 64.5 c 128,-1,27
 147 149 147 149 147 301 c 0,28,29
 147 430 147 430 197.5 547.5 c 128,-1,30
 248 665 248 665 327 745.5 c 128,-1,31
 406 826 406 826 504 874 c 128,-1,32
 602 922 602 922 696 922 c 0,33,34
 867 922 867 922 966 838 c 128,-1,35
 1065 754 1065 754 1065 594 c 0,17,18
EndSplineSet
Validated: 1
EndChar

StartChar: t
Encoding: 116 116 10
Width: 669
VWidth: 0
Flags: W
HStem: -20 102<395 610> 799 102<291 371 651 788>
VStem: 229 258<84 376> 616 70<93 131>
AnchorPoint: "bottom" 348 0 basechar 0
AnchorPoint: "cedilla" 383 0 basechar 0
AnchorPoint: "top" 582 1352 basechar 0
LayerCount: 2
Fore
SplineSet
506 276 m 2,0,1
 487 191 487 191 487 156 c 0,2,3
 487 82 487 82 539 82 c 0,4,5
 594 82 594 82 616 131 c 1,6,-1
 686 131 l 1,7,8
 672 73 672 73 612 26.5 c 128,-1,9
 552 -20 552 -20 487 -20 c 0,10,11
 356 -20 356 -20 292.5 28 c 128,-1,12
 229 76 229 76 229 156 c 0,13,14
 229 178 229 178 236 213 c 1,15,-1
 371 799 l 1,16,-1
 236 799 l 1,17,-1
 291 901 l 1,18,-1
 395 901 l 1,19,-1
 463 1198 l 1,20,-1
 727 1229 l 1,21,-1
 651 901 l 1,22,-1
 813 901 l 1,23,-1
 788 799 l 1,24,-1
 627 799 l 1,25,-1
 506 276 l 2,0,1
EndSplineSet
Validated: 1
EndChar

StartChar: m
Encoding: 109 109 11
Width: 1667
VWidth: 0
Flags: W
HStem: 0 43G<184 450 760 1025 1317 1582> 819 102<226 396 603 881 1198 1436>
VStem: 150 70<770 809> 346 260<527 795> 1460 252<431 796>
AnchorPoint: "bottom" 893 0 basechar 0
AnchorPoint: "top" 1075 1004 basechar 0
LayerCount: 2
Fore
SplineSet
440 0 m 1,0,-1
 184 0 l 1,1,-1
 328 625 l 1,2,3
 346 692 346 692 346 745 c 0,4,5
 346 819 346 819 295 819 c 0,6,7
 241 819 241 819 219 770 c 1,8,-1
 150 770 l 1,9,10
 162 828 162 828 222.5 875 c 128,-1,11
 283 922 283 922 348 922 c 0,12,13
 484 922 484 922 551 868 c 1,14,15
 661 922 661 922 768 922 c 0,16,17
 975 922 975 922 1055 836 c 1,18,19
 1195 922 1195 922 1307 922 c 0,20,21
 1503 922 1503 922 1607.5 861 c 128,-1,22
 1712 800 1712 800 1712 657 c 0,23,24
 1712 603 1712 603 1698 543 c 2,25,-1
 1573 0 l 1,26,-1
 1317 0 l 1,27,-1
 1432 500 l 2,28,29
 1460 624 1460 624 1460 686 c 0,30,31
 1460 763 1460 763 1424.5 791 c 128,-1,32
 1389 819 1389 819 1313 819 c 0,33,34
 1250 819 1250 819 1200 799 c 1,35,-1
 1016 0 l 1,36,-1
 760 0 l 1,37,-1
 874 500 l 2,38,39
 903 626 903 626 903 684 c 0,40,41
 903 763 903 763 865 791 c 128,-1,42
 827 819 827 819 745 819 c 0,43,44
 682 819 682 819 602 786 c 1,45,46
 606 758 606 758 606 745 c 0,47,48
 606 718 606 718 600 688 c 2,49,-1
 440 0 l 1,0,-1
EndSplineSet
Validated: 1
EndChar

StartChar: f
Encoding: 102 102 12
Width: 651
VWidth: 0
Flags: W
HStem: -276 102<36 155> 799 102<326 391 672 793> 1270 102<764 919>
VStem: -39 74<-170 -125>
AnchorPoint: "bottom" 236 -258 basechar 0
AnchorPoint: "top" 756 1434 basechar 0
LayerCount: 2
Fore
SplineSet
647 799 m 1,0,-1
 453 -43 l 2,1,2
 430 -147 430 -147 339.5 -211.5 c 128,-1,3
 249 -276 249 -276 94 -276 c 0,4,5
 37 -276 37 -276 -1 -239.5 c 128,-1,6
 -39 -203 -39 -203 -39 -152 c 0,7,8
 -39 -141 -39 -141 -35 -125 c 1,9,-1
 35 -125 l 1,10,11
 35 -174 35 -174 88 -174 c 0,12,13
 133 -174 133 -174 161 -123.5 c 128,-1,14
 189 -73 189 -73 211 20 c 2,15,-1
 391 799 l 1,16,-1
 270 799 l 1,17,-1
 326 901 l 1,18,-1
 416 901 l 1,19,-1
 461 1096 l 2,20,21
 488 1217 488 1217 593.5 1294.5 c 128,-1,22
 699 1372 699 1372 825 1372 c 0,23,24
 910 1372 910 1372 965 1350 c 1,25,-1
 897 1239 l 1,26,27
 878 1270 878 1270 831 1270 c 0,28,29
 788 1270 788 1270 762 1223 c 128,-1,30
 736 1176 736 1176 705 1042 c 2,31,-1
 672 901 l 1,32,-1
 817 901 l 1,33,-1
 793 799 l 1,34,-1
 647 799 l 1,0,-1
EndSplineSet
Validated: 1
EndChar

StartChar: j
Encoding: 106 106 13
Width: 438
VWidth: 0
Flags: W
HStem: -348 102<-190 25> 860 41G<292 557> 1065 164<397 573>
AnchorPoint: "bottom" -10 -328 basechar 0
LayerCount: 2
Fore
SplineSet
-141 -195 m 1,0,1
 -119 -246 -119 -246 -45 -246 c 0,2,3
 7 -246 7 -246 33.5 -193 c 128,-1,4
 60 -140 60 -140 92 0 c 2,5,-1
 301 901 l 1,6,-1
 557 901 l 1,7,-1
 332 -68 l 2,8,9
 316 -140 316 -140 266.5 -196.5 c 128,-1,10
 217 -253 217 -253 152.5 -284.5 c 128,-1,11
 88 -316 88 -316 24 -332 c 128,-1,12
 -40 -348 -40 -348 -98 -348 c 0,13,14
 -228 -348 -228 -348 -285 -256 c 1,15,-1
 -141 -195 l 1,0,1
397 1229 m 1,16,-1
 612 1229 l 1,17,-1
 573 1065 l 1,18,-1
 358 1065 l 1,19,-1
 397 1229 l 1,16,-1
EndSplineSet
Validated: 1
EndChar

StartChar: l
Encoding: 108 108 15
Width: 575
VWidth: 0
Flags: W
HStem: -20 102<301 515>
VStem: 135 258<84 375> 522 70<93 131>
AnchorPoint: "bottom" 254 -4 basechar 0
AnchorPoint: "cedilla" 330 0 basechar 0
AnchorPoint: "top" 551 1434 basechar 0
LayerCount: 2
Fore
SplineSet
403 1352 m 25,0,-1
 659 1352 l 1,1,-1
 412 276 l 6,2,3
 393 191 393 191 393 156 c 4,4,5
 393 82 393 82 444 82 c 4,6,7
 500 82 500 82 522 131 c 5,8,-1
 592 131 l 5,9,10
 578 73 578 73 518 26.5 c 132,-1,11
 458 -20 458 -20 393 -20 c 4,12,13
 262 -20 262 -20 198.5 28 c 132,-1,14
 135 76 135 76 135 156 c 4,15,16
 135 183 135 183 141 213 c 6,17,-1
 403 1352 l 25,0,-1
EndSplineSet
Validated: 1
EndChar

StartChar: p
Encoding: 112 112 16
Width: 1107
VWidth: 0
Flags: W
HStem: -16 102<553 741> 819 102<226 395 681 886>
VStem: 150 70<770 809> 909 248<366 760>
AnchorPoint: "bottom" 623 0 basechar 0
AnchorPoint: "top" 850 1004 basechar 0
LayerCount: 2
Fore
SplineSet
1157 575 m 0,0,1
 1157 461 1157 461 1107.5 352 c 128,-1,2
 1058 243 1058 243 978 162.5 c 128,-1,3
 898 82 898 82 792.5 33 c 128,-1,4
 687 -16 687 -16 580 -16 c 0,5,6
 500 -16 500 -16 442 8 c 1,7,-1
 346 -410 l 1,8,-1
 90 -410 l 1,9,-1
 328 625 l 1,10,11
 346 692 346 692 346 745 c 0,12,13
 346 819 346 819 295 819 c 0,14,15
 241 819 241 819 219 770 c 1,16,-1
 150 770 l 1,17,18
 162 828 162 828 222.5 875 c 128,-1,19
 283 922 283 922 348 922 c 0,20,21
 484 922 484 922 551 868 c 1,22,23
 659 926 659 926 817 926 c 0,24,25
 974 926 974 926 1065.5 827 c 128,-1,26
 1157 728 1157 728 1157 575 c 0,0,1
635 86 m 0,27,28
 697 86 697 86 747.5 136 c 128,-1,29
 798 186 798 186 826.5 256 c 128,-1,30
 855 326 855 326 875 408.5 c 128,-1,31
 895 491 895 491 902 549 c 128,-1,32
 909 607 909 607 909 639 c 0,33,34
 909 722 909 722 888 772.5 c 128,-1,35
 867 823 867 823 825 823 c 0,36,37
 765 823 765 823 722 804 c 128,-1,38
 679 785 679 785 648.5 742 c 128,-1,39
 618 699 618 699 597.5 644 c 128,-1,40
 577 589 577 589 557 504 c 0,41,42
 524 357 524 357 524 264 c 0,43,44
 524 86 524 86 635 86 c 0,27,28
EndSplineSet
Validated: 1
EndChar

StartChar: q
Encoding: 113 113 17
Width: 1081
VWidth: 0
Flags: W
HStem: -410 102<788 1003> -20 102<421 630> 819 102<573 811>
VStem: 156 244<115 512> 623 260<-305 -10> 825 242<489 801> 1010 70<-296 -258>
AnchorPoint: "bottom" 403 0 basechar 0
AnchorPoint: "top" 735 1004 basechar 0
LayerCount: 2
Fore
SplineSet
156 295 m 0,0,1
 156 340 156 340 163.5 391.5 c 128,-1,2
 171 443 171 443 189.5 504.5 c 128,-1,3
 208 566 208 566 236 623.5 c 128,-1,4
 264 681 264 681 310 736 c 128,-1,5
 356 791 356 791 413.5 832 c 128,-1,6
 471 873 471 873 552.5 897.5 c 128,-1,7
 634 922 634 922 729 922 c 0,8,9
 785 922 785 922 830.5 916.5 c 128,-1,10
 876 911 876 911 921.5 894.5 c 128,-1,11
 967 878 967 878 998 851 c 128,-1,12
 1029 824 1029 824 1048 778 c 128,-1,13
 1067 732 1067 732 1067 670 c 128,-1,14
 1067 608 1067 608 1049 532 c 2,15,-1
 899 -113 l 2,16,17
 883 -185 883 -185 883 -233 c 0,18,19
 883 -307 883 -307 932 -307 c 0,20,21
 988 -307 988 -307 1010 -258 c 1,22,-1
 1079 -258 l 1,23,24
 1065 -316 1065 -316 1005.5 -363 c 128,-1,25
 946 -410 946 -410 881 -410 c 0,26,27
 750 -410 750 -410 686.5 -361.5 c 128,-1,28
 623 -313 623 -313 623 -233 c 0,29,30
 623 -206 623 -206 629 -176 c 2,31,-1
 670 4 l 1,32,33
 594 -20 594 -20 512 -20 c 0,34,35
 327 -20 327 -20 241.5 64.5 c 128,-1,36
 156 149 156 149 156 295 c 0,0,1
768 430 m 2,37,-1
 807 598 l 2,38,39
 825 672 825 672 825 715 c 0,40,41
 825 777 825 777 790.5 798 c 128,-1,42
 756 819 756 819 674 819 c 0,43,44
 612 819 612 819 561.5 763.5 c 128,-1,45
 511 708 511 708 482 631 c 128,-1,46
 453 554 453 554 433 465.5 c 128,-1,47
 413 377 413 377 406 317 c 128,-1,48
 399 257 399 257 399 229 c 0,49,50
 399 82 399 82 504 82 c 0,51,52
 552 82 552 82 591 101 c 128,-1,53
 630 120 630 120 656 149.5 c 128,-1,54
 682 179 682 179 704 227 c 128,-1,55
 726 275 726 275 739.5 320.5 c 128,-1,56
 753 366 753 366 768 430 c 2,37,-1
EndSplineSet
Validated: 1
EndChar

StartChar: r
Encoding: 114 114 18
Width: 862
VWidth: 0
Flags: W
HStem: 0 43G<184 450> 819 102<226 409 663 955>
VStem: 150 70<770 809>
AnchorPoint: "bottom" 319 0 basechar 0
AnchorPoint: "cedilla" 313 0 basechar 0
AnchorPoint: "top" 666 1004 basechar 0
LayerCount: 2
Fore
SplineSet
973 741 m 1,0,1
 949 819 949 819 815 819 c 0,2,3
 752 819 752 819 703.5 797 c 128,-1,4
 655 775 655 775 606 731 c 1,5,6
 605 724 605 724 603 709.5 c 128,-1,7
 601 695 601 695 600 688 c 2,8,-1
 440 0 l 1,9,-1
 184 0 l 1,10,-1
 328 625 l 1,11,12
 346 692 346 692 346 745 c 0,13,14
 346 819 346 819 295 819 c 0,15,16
 241 819 241 819 219 770 c 1,17,-1
 150 770 l 1,18,19
 162 828 162 828 222.5 875 c 128,-1,20
 283 922 283 922 348 922 c 0,21,22
 519 922 519 922 578 840 c 1,23,24
 651 883 651 883 704 902.5 c 128,-1,25
 757 922 757 922 825 922 c 0,26,27
 932 922 932 922 1008 893 c 1,28,-1
 973 741 l 1,0,1
EndSplineSet
Validated: 1
EndChar

StartChar: u
Encoding: 117 117 19
Width: 1110
VWidth: 0
Flags: W
HStem: -20 102<435 668 876 1050> 860 41G<281 547 826 1092>
VStem: 154 256<105 501> 668 260<101 364> 1057 70<93 131>
AnchorPoint: "horn" 1030 635 basechar 0
AnchorPoint: "bottom" 471 0 basechar 0
AnchorPoint: "top" 715 1004 basechar 0
AnchorPoint: "ogonek" 924 0 basechar 0
LayerCount: 2
Fore
SplineSet
836 901 m 1,0,-1
 1092 901 l 1,1,-1
 946 276 l 2,2,3
 928 195 928 195 928 156 c 0,4,5
 928 82 928 82 979 82 c 0,6,7
 1035 82 1035 82 1057 131 c 1,8,-1
 1126 131 l 1,9,10
 1112 73 1112 73 1052.5 26.5 c 128,-1,11
 993 -20 993 -20 928 -20 c 0,12,13
 778 -20 778 -20 715 43 c 1,14,15
 567 -20 567 -20 475 -20 c 0,16,17
 309 -20 309 -20 231.5 43.5 c 128,-1,18
 154 107 154 107 154 240 c 0,19,20
 154 311 154 311 176 410 c 1,21,-1
 291 901 l 1,22,-1
 547 901 l 1,23,-1
 438 434 l 1,24,25
 410 303 410 303 410 236 c 0,26,27
 410 151 410 151 441 116.5 c 128,-1,28
 472 82 472 82 528 82 c 0,29,30
 609 82 609 82 670 127 c 1,31,32
 670 131 670 131 669 140.5 c 128,-1,33
 668 150 668 150 668 154 c 0,34,35
 668 173 668 173 676 213 c 1,36,-1
 836 901 l 1,0,-1
EndSplineSet
Validated: 1
EndChar

StartChar: g
Encoding: 103 103 20
Width: 1091
VWidth: 0
Flags: W
HStem: -348 102<264 516> -20 102<418 603> 819 102<553 784 1063 1186>
VStem: 147 238<126 481> 1186 72<770 815>
AnchorPoint: "bottom" 377 -332 basechar 0
AnchorPoint: "top" 709 1004 basechar 0
LayerCount: 2
Fore
SplineSet
147 307 m 0,0,1
 147 423 147 423 190.5 535.5 c 128,-1,2
 234 648 234 648 305 733 c 128,-1,3
 376 818 376 818 471.5 870 c 128,-1,4
 567 922 567 922 666 922 c 0,5,6
 796 922 796 922 881 856 c 1,7,8
 973 922 973 922 1126 922 c 0,9,10
 1183 922 1183 922 1220 885 c 128,-1,11
 1257 848 1257 848 1257 797 c 0,12,13
 1257 778 1257 778 1255 770 c 1,14,-1
 1186 770 l 1,15,16
 1186 819 1186 819 1130 819 c 0,17,18
 1085 819 1085 819 1057.5 768.5 c 128,-1,19
 1030 718 1030 718 1008 625 c 2,20,-1
 901 160 l 2,21,22
 876 51 876 51 854 -20.5 c 128,-1,23
 832 -92 832 -92 800.5 -153 c 128,-1,24
 769 -214 769 -214 733.5 -248.5 c 128,-1,25
 698 -283 698 -283 644 -307 c 128,-1,26
 590 -331 590 -331 524 -339.5 c 128,-1,27
 458 -348 458 -348 365 -348 c 0,28,29
 219 -348 219 -348 61 -256 c 1,30,-1
 188 -150 l 1,31,32
 304 -246 304 -246 418 -246 c 0,33,34
 485 -246 485 -246 526 -193.5 c 128,-1,35
 567 -141 567 -141 604 -8 c 1,36,37
 549 -20 549 -20 489 -20 c 0,38,39
 326 -20 326 -20 236.5 67 c 128,-1,40
 147 154 147 154 147 307 c 0,0,1
631 94 m 1,41,-1
 768 688 l 2,42,43
 777 723 777 723 795 762 c 1,44,45
 753 819 753 819 672 819 c 0,46,47
 627 819 627 819 591.5 801 c 128,-1,48
 556 783 556 783 532 755.5 c 128,-1,49
 508 728 508 728 487 676.5 c 128,-1,50
 466 625 466 625 453 576.5 c 128,-1,51
 440 528 440 528 422 451 c 0,52,53
 385 288 385 288 385 229 c 0,54,55
 385 155 385 155 421 118.5 c 128,-1,56
 457 82 457 82 543 82 c 0,57,58
 588 82 588 82 631 94 c 1,41,-1
EndSplineSet
Validated: 1
EndChar

StartChar: v
Encoding: 118 118 21
Width: 931
VWidth: 0
Flags: W
HStem: 0 43G<384 577> 860 41G<270 497 901 1090>
AnchorPoint: "bottom" 467 0 basechar 0
AnchorPoint: "top" 707 1004 basechar 0
LayerCount: 2
Fore
SplineSet
569 303 m 1,0,-1
 926 901 l 1,1,-1
 1090 901 l 1,2,-1
 553 0 l 1,3,-1
 389 0 l 1,4,-1
 270 901 l 1,5,-1
 492 901 l 1,6,-1
 569 303 l 1,0,-1
EndSplineSet
Validated: 1
EndChar

StartChar: w
Encoding: 119 119 22
Width: 1529
VWidth: 0
Flags: W
HStem: 0 43G<384 577 982 1175> 860 41G<270 497 901 1095 1499 1688>
AnchorPoint: "bottom" 791 0 basechar 0
AnchorPoint: "top" 1024 1004 basechar 0
LayerCount: 2
Fore
SplineSet
569 303 m 1,0,-1
 926 901 l 1,1,-1
 1090 901 l 1,2,-1
 1167 305 l 1,3,-1
 1524 901 l 1,4,-1
 1688 901 l 1,5,-1
 1151 0 l 1,6,-1
 987 0 l 1,7,-1
 907 596 l 1,8,-1
 553 0 l 1,9,-1
 389 0 l 1,10,-1
 270 901 l 1,11,-1
 492 901 l 1,12,-1
 569 303 l 1,0,-1
EndSplineSet
Validated: 1
EndChar

StartChar: x
Encoding: 120 120 23
Width: 974
VWidth: 0
Flags: W
HStem: 0 43G<61 276 636 903> 860 41G<276 542 822 1034>
AnchorPoint: "bottom" 459 0 basechar 0
AnchorPoint: "top" 707 1004 basechar 0
LayerCount: 2
Fore
SplineSet
463 455 m 1,0,-1
 276 901 l 1,1,-1
 524 901 l 1,2,-1
 633 645 l 1,3,-1
 858 901 l 1,4,-1
 1034 901 l 1,5,-1
 688 510 l 1,6,-1
 903 0 l 1,7,-1
 653 0 l 1,8,-1
 520 317 l 1,9,-1
 240 0 l 1,10,-1
 61 0 l 1,11,-1
 463 455 l 1,0,-1
EndSplineSet
Validated: 1
EndChar

StartChar: y
Encoding: 121 121 24
Width: 931
VWidth: 0
Flags: W
HStem: -348 102<97 251> 860 41G<270 497 901 1090>
AnchorPoint: "bottom" 270 -328 basechar 0
AnchorPoint: "top" 709 1004 basechar 0
LayerCount: 2
Fore
SplineSet
137 -348 m 0,0,1
 66 -348 66 -348 1 -305.5 c 128,-1,2
 -64 -263 -64 -263 -78 -180 c 1,3,-1
 125 -152 l 1,4,5
 129 -201 129 -201 149 -223.5 c 128,-1,6
 169 -246 169 -246 190 -246 c 0,7,8
 241 -246 241 -246 362 -45 c 2,9,-1
 389 0 l 1,10,-1
 270 901 l 1,11,-1
 492 901 l 1,12,-1
 569 305 l 1,13,-1
 926 901 l 1,14,-1
 1090 901 l 1,15,-1
 522 -49 l 2,16,17
 434 -197 434 -197 342 -272.5 c 128,-1,18
 250 -348 250 -348 137 -348 c 0,0,1
EndSplineSet
Validated: 1
EndChar

StartChar: k
Encoding: 107 107 25
Width: 978
VWidth: 0
Flags: W
HStem: 0 43G<143 409 659 909> 860 41G<796 1081> 1270 102<289 504>
VStem: 213 70<1221 1259> 410 260<987 1268>
AnchorPoint: "bottom" 524 0 basechar 0
AnchorPoint: "top" 807 1434 basechar 0
AnchorPoint: "cedilla" 504 0 basechar 0
LayerCount: 2
Fore
SplineSet
399 0 m 1,0,-1
 143 0 l 1,1,-1
 391 1075 l 2,2,3
 410 1160 410 1160 410 1196 c 0,4,5
 410 1270 410 1270 358 1270 c 0,6,7
 305 1270 305 1270 283 1221 c 1,8,-1
 213 1221 l 1,9,10
 225 1279 225 1279 286 1325.5 c 128,-1,11
 347 1372 347 1372 412 1372 c 0,12,13
 543 1372 543 1372 606.5 1324 c 128,-1,14
 670 1276 670 1276 670 1196 c 0,15,16
 670 1166 670 1166 662 1139 c 1,17,-1
 547 639 l 1,18,-1
 842 901 l 1,19,-1
 1081 901 l 1,20,-1
 631 502 l 1,21,-1
 909 0 l 1,22,-1
 682 0 l 1,23,-1
 481 356 l 1,24,-1
 399 0 l 1,0,-1
EndSplineSet
Validated: 1
EndChar

StartChar: z
Encoding: 122 122 26
Width: 827
VWidth: 0
Flags: W
HStem: -233 82<115 253> 799 102<246 602>
VStem: 487 256<17 303>
AnchorPoint: "bottom" 336 -217 basechar 0
AnchorPoint: "top" 590 1004 basechar 0
LayerCount: 2
Fore
SplineSet
88 -152 m 1,0,1
 96 -151 96 -151 110.5 -149.5 c 128,-1,2
 125 -148 125 -148 166.5 -139 c 128,-1,3
 208 -130 208 -130 245.5 -117.5 c 128,-1,4
 283 -105 283 -105 329 -80 c 128,-1,5
 375 -55 375 -55 408.5 -24 c 128,-1,6
 442 7 442 7 464.5 55 c 128,-1,7
 487 103 487 103 487 160 c 128,-1,8
 487 217 487 217 461 271 c 128,-1,9
 435 325 435 325 397.5 361 c 128,-1,10
 360 397 360 397 322.5 425 c 128,-1,11
 285 453 285 453 259 466 c 2,12,-1
 233 479 l 1,13,-1
 602 799 l 1,14,-1
 190 799 l 1,15,-1
 246 901 l 1,16,-1
 934 901 l 1,17,-1
 487 512 l 1,18,19
 530 486 530 486 568 456 c 128,-1,20
 606 426 606 426 649 381.5 c 128,-1,21
 692 337 692 337 717.5 280.5 c 128,-1,22
 743 224 743 224 743 164 c 0,23,24
 743 90 743 90 708.5 27.5 c 128,-1,25
 674 -35 674 -35 619.5 -74.5 c 128,-1,26
 565 -114 565 -114 498.5 -145 c 128,-1,27
 432 -176 432 -176 365.5 -192 c 128,-1,28
 299 -208 299 -208 244.5 -218 c 128,-1,29
 190 -228 190 -228 156 -230 c 2,30,-1
 121 -233 l 1,31,-1
 88 -152 l 1,0,1
EndSplineSet
Validated: 1
EndChar

StartChar: A
Encoding: 65 65 27
Width: 1275
VWidth: 0
Flags: W
HStem: 0 43G<31 291 1014 1255> 410 102<571 952> 1393 41G<860 1070>
AnchorPoint: "bottom" 647 0 basechar 0
AnchorPoint: "ogonek" 1092 0 basechar 0
AnchorPoint: "top" 975 1434 basechar 0
LayerCount: 2
Fore
SplineSet
1065 1434 m 1,0,-1
 1255 0 l 1,1,-1
 1020 0 l 1,2,-1
 965 410 l 1,3,-1
 510 410 l 1,4,-1
 266 0 l 1,5,-1
 31 0 l 1,6,-1
 885 1434 l 1,7,-1
 1065 1434 l 1,0,-1
883 1034 m 1,8,-1
 571 512 l 1,9,-1
 952 512 l 1,10,-1
 883 1034 l 1,8,-1
EndSplineSet
Validated: 1
EndChar

StartChar: B
Encoding: 66 66 28
Width: 1052
VWidth: 0
Flags: W
HStem: 0 102<373 608> 727 102<541 682> 1331 102<655 806>
VStem: 780 268<296 657> 852 270<1002 1290>
AnchorPoint: "bottom" 416 0 basechar 0
AnchorPoint: "top" 741 1434 basechar 0
LayerCount: 2
Fore
SplineSet
455 102 m 2,0,1
 554 102 554 102 630 160.5 c 128,-1,2
 706 219 706 219 743 306 c 128,-1,3
 780 393 780 393 780 489 c 0,4,5
 780 591 780 591 736 659 c 128,-1,6
 692 727 692 727 598 727 c 2,7,-1
 516 727 l 1,8,-1
 373 102 l 1,9,-1
 455 102 l 2,0,1
1122 1188 m 0,10,11
 1122 1121 1122 1121 1102 1060 c 128,-1,12
 1082 999 1082 999 1054.5 958 c 128,-1,13
 1027 917 1027 917 989.5 881.5 c 128,-1,14
 952 846 952 846 925.5 827.5 c 128,-1,15
 899 809 899 809 872 795 c 1,16,17
 963 754 963 754 1006 675.5 c 128,-1,18
 1049 597 1049 597 1049 498 c 0,19,20
 1049 406 1049 406 1015 320 c 128,-1,21
 981 234 981 234 915.5 161 c 128,-1,22
 850 88 850 88 740 44 c 128,-1,23
 630 0 630 0 492 0 c 2,24,-1
 82 0 l 1,25,-1
 414 1434 l 1,26,-1
 782 1434 l 2,27,28
 1122 1434 1122 1434 1122 1188 c 0,10,11
541 829 m 1,29,30
 613 830 613 830 683.5 870.5 c 128,-1,31
 754 911 754 911 803 988.5 c 128,-1,32
 852 1066 852 1066 852 1159 c 0,33,34
 852 1231 852 1231 816.5 1281 c 128,-1,35
 781 1331 781 1331 696 1331 c 2,36,-1
 655 1331 l 1,37,-1
 541 829 l 1,29,30
EndSplineSet
Validated: 1
EndChar

StartChar: P
Encoding: 80 80 29
Width: 970
VWidth: 0
Flags: W
HStem: 0 43G<92 368> 655 102<532 758> 1331 102<666 881>
VStem: 940 266<951 1271>
AnchorPoint: "bottom" 426 0 basechar 0
AnchorPoint: "top" 811 1434 basechar 0
LayerCount: 2
Fore
SplineSet
1206 1128 m 0,0,1
 1206 1066 1206 1066 1184 1001 c 128,-1,2
 1162 936 1162 936 1116 874 c 128,-1,3
 1070 812 1070 812 1007 763 c 128,-1,4
 944 714 944 714 855 684.5 c 128,-1,5
 766 655 766 655 664 655 c 2,6,-1
 510 655 l 1,7,-1
 358 0 l 1,8,-1
 92 0 l 1,9,-1
 424 1434 l 1,10,-1
 844 1434 l 2,11,12
 923 1434 923 1434 986 1416 c 128,-1,13
 1049 1398 1049 1398 1089.5 1368.5 c 128,-1,14
 1130 1339 1130 1339 1157 1299 c 128,-1,15
 1184 1259 1184 1259 1195 1216.5 c 128,-1,16
 1206 1174 1206 1174 1206 1128 c 0,0,1
625 758 m 2,17,18
 715 758 715 758 789.5 816 c 128,-1,19
 864 874 864 874 902 958 c 128,-1,20
 940 1042 940 1042 940 1128 c 0,21,22
 940 1215 940 1215 896.5 1273 c 128,-1,23
 853 1331 853 1331 758 1331 c 2,24,-1
 666 1331 l 1,25,-1
 532 758 l 1,26,-1
 625 758 l 2,17,18
EndSplineSet
Validated: 1
EndChar

StartChar: C
Encoding: 67 67 30
Width: 1325
VWidth: 0
Flags: W
HStem: -20 102<601 928> 1331 102<832 1172>
VStem: 201 260<280 770>
AnchorPoint: "bottom" 702 0 basechar 0
AnchorPoint: "cedilla" 717 0 basechar 0
AnchorPoint: "top" 1008 1434 basechar 0
LayerCount: 2
Fore
SplineSet
1257 209 m 1,0,1
 1153 106 1153 106 1005 43 c 128,-1,2
 857 -20 857 -20 696 -20 c 0,3,4
 626 -20 626 -20 557 -0.5 c 128,-1,5
 488 19 488 19 423.5 61.5 c 128,-1,6
 359 104 359 104 310 164.5 c 128,-1,7
 261 225 261 225 231 314.5 c 128,-1,8
 201 404 201 404 201 510 c 0,9,10
 201 617 201 617 228 728 c 128,-1,11
 255 839 255 839 304 941 c 128,-1,12
 353 1043 353 1043 425.5 1133 c 128,-1,13
 498 1223 498 1223 584 1290 c 128,-1,14
 670 1357 670 1357 776 1395.5 c 128,-1,15
 882 1434 882 1434 993 1434 c 0,16,17
 1382 1434 1382 1434 1489 1245 c 1,18,-1
 1249 1178 l 1,19,20
 1229 1221 1229 1221 1214.5 1243.5 c 128,-1,21
 1200 1266 1200 1266 1172.5 1289.5 c 128,-1,22
 1145 1313 1145 1313 1103.5 1322 c 128,-1,23
 1062 1331 1062 1331 999 1331 c 0,24,25
 911 1331 911 1331 834.5 1292.5 c 128,-1,26
 758 1254 758 1254 704 1192 c 128,-1,27
 650 1130 650 1130 607 1048 c 128,-1,28
 564 966 564 966 537.5 883 c 128,-1,29
 511 800 511 800 493 716.5 c 128,-1,30
 475 633 475 633 468 571 c 128,-1,31
 461 509 461 509 461 465 c 0,32,33
 461 275 461 275 543 178.5 c 128,-1,34
 625 82 625 82 750 82 c 0,35,36
 808 82 808 82 852 93 c 128,-1,37
 896 104 896 104 935.5 130.5 c 128,-1,38
 975 157 975 157 1004 185 c 128,-1,39
 1033 213 1033 213 1077 264 c 1,40,-1
 1257 209 l 1,0,1
EndSplineSet
Validated: 1
EndChar

StartChar: D
Encoding: 68 68 31
Width: 1216
VWidth: 0
Flags: W
HStem: 0 102<383 690> 1331 102<666 966>
VStem: 1065 264<718 1227>
AnchorPoint: "bottom" 477 0 basechar 0
AnchorPoint: "top" 831 1434 basechar 0
LayerCount: 2
Fore
SplineSet
1329 1020 m 0,0,1
 1329 962 1329 962 1319.5 885.5 c 128,-1,2
 1310 809 1310 809 1285.5 710 c 128,-1,3
 1261 611 1261 611 1224.5 514.5 c 128,-1,4
 1188 418 1188 418 1128.5 324 c 128,-1,5
 1069 230 1069 230 995 159 c 128,-1,6
 921 88 921 88 815.5 44 c 128,-1,7
 710 0 710 0 588 0 c 2,8,-1
 92 0 l 1,9,-1
 424 1434 l 1,10,-1
 920 1434 l 2,11,12
 1329 1434 1329 1434 1329 1020 c 0,0,1
666 1331 m 1,13,-1
 383 102 l 1,14,-1
 551 102 l 2,15,16
 636 102 636 102 712.5 153 c 128,-1,17
 789 204 789 204 843 287 c 128,-1,18
 897 370 897 370 941 470.5 c 128,-1,19
 985 571 985 571 1011.5 676 c 128,-1,20
 1038 781 1038 781 1051.5 870 c 128,-1,21
 1065 959 1065 959 1065 1024 c 0,22,23
 1065 1185 1065 1185 1002 1258 c 128,-1,24
 939 1331 939 1331 834 1331 c 2,25,-1
 666 1331 l 1,13,-1
EndSplineSet
Validated: 1
EndChar

StartChar: E
Encoding: 69 69 32
Width: 962
VWidth: 0
Flags: W
HStem: 0 102<373 942> 799 102<557 909> 1331 102<655 1217>
AnchorPoint: "bottom" 553 0 basechar 0
AnchorPoint: "cedilla" 643 0 basechar 0
AnchorPoint: "ogonek" 754 0 basechar 0
AnchorPoint: "top" 854 1434 basechar 0
LayerCount: 2
Fore
SplineSet
942 0 m 1,0,-1
 82 0 l 1,1,-1
 414 1434 l 1,2,-1
 1241 1434 l 1,3,-1
 1217 1331 l 1,4,-1
 655 1331 l 1,5,-1
 557 901 l 1,6,-1
 934 901 l 1,7,-1
 909 799 l 1,8,-1
 532 799 l 1,9,-1
 373 102 l 1,10,-1
 967 102 l 1,11,-1
 942 0 l 1,0,-1
EndSplineSet
Validated: 1
EndChar

StartChar: F
Encoding: 70 70 33
Width: 899
VWidth: 0
Flags: W
HStem: 0 43G<92 368> 799 102<567 920> 1331 102<666 1227>
AnchorPoint: "bottom" 315 2 basechar 0
AnchorPoint: "top" 854 1434 basechar 0
LayerCount: 2
Fore
SplineSet
92 0 m 1,0,-1
 424 1434 l 1,1,-1
 1251 1434 l 1,2,-1
 1227 1331 l 1,3,-1
 666 1331 l 1,4,-1
 567 901 l 1,5,-1
 944 901 l 1,6,-1
 920 799 l 1,7,-1
 543 799 l 1,8,-1
 358 0 l 1,9,-1
 92 0 l 1,0,-1
EndSplineSet
Validated: 1
EndChar

StartChar: G
Encoding: 71 71 34
Width: 1325
VWidth: 0
Flags: W
HStem: -20 102<601 956> 717 102<969 1118> 1331 102<832 1172>
VStem: 201 260<280 770>
AnchorPoint: "bottom" 686 0 basechar 0
AnchorPoint: "cedilla" 717 0 basechar 0
AnchorPoint: "top" 1008 1434 basechar 0
LayerCount: 2
Fore
SplineSet
969 819 m 1,0,-1
 1397 819 l 1,1,-1
 1257 209 l 1,2,3
 1153 106 1153 106 1005 43 c 128,-1,4
 857 -20 857 -20 696 -20 c 0,5,6
 626 -20 626 -20 557 -0.5 c 128,-1,7
 488 19 488 19 423.5 61.5 c 128,-1,8
 359 104 359 104 310 164.5 c 128,-1,9
 261 225 261 225 231 314.5 c 128,-1,10
 201 404 201 404 201 510 c 0,11,12
 201 617 201 617 228 728 c 128,-1,13
 255 839 255 839 304 941 c 128,-1,14
 353 1043 353 1043 425.5 1133 c 128,-1,15
 498 1223 498 1223 584 1290 c 128,-1,16
 670 1357 670 1357 776 1395.5 c 128,-1,17
 882 1434 882 1434 993 1434 c 0,18,19
 1382 1434 1382 1434 1489 1245 c 1,20,-1
 1249 1178 l 1,21,22
 1229 1221 1229 1221 1214.5 1243.5 c 128,-1,23
 1200 1266 1200 1266 1172.5 1289.5 c 128,-1,24
 1145 1313 1145 1313 1103.5 1322 c 128,-1,25
 1062 1331 1062 1331 999 1331 c 0,26,27
 911 1331 911 1331 834.5 1292.5 c 128,-1,28
 758 1254 758 1254 704 1192 c 128,-1,29
 650 1130 650 1130 607 1048 c 128,-1,30
 564 966 564 966 537.5 883 c 128,-1,31
 511 800 511 800 493 716.5 c 128,-1,32
 475 633 475 633 468 571 c 128,-1,33
 461 509 461 509 461 465 c 0,34,35
 461 275 461 275 543 178.5 c 128,-1,36
 625 82 625 82 750 82 c 0,37,38
 874 82 874 82 983 135 c 1,39,-1
 1118 717 l 1,40,-1
 946 717 l 1,41,-1
 969 819 l 1,0,-1
EndSplineSet
Validated: 1
EndChar

StartChar: H
Encoding: 72 72 35
Width: 1189
VWidth: 0
Flags: W
HStem: 0 43G<82 358 823 1099> 717 102<537 989> 1393 41G<404 680 1146 1421>
AnchorPoint: "bottom" 588 0 basechar 0
AnchorPoint: "top" 926 1434 basechar 0
LayerCount: 2
Fore
SplineSet
680 1434 m 1,0,-1
 537 819 l 1,1,-1
 1012 819 l 1,2,-1
 1155 1434 l 1,3,-1
 1421 1434 l 1,4,-1
 1090 0 l 1,5,-1
 823 0 l 1,6,-1
 989 717 l 1,7,-1
 514 717 l 1,8,-1
 348 0 l 1,9,-1
 82 0 l 1,10,-1
 414 1434 l 1,11,-1
 680 1434 l 1,0,-1
EndSplineSet
Validated: 1
EndChar

StartChar: I
Encoding: 73 73 36
Width: 458
VWidth: 0
Flags: W
HStem: 0 43G<92 368> 1393 41G<414 690>
VStem: 92 598
AnchorPoint: "bottom" 233 0 basechar 0
AnchorPoint: "ogonek" 201 0 basechar 0
AnchorPoint: "top" 559 1434 basechar 0
LayerCount: 2
Fore
SplineSet
690 1434 m 25,0,-1
 358 0 l 1,1,-1
 92 0 l 1,2,-1
 424 1434 l 1,3,-1
 690 1434 l 25,0,-1
EndSplineSet
Validated: 1
EndChar

StartChar: J
Encoding: 74 74 37
Width: 894
VWidth: 0
Flags: W
HStem: -20 102<307 501> 1393 41G<851 1126>
AnchorPoint: "bottom" 403 0 basechar 0
AnchorPoint: "top" 995 1434 basechar 0
LayerCount: 2
Fore
SplineSet
907 487 m 18,0,1
 882 379 882 379 859 306.5 c 128,-1,2
 836 234 836 234 803.5 174 c 128,-1,3
 771 114 771 114 734 79.5 c 128,-1,4
 697 45 697 45 641.5 21 c 128,-1,5
 586 -3 586 -3 520 -11.5 c 128,-1,6
 454 -20 454 -20 360 -20 c 0,7,8
 215 -20 215 -20 57 72 c 1,9,-1
 256 178 l 1,10,11
 291 129 291 129 335.5 105.5 c 128,-1,12
 380 82 380 82 414 82 c 0,13,14
 482 82 482 82 533.5 163.5 c 128,-1,15
 585 245 585 245 631 442 c 2,16,-1
 860 1434 l 1,17,-1
 1126 1434 l 1,18,-1
 907 487 l 18,0,1
EndSplineSet
Validated: 1
EndChar

StartChar: K
Encoding: 75 75 38
Width: 1239
VWidth: 0
Flags: W
HStem: 0 43G<92 368 905 1151> 1393 41G<414 690 1177 1458>
AnchorPoint: "bottom" 600 0 basechar 0
AnchorPoint: "cedilla" 573 0 basechar 0
AnchorPoint: "top" 825 1434 basechar 0
LayerCount: 2
Fore
SplineSet
492 573 m 1,0,-1
 358 0 l 1,1,-1
 92 0 l 1,2,-1
 424 1434 l 1,3,-1
 690 1434 l 1,4,-1
 551 836 l 1,5,-1
 1223 1434 l 1,6,-1
 1458 1434 l 1,7,-1
 719 776 l 1,8,-1
 1151 0 l 1,9,-1
 928 0 l 1,10,-1
 569 643 l 1,11,-1
 492 573 l 1,0,-1
EndSplineSet
Validated: 1
EndChar

StartChar: L
Encoding: 76 76 39
Width: 1052
VWidth: 0
Flags: W
HStem: 0 102<373 942> 1393 41G<404 680>
AnchorPoint: "bottom" 535 0 basechar 0
AnchorPoint: "cedilla" 504 0 basechar 0
AnchorPoint: "top" 772 1434 basechar 0
LayerCount: 2
Fore
SplineSet
373 102 m 1,0,-1
 967 102 l 1,1,-1
 942 0 l 1,2,-1
 82 0 l 1,3,-1
 414 1434 l 1,4,-1
 680 1434 l 1,5,-1
 373 102 l 1,0,-1
EndSplineSet
Validated: 1
EndChar

StartChar: M
Encoding: 77 77 40
Width: 1480
VWidth: 0
Flags: W
HStem: 0 43G<92 368 1108 1384> 1393 41G<414 700 1411 1706>
AnchorPoint: "bottom" 758 0 basechar 0
AnchorPoint: "top" 1065 1434 basechar 0
LayerCount: 2
Fore
SplineSet
690 1434 m 1,0,-1
 879 631 l 1,1,-1
 1440 1434 l 1,2,-1
 1706 1434 l 1,3,-1
 1374 0 l 1,4,-1
 1108 0 l 1,5,-1
 1350 1047 l 1,6,-1
 791 248 l 1,7,-1
 600 1047 l 1,8,-1
 358 0 l 1,9,-1
 92 0 l 1,10,-1
 424 1434 l 1,11,-1
 690 1434 l 1,0,-1
EndSplineSet
Validated: 1
EndChar

StartChar: N
Encoding: 78 78 41
Width: 1261
VWidth: 0
Flags: W
HStem: 0 43G<92 368 878 1165> 1393 41G<414 703 1211 1487>
AnchorPoint: "bottom" 629 0 basechar 0
AnchorPoint: "cedilla" 614 0 basechar 0
AnchorPoint: "top" 967 1434 basechar 0
LayerCount: 2
Fore
SplineSet
1487 1434 m 1,0,-1
 1155 0 l 1,1,-1
 889 0 l 1,2,-1
 606 1075 l 1,3,-1
 358 0 l 1,4,-1
 92 0 l 1,5,-1
 424 1434 l 1,6,-1
 690 1434 l 1,7,-1
 692 1434 l 1,8,-1
 973 367 l 1,9,-1
 1221 1434 l 1,10,-1
 1487 1434 l 1,0,-1
EndSplineSet
Validated: 1
EndChar

StartChar: O
Encoding: 79 79 42
Width: 1370
VWidth: 0
Flags: W
HStem: -20 102<571 843> 1352 102<822 1122>
VStem: 199 258<251 749> 1235 256<698 1177>
AnchorPoint: "bottom" 680 0 basechar 0
AnchorPoint: "horn" 1425 1085 basechar 0
AnchorPoint: "ogonek" 684 0 basechar 0
AnchorPoint: "top" 997 1434 basechar 0
LayerCount: 2
Fore
SplineSet
659 -20 m 0,0,1
 571 -20 571 -20 490.5 11 c 128,-1,2
 410 42 410 42 343.5 102 c 128,-1,3
 277 162 277 162 238 262 c 128,-1,4
 199 362 199 362 199 489 c 0,5,6
 199 624 199 624 236.5 763 c 128,-1,7
 274 902 274 902 345.5 1025 c 128,-1,8
 417 1148 417 1148 511 1244.5 c 128,-1,9
 605 1341 605 1341 727.5 1397.5 c 128,-1,10
 850 1454 850 1454 981 1454 c 0,11,12
 1088 1454 1088 1454 1179 1423 c 128,-1,13
 1270 1392 1270 1392 1340.5 1332 c 128,-1,14
 1411 1272 1411 1272 1451 1173.5 c 128,-1,15
 1491 1075 1491 1075 1491 948 c 0,16,17
 1491 863 1491 863 1475 772 c 128,-1,18
 1459 681 1459 681 1425 586 c 128,-1,19
 1391 491 1391 491 1342.5 403.5 c 128,-1,20
 1294 316 1294 316 1224.5 238.5 c 128,-1,21
 1155 161 1155 161 1072.5 103.5 c 128,-1,22
 990 46 990 46 883.5 13 c 128,-1,23
 777 -20 777 -20 659 -20 c 0,0,1
694 82 m 0,24,25
 799 82 799 82 890.5 150 c 128,-1,26
 982 218 982 218 1043.5 322.5 c 128,-1,27
 1105 427 1105 427 1149.5 554.5 c 128,-1,28
 1194 682 1194 682 1214.5 799.5 c 128,-1,29
 1235 917 1235 917 1235 1012 c 0,30,31
 1235 1185 1235 1185 1165 1268.5 c 128,-1,32
 1095 1352 1095 1352 969 1352 c 0,33,34
 875 1352 875 1352 790.5 1287 c 128,-1,35
 706 1222 706 1222 646.5 1120 c 128,-1,36
 587 1018 587 1018 543 894.5 c 128,-1,37
 499 771 499 771 478 653 c 128,-1,38
 457 535 457 535 457 440 c 0,39,40
 457 262 457 262 524.5 172 c 128,-1,41
 592 82 592 82 694 82 c 0,24,25
EndSplineSet
Validated: 1
EndChar

StartChar: Q
Encoding: 81 81 43
Width: 1370
VWidth: 0
Flags: W
HStem: -348 102<908 1034> 1352 102<812 1130>
VStem: 199 254<256 745> 532 268<-142 -1> 1237 254<714 1178>
AnchorPoint: "top" 981 1434 basechar 0
LayerCount: 2
Fore
SplineSet
694 82 m 0,0,1
 779 82 779 82 853.5 123 c 128,-1,2
 928 164 928 164 982 231 c 128,-1,3
 1036 298 1036 298 1080.5 385.5 c 128,-1,4
 1125 473 1125 473 1153.5 563.5 c 128,-1,5
 1182 654 1182 654 1201.5 745 c 128,-1,6
 1221 836 1221 836 1229 906.5 c 128,-1,7
 1237 977 1237 977 1237 1028 c 0,8,9
 1237 1352 1237 1352 969 1352 c 0,10,11
 891 1352 891 1352 822.5 1317 c 128,-1,12
 754 1282 754 1282 705 1222.5 c 128,-1,13
 656 1163 656 1163 615.5 1088.5 c 128,-1,14
 575 1014 575 1014 548.5 929.5 c 128,-1,15
 522 845 522 845 502.5 765.5 c 128,-1,16
 483 686 483 686 472.5 611.5 c 128,-1,17
 462 537 462 537 457.5 488 c 128,-1,18
 453 439 453 439 453 410 c 0,19,20
 453 244 453 244 517 163 c 128,-1,21
 581 82 581 82 694 82 c 0,0,1
535 -4 m 1,22,23
 388 34 388 34 293.5 159.5 c 128,-1,24
 199 285 199 285 199 489 c 0,25,26
 199 624 199 624 236.5 763 c 128,-1,27
 274 902 274 902 345.5 1025 c 128,-1,28
 417 1148 417 1148 511 1244.5 c 128,-1,29
 605 1341 605 1341 727.5 1397.5 c 128,-1,30
 850 1454 850 1454 981 1454 c 0,31,32
 1088 1454 1088 1454 1179 1423 c 128,-1,33
 1270 1392 1270 1392 1340.5 1332 c 128,-1,34
 1411 1272 1411 1272 1451 1173.5 c 128,-1,35
 1491 1075 1491 1075 1491 948 c 0,36,37
 1491 849 1491 849 1468.5 738 c 128,-1,38
 1446 627 1446 627 1393 505 c 128,-1,39
 1340 383 1340 383 1263 281 c 128,-1,40
 1186 179 1186 179 1066 100.5 c 128,-1,41
 946 22 946 22 801 -6 c 1,42,-1
 801 -18 l 2,43,44
 801 -117 801 -117 879 -181.5 c 128,-1,45
 957 -246 957 -246 1057 -246 c 1,46,-1
 1034 -348 l 1,47,48
 957 -348 957 -348 875 -331 c 128,-1,49
 793 -314 793 -314 713.5 -279.5 c 128,-1,50
 634 -245 634 -245 583 -181.5 c 128,-1,51
 532 -118 532 -118 532 -35 c 0,52,53
 532 -19 532 -19 535 -4 c 1,22,23
EndSplineSet
Validated: 1
EndChar

StartChar: R
Encoding: 82 82 44
Width: 1122
VWidth: 0
Flags: W
HStem: 0 43G<92 368 748 1012> 655 102<532 607> 1331 102<666 881>
VStem: 758 262<0 382> 940 266<951 1271>
AnchorPoint: "bottom" 549 0 basechar 0
AnchorPoint: "cedilla" 508 0 basechar 0
AnchorPoint: "top" 811 1434 basechar 0
LayerCount: 2
Fore
SplineSet
1206 1128 m 0,0,1
 1206 1042 1206 1042 1166 955.5 c 128,-1,2
 1126 869 1126 869 1043.5 794.5 c 128,-1,3
 961 720 961 720 852 684 c 1,4,5
 918 606 918 606 969 434.5 c 128,-1,6
 1020 263 1020 263 1020 115 c 0,7,8
 1020 52 1020 52 1008 0 c 1,9,-1
 748 0 l 1,10,11
 758 41 758 41 758 106 c 0,12,13
 758 254 758 254 702 419 c 128,-1,14
 646 584 646 584 569 655 c 1,15,-1
 510 655 l 1,16,-1
 358 0 l 1,17,-1
 92 0 l 1,18,-1
 424 1434 l 1,19,-1
 844 1434 l 2,20,21
 923 1434 923 1434 986 1416 c 128,-1,22
 1049 1398 1049 1398 1089.5 1368.5 c 128,-1,23
 1130 1339 1130 1339 1157 1299 c 128,-1,24
 1184 1259 1184 1259 1195 1216.5 c 128,-1,25
 1206 1174 1206 1174 1206 1128 c 0,0,1
625 758 m 2,26,27
 715 758 715 758 789.5 816 c 128,-1,28
 864 874 864 874 902 958 c 128,-1,29
 940 1042 940 1042 940 1128 c 0,30,31
 940 1215 940 1215 896.5 1273 c 128,-1,32
 853 1331 853 1331 758 1331 c 2,33,-1
 666 1331 l 1,34,-1
 532 758 l 1,35,-1
 625 758 l 2,26,27
EndSplineSet
Validated: 1
EndChar

StartChar: S
Encoding: 83 83 45
Width: 1198
VWidth: 0
Flags: W
HStem: -20 102<527 773> 1352 102<812 1024>
VStem: 207 238<177 350> 430 270<940 1185> 932 270<279 555>
AnchorPoint: "bottom" 627 0 basechar 0
AnchorPoint: "cedilla" 598 0 basechar 0
AnchorPoint: "top" 926 1434 basechar 0
LayerCount: 2
Fore
SplineSet
1202 465 m 0,0,1
 1202 358 1202 358 1153 266.5 c 128,-1,2
 1104 175 1104 175 1020.5 113 c 128,-1,3
 937 51 937 51 824.5 15.5 c 128,-1,4
 712 -20 712 -20 586 -20 c 0,5,6
 410 -20 410 -20 310 86.5 c 128,-1,7
 210 193 210 193 207 350 c 1,8,-1
 446 381 l 1,9,10
 444 367 444 367 444 342 c 0,11,12
 444 234 444 234 497 158 c 128,-1,13
 550 82 550 82 623 82 c 0,14,15
 695 82 695 82 752.5 111.5 c 128,-1,16
 810 141 810 141 842 182.5 c 128,-1,17
 874 224 874 224 895.5 275.5 c 128,-1,18
 917 327 917 327 924.5 365.5 c 128,-1,19
 932 404 932 404 932 432 c 0,20,21
 932 491 932 491 904.5 538 c 128,-1,22
 877 585 877 585 832.5 617.5 c 128,-1,23
 788 650 788 650 734.5 679 c 128,-1,24
 681 708 681 708 627.5 738.5 c 128,-1,25
 574 769 574 769 529.5 804 c 128,-1,26
 485 839 485 839 457.5 892.5 c 128,-1,27
 430 946 430 946 430 1012 c 0,28,29
 430 1091 430 1091 462.5 1162.5 c 128,-1,30
 495 1234 495 1234 548.5 1286 c 128,-1,31
 602 1338 602 1338 668.5 1377 c 128,-1,32
 735 1416 735 1416 805 1435 c 128,-1,33
 875 1454 875 1454 938 1454 c 0,34,35
 1021 1454 1021 1454 1082 1441.5 c 128,-1,36
 1143 1429 1143 1429 1179.5 1412 c 128,-1,37
 1216 1395 1216 1395 1244.5 1361 c 128,-1,38
 1273 1327 1273 1327 1286.5 1300 c 128,-1,39
 1300 1273 1300 1273 1319 1225 c 1,40,-1
 1085 1182 l 1,41,42
 1070 1231 1070 1231 1058.5 1257.5 c 128,-1,43
 1047 1284 1047 1284 1026 1308.5 c 128,-1,44
 1005 1333 1005 1333 974.5 1342.5 c 128,-1,45
 944 1352 944 1352 897 1352 c 128,-1,46
 850 1352 850 1352 802.5 1297.5 c 128,-1,47
 755 1243 755 1243 727.5 1173 c 128,-1,48
 700 1103 700 1103 700 1051 c 0,49,50
 700 1005 700 1005 721.5 966.5 c 128,-1,51
 743 928 743 928 778.5 900.5 c 128,-1,52
 814 873 814 873 859 844.5 c 128,-1,53
 904 816 904 816 951 792.5 c 128,-1,54
 998 769 998 769 1043 736 c 128,-1,55
 1088 703 1088 703 1123.5 667.5 c 128,-1,56
 1159 632 1159 632 1180.5 579.5 c 128,-1,57
 1202 527 1202 527 1202 465 c 0,0,1
EndSplineSet
Validated: 1
EndChar

StartChar: T
Encoding: 84 84 46
Width: 1198
VWidth: 0
Flags: W
HStem: 0 43G<487 763> 1331 102<352 795 1061 1526>
AnchorPoint: "bottom" 621 0 basechar 0
AnchorPoint: "cedilla" 618 0 basechar 0
AnchorPoint: "top" 954 1434 basechar 0
LayerCount: 2
Fore
SplineSet
352 1434 m 1,0,-1
 1554 1434 l 1,1,-1
 1526 1331 l 1,2,-1
 1061 1331 l 1,3,-1
 754 0 l 1,4,-1
 487 0 l 1,5,-1
 795 1331 l 1,6,-1
 328 1331 l 1,7,-1
 352 1434 l 1,0,-1
EndSplineSet
Validated: 1
EndChar

StartChar: U
Encoding: 85 85 47
Width: 1239
VWidth: 0
Flags: W
HStem: -20 102<498 781> 1393 41G<384 659 1209 1485>
VStem: 176 254<182 636>
AnchorPoint: "bottom" 627 0 basechar 0
AnchorPoint: "horn" 1403 1085 basechar 0
AnchorPoint: "ogonek" 676 0 basechar 0
AnchorPoint: "top" 958 1434 basechar 0
LayerCount: 2
Fore
SplineSet
1219 1434 m 1,0,-1
 1485 1434 l 1,1,-1
 1294 610 l 2,2,3
 1259 461 1259 461 1203.5 348.5 c 128,-1,4
 1148 236 1148 236 1083 167 c 128,-1,5
 1018 98 1018 98 935.5 55 c 128,-1,6
 853 12 853 12 772.5 -4 c 128,-1,7
 692 -20 692 -20 598 -20 c 0,8,9
 538 -20 538 -20 483 -9 c 128,-1,10
 428 2 428 2 370.5 31 c 128,-1,11
 313 60 313 60 271 105.5 c 128,-1,12
 229 151 229 151 202.5 226 c 128,-1,13
 176 301 176 301 176 397 c 0,14,15
 176 490 176 490 203 610 c 2,16,-1
 393 1434 l 1,17,-1
 659 1434 l 1,18,-1
 469 610 l 2,19,20
 430 444 430 444 430 334 c 0,21,22
 430 259 430 259 446.5 207 c 128,-1,23
 463 155 463 155 493 129 c 128,-1,24
 523 103 523 103 556.5 92.5 c 128,-1,25
 590 82 590 82 633 82 c 0,26,27
 683 82 683 82 725 95.5 c 128,-1,28
 767 109 767 109 810.5 144.5 c 128,-1,29
 854 180 854 180 891 238 c 128,-1,30
 928 296 928 296 963.5 390 c 128,-1,31
 999 484 999 484 1028 610 c 2,32,-1
 1219 1434 l 1,0,-1
EndSplineSet
Validated: 1
EndChar

StartChar: V
Encoding: 86 86 48
Width: 1101
VWidth: 0
Flags: W
HStem: 0 43G<461 668> 1393 41G<332 579 1175 1442>
AnchorPoint: "bottom" 561 0 basechar 0
AnchorPoint: "top" 881 1434 basechar 0
LayerCount: 2
Fore
SplineSet
465 0 m 1,0,-1
 332 1434 l 1,1,-1
 575 1434 l 1,2,-1
 664 473 l 1,3,-1
 1198 1434 l 1,4,-1
 1442 1434 l 1,5,-1
 645 0 l 1,6,-1
 465 0 l 1,0,-1
EndSplineSet
Validated: 1
EndChar

StartChar: X
Encoding: 88 88 49
Width: 1095
VWidth: 0
Flags: W
HStem: 0 43G<41 254 765 1034> 1393 41G<377 646 1071 1286>
AnchorPoint: "bottom" 524 -2 basechar 0
AnchorPoint: "top" 862 1434 basechar 0
LayerCount: 2
Fore
SplineSet
813 795 m 1,0,-1
 1034 0 l 1,1,-1
 776 0 l 1,2,-1
 625 543 l 1,3,-1
 223 0 l 1,4,-1
 41 0 l 1,5,-1
 573 721 l 1,6,-1
 377 1434 l 1,7,-1
 635 1434 l 1,8,-1
 762 975 l 1,9,-1
 1102 1434 l 1,10,-1
 1286 1434 l 1,11,-1
 813 795 l 1,0,-1
EndSplineSet
Validated: 1
EndChar

StartChar: W
Encoding: 87 87 50
Width: 1701
VWidth: 0
Flags: W
HStem: 0 43G<461 668 1061 1268> 860 41G<940 1169> 1393 41G<332 579 1775 2042>
AnchorPoint: "bottom" 860 0 basechar 0
AnchorPoint: "top" 1171 1434 basechar 0
LayerCount: 2
Fore
SplineSet
1165 901 m 1,0,-1
 1212 381 l 1,1,-1
 1798 1434 l 1,2,-1
 2042 1434 l 1,3,-1
 1245 0 l 1,4,-1
 1065 0 l 1,5,-1
 1006 647 l 1,6,-1
 645 0 l 1,7,-1
 465 0 l 1,8,-1
 332 1434 l 1,9,-1
 575 1434 l 1,10,-1
 672 381 l 1,11,-1
 963 901 l 1,12,-1
 1165 901 l 1,0,-1
EndSplineSet
Validated: 1
EndChar

StartChar: Y
Encoding: 89 89 51
Width: 1075
VWidth: 0
Flags: W
HStem: 0 43G<406 681> 1393 41G<377 646 1112 1327>
AnchorPoint: "bottom" 549 0 basechar 0
AnchorPoint: "top" 868 1434 basechar 0
LayerCount: 2
Fore
SplineSet
774 936 m 1,0,-1
 1143 1434 l 1,1,-1
 1327 1434 l 1,2,-1
 856 801 l 1,3,-1
 672 0 l 1,4,-1
 406 0 l 1,5,-1
 573 727 l 1,6,-1
 377 1434 l 1,7,-1
 635 1434 l 1,8,-1
 774 936 l 1,0,-1
EndSplineSet
Validated: 1
EndChar

StartChar: Z
Encoding: 90 90 52
Width: 1075
VWidth: 0
Flags: W
HStem: 0 102<367 963> 1331 102<414 958>
AnchorPoint: "bottom" 537 0 basechar 0
AnchorPoint: "top" 823 1434 basechar 0
LayerCount: 2
Fore
SplineSet
958 1331 m 1,0,-1
 358 1331 l 1,1,-1
 414 1434 l 1,2,-1
 1286 1434 l 1,3,-1
 367 102 l 1,4,-1
 987 102 l 1,5,-1
 963 0 l 1,6,-1
 41 0 l 1,7,-1
 958 1331 l 1,0,-1
EndSplineSet
Validated: 1
EndChar

StartChar: exclam
Encoding: 33 33 53
Width: 448
VWidth: 0
Flags: W
HStem: 0 164<150 328> 1393 41G<416 680>
VStem: 113 567
LayerCount: 2
Fore
SplineSet
150 164 m 5,0,-1
 365 164 l 1,1,-1
 328 0 l 1,2,-1
 113 0 l 1,3,-1
 150 164 l 5,0,-1
680 1434 m 17,4,-1
 403 369 l 1,5,-1
 209 369 l 1,6,-1
 424 1434 l 1,7,-1
 680 1434 l 17,4,-1
EndSplineSet
Validated: 1
EndChar

StartChar: period
Encoding: 46 46 54
Width: 407
VWidth: 0
Flags: W
HStem: 0 164<129 307>
VStem: 92 252
LayerCount: 2
Fore
SplineSet
129 164 m 1,0,-1
 344 164 l 1,1,-1
 307 0 l 1,2,-1
 92 0 l 1,3,-1
 129 164 l 1,0,-1
EndSplineSet
Validated: 1
EndChar

StartChar: comma
Encoding: 44 44 55
Width: 448
VWidth: 0
Flags: W
HStem: -203 367<144 213>
VStem: 55 309
LayerCount: 2
Fore
SplineSet
55 -203 m 1,0,1
 143 -109 143 -109 143 -12 c 0,2,3
 143 2 143 2 140 36 c 128,-1,4
 137 70 137 70 137 90 c 0,5,6
 137 128 137 128 145 164 c 1,7,-1
 365 164 l 1,8,9
 350 100 350 100 333.5 47 c 128,-1,10
 317 -6 317 -6 306.5 -36 c 128,-1,11
 296 -66 296 -66 276.5 -99.5 c 128,-1,12
 257 -133 257 -133 251.5 -141.5 c 128,-1,13
 246 -150 246 -150 224.5 -176 c 128,-1,14
 203 -202 203 -202 203 -203 c 1,15,-1
 55 -203 l 1,0,1
EndSplineSet
Validated: 1
EndChar

StartChar: quotesingle
Encoding: 39 39 56
Width: 428
VWidth: 0
Flags: W
HStem: 1024 410<424 532>
VStem: 358 301
LayerCount: 2
Fore
SplineSet
659 1434 m 25,0,-1
 532 1024 l 1,1,-1
 358 1024 l 1,2,-1
 424 1434 l 1,3,-1
 659 1434 l 25,0,-1
EndSplineSet
Validated: 1
EndChar

StartChar: dollar
Encoding: 36 36 58
Width: 1044
VWidth: 0
Flags: W
HStem: 0 43G<385 479 551 644> 150 102<528 586> 158 109<314 422> 1112 102<750 807>
VStem: 276 256<834 1029> 827 256<373 593>
LayerCount: 2
Fore
SplineSet
1165 1087 m 1,0,-1
 1030 1016 l 1,1,2
 979 1067 979 1067 887 1094 c 1,3,-1
 807 750 l 1,4,5
 932 709 932 709 1007.5 640 c 128,-1,6
 1083 571 1083 571 1083 496 c 0,7,8
 1083 396 1083 396 968.5 298.5 c 128,-1,9
 854 201 854 201 672 164 c 1,10,-1
 635 0 l 1,11,-1
 551 0 l 1,12,-1
 586 152 l 1,13,14
 570 150 570 150 535 150 c 2,15,-1
 504 150 l 1,16,-1
 469 0 l 1,17,-1
 385 0 l 1,18,-1
 422 158 l 1,19,20
 242 187 242 187 127 287 c 1,21,-1
 233 362 l 1,22,23
 320 290 320 290 446 266 c 1,24,-1
 543 682 l 1,25,26
 426 722 426 722 351 780.5 c 128,-1,27
 276 839 276 839 276 915 c 0,28,29
 276 1009 276 1009 384.5 1097.5 c 128,-1,30
 493 1186 493 1186 664 1208 c 1,31,-1
 696 1352 l 1,32,-1
 780 1352 l 1,33,-1
 750 1214 l 1,34,35
 788 1214 788 1214 829 1208 c 1,36,-1
 862 1352 l 1,37,-1
 946 1352 l 1,38,-1
 911 1196 l 1,39,40
 1079 1162 1079 1162 1165 1087 c 1,0,-1
635 1079 m 1,41,42
 591 1051 591 1051 561.5 1009 c 128,-1,43
 532 967 532 967 532 922 c 0,44,45
 532 867 532 867 578 831 c 1,46,-1
 635 1079 l 1,41,42
623 662 m 1,47,-1
 528 254 l 1,48,49
 546 252 546 252 588 252 c 2,50,-1
 608 252 l 1,51,-1
 698 643 l 1,52,53
 668 653 668 653 623 662 c 1,47,-1
651 791 m 1,54,55
 681 781 681 781 729 772 c 1,56,-1
 807 1108 l 1,57,58
 767 1112 767 1112 745 1112 c 0,59,60
 731 1112 731 1112 725 1110 c 1,61,-1
 651 791 l 1,54,55
698 279 m 1,62,63
 759 311 759 311 793 379 c 128,-1,64
 827 447 827 447 827 498 c 0,65,66
 827 559 827 559 774 602 c 1,67,-1
 698 279 l 1,62,63
EndSplineSet
Validated: 1
EndChar

StartChar: bar
Encoding: 124 124 59
Width: 356
VWidth: 0
Flags: W
HStem: 0 43G<92 265> 1393 41G<414 588>
VStem: 92 496
LayerCount: 2
Fore
SplineSet
588 1434 m 25,0,-1
 256 0 l 1,1,-1
 92 0 l 1,2,-1
 424 1434 l 1,3,-1
 588 1434 l 25,0,-1
EndSplineSet
Validated: 1
EndChar

StartChar: slash
Encoding: 47 47 60
Width: 905
VWidth: 0
Flags: W
HStem: 0 43G<61 290> 1393 41G<947 1176>
LayerCount: 2
Fore
SplineSet
1176 1434 m 1,0,-1
 264 0 l 1,1,-1
 61 0 l 1,2,-1
 973 1434 l 1,3,-1
 1176 1434 l 1,0,-1
EndSplineSet
Validated: 1
EndChar

StartChar: backslash
Encoding: 92 92 61
Width: 905
VWidth: 0
Flags: W
HStem: 0 43G<634 844> 1393 41G<393 603>
VStem: 393 451
LayerCount: 2
Fore
SplineSet
393 1434 m 1,0,-1
 596 1434 l 1,1,-1
 844 0 l 1,2,-1
 641 0 l 1,3,-1
 393 1434 l 1,0,-1
EndSplineSet
Validated: 1
EndChar

StartChar: question
Encoding: 63 63 62
Width: 944
VWidth: 0
Flags: W
HStem: 0 164<328 506> 369 215<416 571> 1270 102<563 810>
VStem: 860 246<830 1201>
LayerCount: 2
Fore
SplineSet
328 164 m 1,0,-1
 543 164 l 1,1,-1
 506 0 l 1,2,-1
 291 0 l 1,3,-1
 328 164 l 1,0,-1
1106 1022 m 0,4,5
 1106 914 1106 914 1065 818.5 c 128,-1,6
 1024 723 1024 723 954.5 656 c 128,-1,7
 885 589 885 589 797.5 545.5 c 128,-1,8
 710 502 710 502 614 487 c 1,9,-1
 571 369 l 1,10,-1
 397 369 l 1,11,-1
 416 584 l 1,12,-1
 524 584 l 2,13,14
 585 584 585 584 636.5 607 c 128,-1,15
 688 630 688 630 721.5 666.5 c 128,-1,16
 755 703 755 703 781.5 751.5 c 128,-1,17
 808 800 808 800 822 847 c 128,-1,18
 836 894 836 894 845.5 943 c 128,-1,19
 855 992 855 992 857.5 1024 c 128,-1,20
 860 1056 860 1056 860 1079 c 0,21,22
 860 1172 860 1172 815.5 1221 c 128,-1,23
 771 1270 771 1270 672 1270 c 0,24,25
 642 1270 642 1270 621.5 1265 c 128,-1,26
 601 1260 601 1260 585 1247.5 c 128,-1,27
 569 1235 569 1235 559.5 1223.5 c 128,-1,28
 550 1212 550 1212 532.5 1188 c 128,-1,29
 515 1164 515 1164 500 1147 c 1,30,-1
 317 1194 l 1,31,32
 495 1372 495 1372 727 1372 c 0,33,34
 898 1372 898 1372 1002 1277.5 c 128,-1,35
 1106 1183 1106 1183 1106 1022 c 0,4,5
EndSplineSet
Validated: 1
EndChar

StartChar: percent
Encoding: 37 37 65
Width: 1273
VWidth: 0
Flags: W
HStem: 156 109<919 1044> 473 109<945 1071> 729 109<497 623> 1047 109<524 650>
VStem: 293 201<839 1019> 653 201<865 1045> 715 201<265 446> 1073 203<289 472>
LayerCount: 2
Fore
SplineSet
1018 473 m 0,0,1
 989 473 989 473 967 455 c 128,-1,2
 945 437 945 437 934.5 411 c 128,-1,3
 924 385 924 385 919.5 362.5 c 128,-1,4
 915 340 915 340 915 324 c 0,5,6
 915 264 915 264 971 264 c 0,7,8
 1001 264 1001 264 1023 282 c 128,-1,9
 1045 300 1045 300 1055 326.5 c 128,-1,10
 1065 353 1065 353 1069 375 c 128,-1,11
 1073 397 1073 397 1073 414 c 0,12,13
 1073 473 1073 473 1018 473 c 0,0,1
715 317 m 0,14,15
 715 435 715 435 809 508.5 c 128,-1,16
 903 582 903 582 1044 582 c 0,17,18
 1102 582 1102 582 1151.5 568 c 128,-1,19
 1201 554 1201 554 1238.5 516 c 128,-1,20
 1276 478 1276 478 1276 420 c 0,21,22
 1276 302 1276 302 1181 229 c 128,-1,23
 1086 156 1086 156 946 156 c 0,24,25
 887 156 887 156 838 169.5 c 128,-1,26
 789 183 789 183 752 221 c 128,-1,27
 715 259 715 259 715 317 c 0,14,15
598 1047 m 0,28,29
 568 1047 568 1047 546 1029 c 128,-1,30
 524 1011 524 1011 513.5 984.5 c 128,-1,31
 503 958 503 958 498.5 936 c 128,-1,32
 494 914 494 914 494 897 c 0,33,34
 494 838 494 838 549 838 c 0,35,36
 588 838 588 838 613.5 869.5 c 128,-1,37
 639 901 639 901 646 931.5 c 128,-1,38
 653 962 653 962 653 987 c 0,39,40
 653 1047 653 1047 598 1047 c 0,28,29
293 891 m 0,41,42
 293 1009 293 1009 388 1082 c 128,-1,43
 483 1155 483 1155 623 1155 c 0,44,45
 716 1155 716 1155 785 1116 c 128,-1,46
 854 1077 854 1077 854 993 c 0,47,48
 854 875 854 875 759 802 c 128,-1,49
 664 729 664 729 524 729 c 0,50,51
 466 729 466 729 417 743 c 128,-1,52
 368 757 368 757 330.5 795 c 128,-1,53
 293 833 293 833 293 891 c 0,41,42
205 264 m 1,54,-1
 1145 1047 l 1,55,-1
 1364 1047 l 1,56,-1
 424 264 l 1,57,-1
 205 264 l 1,54,-1
EndSplineSet
Validated: 1
EndChar

StartChar: numbersign
Encoding: 35 35 66
Width: 1124
VWidth: 0
Flags: W
HStem: 410 102<221 322 600 662 942 1065> 840 102<371 498 774 838 1116 1217>
LayerCount: 2
Fore
SplineSet
559 410 m 1,0,-1
 442 123 l 1,1,-1
 205 123 l 1,2,-1
 322 410 l 1,3,-1
 197 410 l 1,4,-1
 221 512 l 1,5,-1
 362 512 l 1,6,-1
 498 840 l 1,7,-1
 348 840 l 1,8,-1
 371 942 l 1,9,-1
 537 942 l 1,10,-1
 655 1229 l 1,11,-1
 893 1229 l 1,12,-1
 774 942 l 1,13,-1
 879 942 l 1,14,-1
 995 1229 l 1,15,-1
 1233 1229 l 1,16,-1
 1116 942 l 1,17,-1
 1239 942 l 1,18,-1
 1217 840 l 1,19,-1
 1075 840 l 1,20,-1
 942 512 l 1,21,-1
 1090 512 l 1,22,-1
 1065 410 l 1,23,-1
 899 410 l 1,24,-1
 784 123 l 1,25,-1
 547 123 l 1,26,-1
 662 410 l 1,27,-1
 559 410 l 1,0,-1
600 512 m 1,28,-1
 705 512 l 1,29,-1
 838 840 l 1,30,-1
 735 840 l 1,31,-1
 600 512 l 1,28,-1
EndSplineSet
Validated: 1
EndChar

StartChar: zero
Encoding: 48 48 67
Width: 942
VWidth: 0
Flags: W
HStem: -20 102<401 599> 1004 102<611 789>
VStem: 135 233<151 539> 819 238<523 919>
LayerCount: 2
Fore
SplineSet
715 1004 m 0,0,1
 647 1004 647 1004 587 940 c 128,-1,2
 527 876 527 876 488.5 782.5 c 128,-1,3
 450 689 450 689 421.5 581.5 c 128,-1,4
 393 474 393 474 381 389.5 c 128,-1,5
 369 305 369 305 369 258 c 0,6,7
 369 82 369 82 502 82 c 0,8,9
 568 82 568 82 624 148 c 128,-1,10
 680 214 680 214 714.5 309 c 128,-1,11
 749 404 749 404 774 512 c 128,-1,12
 799 620 799 620 809 700.5 c 128,-1,13
 819 781 819 781 819 823 c 0,14,15
 819 1004 819 1004 715 1004 c 0,0,1
1057 707 m 0,16,17
 1057 577 1057 577 1008 445.5 c 128,-1,18
 959 314 959 314 877.5 211.5 c 128,-1,19
 796 109 796 109 682.5 44.5 c 128,-1,20
 569 -20 569 -20 449 -20 c 0,21,22
 347 -20 347 -20 274.5 33 c 128,-1,23
 202 86 202 86 168.5 172.5 c 128,-1,24
 135 259 135 259 135 369 c 0,25,26
 135 489 135 489 174 605 c 128,-1,27
 213 721 213 721 276 809 c 128,-1,28
 339 897 339 897 415 965.5 c 128,-1,29
 491 1034 491 1034 568 1070 c 128,-1,30
 645 1106 645 1106 709 1106 c 0,31,32
 869 1106 869 1106 963 995.5 c 128,-1,33
 1057 885 1057 885 1057 707 c 0,16,17
EndSplineSet
Validated: 1
EndChar

StartChar: one
Encoding: 49 49 68
Width: 942
VWidth: 0
Flags: W
HStem: 0 43G<350 616>
VStem: 350 510
LayerCount: 2
Fore
SplineSet
860 1096 m 1,0,-1
 606 0 l 1,1,-1
 350 0 l 1,2,-1
 573 967 l 1,3,-1
 512 961 l 1,4,-1
 537 1063 l 1,5,-1
 860 1096 l 1,0,-1
EndSplineSet
Validated: 1
EndChar

StartChar: two
Encoding: 50 50 69
Width: 942
VWidth: 0
Flags: W
HStem: 0 102<401 817> 983 102<595 823>
VStem: 752 244<700 982>
LayerCount: 2
Fore
SplineSet
121 0 m 1,0,1
 140 83 140 83 174.5 153 c 128,-1,2
 209 223 209 223 249.5 271 c 128,-1,3
 290 319 290 319 338 361 c 128,-1,4
 386 403 386 403 434 436.5 c 128,-1,5
 482 470 482 470 528.5 503.5 c 128,-1,6
 575 537 575 537 615.5 575 c 128,-1,7
 656 613 656 613 686.5 657.5 c 128,-1,8
 717 702 717 702 734.5 764.5 c 128,-1,9
 752 827 752 827 752 903 c 0,10,11
 752 983 752 983 694 983 c 0,12,13
 638 983 638 983 602.5 949 c 128,-1,14
 567 915 567 915 512 827 c 1,15,-1
 324 877 l 1,16,17
 472 1085 472 1085 748 1085 c 0,18,19
 860 1085 860 1085 927.5 1017.5 c 128,-1,20
 995 950 995 950 995 842 c 0,21,22
 995 763 995 763 966 695.5 c 128,-1,23
 937 628 937 628 889.5 579 c 128,-1,24
 842 530 842 530 784 486 c 128,-1,25
 726 442 726 442 665 400.5 c 128,-1,26
 604 359 604 359 550.5 317 c 128,-1,27
 497 275 497 275 456 220 c 128,-1,28
 415 165 415 165 401 102 c 1,29,-1
 842 102 l 1,30,-1
 817 0 l 1,31,-1
 121 0 l 1,0,1
EndSplineSet
Validated: 1
EndChar

StartChar: three
Encoding: 51 51 70
Width: 942
VWidth: 0
Flags: W
HStem: -258 102<295 502> 422 102<479 603> 983 102<556 744>
VStem: 70 190<-122 -41> 653 248<48 372> 758 248<663 965>
LayerCount: 2
Fore
SplineSet
401 -156 m 4,0,1
 467 -156 467 -156 527 -90 c 128,-1,2
 587 -24 587 -24 620 71 c 128,-1,3
 653 166 653 166 653 256 c 0,4,5
 653 335 653 335 609 378.5 c 128,-1,6
 565 422 565 422 457 422 c 1,7,-1
 479 524 l 1,8,9
 549 524 549 524 601.5 550 c 128,-1,10
 654 576 654 576 683 613 c 128,-1,11
 712 650 712 650 730 701 c 128,-1,12
 748 752 748 752 753 792.5 c 128,-1,13
 758 833 758 833 758 874 c 0,14,15
 758 931 758 931 735.5 957 c 128,-1,16
 713 983 713 983 666 983 c 0,17,18
 639 983 639 983 618.5 977.5 c 128,-1,19
 598 972 598 972 584.5 965.5 c 128,-1,20
 571 959 571 959 556.5 941.5 c 128,-1,21
 542 924 542 924 534.5 912.5 c 128,-1,22
 527 901 527 901 510.5 872.5 c 128,-1,23
 494 844 494 844 483 827 c 1,24,-1
 315 877 l 1,25,26
 385 975 385 975 479.5 1030 c 128,-1,27
 574 1085 574 1085 719 1085 c 0,28,29
 838 1085 838 1085 922 1011 c 128,-1,30
 1006 937 1006 937 1006 825 c 0,31,32
 1006 781 1006 781 992 735 c 128,-1,33
 978 689 978 689 948.5 640.5 c 128,-1,34
 919 592 919 592 865 547.5 c 128,-1,35
 811 503 811 503 739 473 c 1,36,37
 901 393 901 393 901 213 c 0,38,39
 901 129 901 129 866.5 52 c 128,-1,40
 832 -25 832 -25 777 -80 c 128,-1,41
 722 -135 722 -135 656 -176 c 128,-1,42
 590 -217 590 -217 526 -237.5 c 128,-1,43
 462 -258 462 -258 410 -258 c 0,44,45
 263 -258 263 -258 178.5 -198.5 c 128,-1,46
 94 -139 94 -139 70 -45 c 1,47,-1
 260 4 l 1,48,49
 267 -40 267 -40 274 -64 c 128,-1,50
 281 -88 281 -88 295.5 -112 c 128,-1,51
 310 -136 310 -136 335.5 -146 c 128,-1,52
 361 -156 361 -156 401 -156 c 4,0,1
EndSplineSet
Validated: 1
EndChar

StartChar: four
Encoding: 52 52 71
Width: 942
VWidth: 0
Flags: W
HStem: 0 102<248 524 805 891>
LayerCount: 2
Fore
SplineSet
68 68 m 1,0,-1
 776 1085 l 1,1,-1
 1030 1085 l 1,2,-1
 805 102 l 1,3,-1
 915 102 l 1,4,-1
 891 0 l 1,5,-1
 780 0 l 1,6,-1
 725 -238 l 1,7,-1
 469 -238 l 1,8,-1
 524 0 l 1,9,-1
 51 0 l 1,10,-1
 68 68 l 1,0,-1
549 102 m 1,11,-1
 696 748 l 1,12,-1
 248 102 l 1,13,-1
 549 102 l 1,11,-1
EndSplineSet
Validated: 1
EndChar

StartChar: five
Encoding: 53 53 72
Width: 942
VWidth: 0
Flags: W
HStem: -258 102<322 507> 983 102<741 1034>
VStem: 653 248<95 476>
LayerCount: 2
Fore
SplineSet
901 322 m 0,0,1
 901 206 901 206 859.5 97.5 c 128,-1,2
 818 -11 818 -11 751.5 -88 c 128,-1,3
 685 -165 685 -165 600 -211.5 c 128,-1,4
 515 -258 515 -258 430 -258 c 0,5,6
 283 -258 283 -258 198.5 -198.5 c 128,-1,7
 114 -139 114 -139 90 -45 c 1,8,-1
 291 4 l 1,9,10
 305 -84 305 -84 319 -109 c 0,11,12
 345 -156 345 -156 422 -156 c 0,13,14
 478 -156 478 -156 525.5 -91.5 c 128,-1,15
 573 -27 573 -27 599 62 c 128,-1,16
 625 151 625 151 639 229 c 128,-1,17
 653 307 653 307 653 350 c 0,18,19
 653 399 653 399 637.5 434.5 c 128,-1,20
 622 470 622 470 584.5 498 c 128,-1,21
 547 526 547 526 478.5 540.5 c 128,-1,22
 410 555 410 555 311 555 c 1,23,-1
 524 1085 l 1,24,-1
 1057 1085 l 1,25,-1
 1034 983 l 1,26,-1
 741 983 l 1,27,-1
 602 635 l 1,28,29
 761 601 761 601 831 522.5 c 128,-1,30
 901 444 901 444 901 322 c 0,0,1
EndSplineSet
Validated: 1
EndChar

StartChar: six
Encoding: 54 54 73
Width: 942
VWidth: 0
Flags: W
HStem: -20 102<405 588> 586 102<522 696>
VStem: 152 240<133 443> 715 254<258 570>
LayerCount: 2
Fore
SplineSet
481 82 m 128,-1,1
 528 82 528 82 568 110 c 128,-1,2
 608 138 608 138 634.5 180 c 128,-1,3
 661 222 661 222 679.5 273 c 128,-1,4
 698 324 698 324 706.5 370 c 128,-1,5
 715 416 715 416 715 451 c 0,6,7
 715 586 715 586 616 586 c 0,8,9
 553 586 553 586 473 569 c 1,10,11
 436 467 436 467 413.5 363 c 128,-1,12
 391 259 391 259 391 201 c 0,13,14
 391 140 391 140 412.5 111 c 128,-1,0
 434 82 434 82 481 82 c 128,-1,1
969 434 m 0,15,16
 969 352 969 352 932 270.5 c 128,-1,17
 895 189 895 189 832.5 124.5 c 128,-1,18
 770 60 770 60 679 20 c 128,-1,19
 588 -20 588 -20 489 -20 c 0,20,21
 348 -20 348 -20 250 66 c 128,-1,22
 152 152 152 152 152 293 c 0,23,24
 152 421 152 421 200 550.5 c 128,-1,25
 248 680 248 680 325 784.5 c 128,-1,26
 402 889 402 889 495 985.5 c 128,-1,27
 588 1082 588 1082 681 1153 c 128,-1,28
 774 1224 774 1224 851 1277 c 128,-1,29
 928 1330 928 1330 976 1357 c 2,30,-1
 1024 1384 l 1,31,-1
 1079 1323 l 1,32,33
 1065 1315 1065 1315 1040 1299.5 c 128,-1,34
 1015 1284 1015 1284 943 1227 c 128,-1,35
 871 1170 871 1170 805 1102.5 c 128,-1,36
 739 1035 739 1035 658.5 921.5 c 128,-1,37
 578 808 578 808 520 682 c 1,38,39
 564 688 564 688 610 688 c 0,40,41
 683 688 683 688 745.5 674 c 128,-1,42
 808 660 808 660 859 630.5 c 128,-1,43
 910 601 910 601 939.5 551 c 128,-1,44
 969 501 969 501 969 434 c 0,15,16
EndSplineSet
Validated: 1
EndChar

StartChar: seven
Encoding: 55 55 74
Width: 942
VWidth: 0
Flags: W
HStem: 983 102<420 793>
LayerCount: 2
Fore
SplineSet
420 1085 m 1,0,-1
 1053 1085 l 1,1,-1
 1030 983 l 1,2,-1
 420 -238 l 1,3,-1
 182 -238 l 1,4,-1
 793 983 l 1,5,-1
 367 983 l 1,6,-1
 420 1085 l 1,0,-1
EndSplineSet
Validated: 1
EndChar

StartChar: nine
Encoding: 57 57 75
Width: 942
VWidth: 0
Flags: W
HStem: 397 102<512 674> 1004 102<596 757>
VStem: 221 258<524 807> 788 248<593 945>
LayerCount: 2
Fore
SplineSet
680 1004 m 0,0,1
 637 1004 637 1004 597 961.5 c 128,-1,2
 557 919 557 919 532.5 860 c 128,-1,3
 508 801 508 801 493.5 745.5 c 128,-1,4
 479 690 479 690 479 657 c 0,5,6
 479 594 479 594 506 547 c 128,-1,7
 533 500 533 500 575 500 c 0,8,9
 646 500 646 500 721 516 c 1,10,11
 788 702 788 702 788 827 c 0,12,13
 788 911 788 911 759.5 957.5 c 128,-1,14
 731 1004 731 1004 680 1004 c 0,0,1
221 633 m 0,15,16
 221 712 221 712 258 795 c 128,-1,17
 295 878 295 878 359 947.5 c 128,-1,18
 423 1017 423 1017 522.5 1061.5 c 128,-1,19
 622 1106 622 1106 735 1106 c 0,20,21
 853 1106 853 1106 944.5 1011 c 128,-1,22
 1036 916 1036 916 1036 772 c 0,23,24
 1036 671 1036 671 1006.5 570 c 128,-1,25
 977 469 977 469 926.5 383 c 128,-1,26
 876 297 876 297 811 215 c 128,-1,27
 746 133 746 133 674 66.5 c 128,-1,28
 602 -0 602 -0 530 -59 c 128,-1,29
 458 -118 458 -118 393 -161.5 c 128,-1,30
 328 -205 328 -205 278 -236 c 0,31,32
 228 -267 228 -267 198 -283 c 2,33,-1
 168 -299 l 1,34,-1
 113 -238 l 1,35,36
 128 -231 128 -231 153.5 -216 c 128,-1,37
 179 -201 179 -201 252 -144.5 c 128,-1,38
 325 -88 325 -88 392 -21 c 128,-1,39
 459 46 459 46 539.5 160 c 128,-1,40
 620 274 620 274 676 403 c 1,41,42
 633 397 633 397 584 397 c 0,43,44
 509 397 509 397 447 408.5 c 128,-1,45
 385 420 385 420 332.5 446 c 128,-1,46
 280 472 280 472 250.5 519.5 c 128,-1,47
 221 567 221 567 221 633 c 0,15,16
EndSplineSet
Validated: 1
EndChar

StartChar: eight
Encoding: 56 56 76
Width: 942
VWidth: 0
Flags: W
HStem: -20 102<394 603> 1352 102<696 854>
VStem: 117 254<128 456> 332 272<920 1183> 729 270<278 580> 872 258<1004 1322>
LayerCount: 2
Fore
SplineSet
735 840 m 1,0,1
 787 889 787 889 820.5 977 c 128,-1,2
 854 1065 854 1065 863 1124.5 c 128,-1,3
 872 1184 872 1184 872 1223 c 0,4,5
 872 1352 872 1352 786 1352 c 0,6,7
 734 1352 734 1352 695 1310 c 128,-1,8
 656 1268 656 1268 638 1209.5 c 128,-1,9
 620 1151 620 1151 612 1107.5 c 128,-1,10
 604 1064 604 1064 604 1042 c 0,11,12
 604 978 604 978 637.5 932.5 c 128,-1,13
 671 887 671 887 735 840 c 1,0,1
117 287 m 0,14,15
 117 419 117 419 215 540.5 c 128,-1,16
 313 662 313 662 467 752 c 1,17,18
 402 801 402 801 367 857 c 128,-1,19
 332 913 332 913 332 997 c 0,20,21
 332 1082 332 1082 364.5 1158 c 128,-1,22
 397 1234 397 1234 449 1287 c 128,-1,23
 501 1340 501 1340 566.5 1378.5 c 128,-1,24
 632 1417 632 1417 699 1435.5 c 128,-1,25
 766 1454 766 1454 827 1454 c 0,26,27
 956 1454 956 1454 1043 1373.5 c 128,-1,28
 1130 1293 1130 1293 1130 1167 c 0,29,30
 1130 954 1130 954 844 762 c 1,31,32
 917 709 917 709 958 643.5 c 128,-1,33
 999 578 999 578 999 481 c 0,34,35
 999 336 999 336 922.5 220 c 128,-1,36
 846 104 846 104 722 42 c 128,-1,37
 598 -20 598 -20 453 -20 c 0,38,39
 304 -20 304 -20 210.5 68.5 c 128,-1,40
 117 157 117 157 117 287 c 0,14,15
561 686 m 1,41,42
 504 643 504 643 463 568.5 c 128,-1,43
 422 494 422 494 404 418 c 128,-1,44
 386 342 386 342 378.5 291.5 c 128,-1,45
 371 241 371 241 371 217 c 0,46,47
 371 151 371 151 398 116.5 c 128,-1,48
 425 82 425 82 489 82 c 0,49,50
 535 82 535 82 572.5 102 c 128,-1,51
 610 122 610 122 634 152.5 c 128,-1,52
 658 183 658 183 676.5 223 c 128,-1,53
 695 263 695 263 704.5 299.5 c 128,-1,54
 714 336 714 336 720 371 c 128,-1,55
 726 406 726 406 727.5 422.5 c 128,-1,56
 729 439 729 439 729 444 c 0,57,58
 729 526 729 526 685.5 580 c 128,-1,59
 642 634 642 634 561 686 c 1,41,42
EndSplineSet
Validated: 1
EndChar

StartChar: ampersand
Encoding: 38 38 77
Width: 1265
VWidth: 0
Flags: W
HStem: -20 102<476 799> 0 43G<911 1153> 1270 102<847 1035>
VStem: 154 250<174 539> 553 233<873 1181> 1176 205<700 833>
LayerCount: 2
Fore
SplineSet
553 1010 m 0,0,1
 553 1049 553 1049 561.5 1090.5 c 128,-1,2
 570 1132 570 1132 598.5 1184.5 c 128,-1,3
 627 1237 627 1237 672.5 1277 c 128,-1,4
 718 1317 718 1317 799.5 1344.5 c 128,-1,5
 881 1372 881 1372 987 1372 c 0,6,7
 1104 1372 1104 1372 1181.5 1319 c 128,-1,8
 1259 1266 1259 1266 1270 1208 c 1,9,-1
 1053 1174 l 1,10,11
 1046 1204 1046 1204 1041.5 1216.5 c 128,-1,12
 1037 1229 1037 1229 1025 1244.5 c 128,-1,13
 1013 1260 1013 1260 991 1265 c 128,-1,14
 969 1270 969 1270 932 1270 c 0,15,16
 897 1270 897 1270 869.5 1248 c 128,-1,17
 842 1226 842 1226 827 1195 c 128,-1,18
 812 1164 812 1164 802 1126.5 c 128,-1,19
 792 1089 792 1089 789 1063 c 128,-1,20
 786 1037 786 1037 786 1020 c 0,21,22
 786 900 786 900 858 725 c 2,23,-1
 1010 352 l 1,24,25
 1092 513 1092 513 1176 877 c 1,26,-1
 1380 829 l 1,27,28
 1341 663 1341 663 1260 499.5 c 128,-1,29
 1179 336 1179 336 1065 213 c 1,30,-1
 1153 0 l 1,31,-1
 928 0 l 1,32,-1
 897 74 l 1,33,34
 747 -20 747 -20 571 -20 c 0,35,36
 392 -20 392 -20 273 80 c 128,-1,37
 154 180 154 180 154 346 c 0,38,39
 154 511 154 511 268.5 662.5 c 128,-1,40
 383 814 383 814 573 885 c 1,41,42
 553 950 553 950 553 1010 c 0,0,1
610 774 m 1,43,44
 513 706 513 706 458 567 c 128,-1,45
 403 428 403 428 403 311 c 0,46,47
 403 202 403 202 459 142 c 128,-1,48
 515 82 515 82 625 82 c 0,49,50
 766 82 766 82 862 160 c 1,51,-1
 610 774 l 1,43,44
EndSplineSet
Validated: 1
EndChar

StartChar: parenleft
Encoding: 40 40 78
Width: 641
VWidth: 0
Flags: W
HStem: 0 43G<362 539> 1393 41G<707 870>
VStem: 233 246<164 720>
LayerCount: 2
Fore
SplineSet
707 1434 m 9,0,-1
 870 1434 l 1,1,2
 862 1425 862 1425 848 1408 c 128,-1,3
 834 1391 834 1391 793 1333 c 128,-1,4
 752 1275 752 1275 715.5 1212 c 128,-1,5
 679 1149 679 1149 633.5 1050 c 128,-1,6
 588 951 588 951 555.5 849 c 128,-1,7
 523 747 523 747 501 614 c 128,-1,8
 479 481 479 481 479 348 c 0,9,10
 479 246 479 246 494 159 c 128,-1,11
 509 72 509 72 524 36 c 2,12,-1
 539 0 l 1,13,-1
 375 0 l 1,14,15
 369 5 369 5 359.5 15.5 c 128,-1,16
 350 26 350 26 325.5 65 c 128,-1,17
 301 104 301 104 282.5 150 c 128,-1,18
 264 196 264 196 248.5 273 c 128,-1,19
 233 350 233 350 233 436 c 0,20,21
 233 565 233 565 257.5 687.5 c 128,-1,22
 282 810 282 810 318 902.5 c 128,-1,23
 354 995 354 995 405 1081 c 128,-1,24
 456 1167 456 1167 499 1223 c 128,-1,25
 542 1279 542 1279 591 1329 c 128,-1,26
 640 1379 640 1379 662.5 1398 c 128,-1,27
 685 1417 685 1417 703 1431 c 2,28,-1
 707 1434 l 9,0,-1
EndSplineSet
Validated: 1
EndChar

StartChar: parenright
Encoding: 41 41 79
Width: 641
VWidth: 0
Flags: W
HStem: 0 43G<102 266> 1393 41G<434 611>
VStem: 494 246<714 1269>
LayerCount: 2
Fore
SplineSet
266 0 m 9,0,-1
 102 0 l 1,1,2
 110 9 110 9 124 26 c 128,-1,3
 138 43 138 43 179 100.5 c 128,-1,4
 220 158 220 158 257 221.5 c 128,-1,5
 294 285 294 285 339 384 c 128,-1,6
 384 483 384 483 416.5 584.5 c 128,-1,7
 449 686 449 686 471.5 819 c 128,-1,8
 494 952 494 952 494 1085 c 0,9,10
 494 1187 494 1187 479 1274 c 0,11,12
 464 1362 464 1362 449 1398 c 2,13,-1
 434 1434 l 1,14,-1
 598 1434 l 1,15,16
 604 1429 604 1429 613.5 1418.5 c 128,-1,17
 623 1408 623 1408 647 1369 c 128,-1,18
 671 1330 671 1330 690 1284 c 128,-1,19
 709 1238 709 1238 724 1160.5 c 128,-1,20
 739 1083 739 1083 739 997 c 0,21,22
 739 868 739 868 714.5 745.5 c 128,-1,23
 690 623 690 623 654 531 c 128,-1,24
 618 439 618 439 567.5 352.5 c 128,-1,25
 517 266 517 266 473.5 210.5 c 128,-1,26
 430 155 430 155 381.5 105 c 128,-1,27
 333 55 333 55 310.5 36 c 128,-1,28
 288 17 288 17 270 3 c 2,29,-1
 266 0 l 9,0,-1
EndSplineSet
Validated: 1
EndChar

StartChar: asterisk
Encoding: 42 42 80
Width: 921
VWidth: 0
Flags: W
HStem: 1333 41G<684 866>
LayerCount: 2
Fore
SplineSet
647 1092 m 1,0,-1
 690 1374 l 1,1,-1
 866 1374 l 1,2,-1
 778 1092 l 1,3,-1
 1067 1200 l 1,4,-1
 1081 1032 l 1,5,-1
 791 967 l 1,6,-1
 924 750 l 1,7,-1
 760 645 l 1,8,-1
 666 887 l 1,9,-1
 461 645 l 1,10,-1
 342 750 l 1,11,-1
 578 967 l 1,12,-1
 315 1032 l 1,13,-1
 408 1200 l 1,14,-1
 647 1092 l 1,0,-1
EndSplineSet
Validated: 1
EndChar

StartChar: plus
Encoding: 43 43 81
Width: 856
VWidth: 0
Flags: W
HStem: 348 102<186 412 629 854>
LayerCount: 2
Fore
SplineSet
604 348 m 1,0,-1
 537 53 l 1,1,-1
 344 53 l 1,2,-1
 412 348 l 1,3,-1
 162 348 l 1,4,-1
 186 451 l 1,5,-1
 436 451 l 1,6,-1
 504 745 l 1,7,-1
 696 745 l 1,8,-1
 629 451 l 1,9,-1
 879 451 l 1,10,-1
 854 348 l 1,11,-1
 604 348 l 1,0,-1
EndSplineSet
Validated: 1
EndChar

StartChar: hyphen
Encoding: 45 45 82
Width: 649
VWidth: 0
Flags: W
HStem: 348 102<186 647>
VStem: 162 510
LayerCount: 2
Fore
SplineSet
186 451 m 1,0,-1
 672 451 l 1,1,-1
 647 348 l 1,2,-1
 162 348 l 1,3,-1
 186 451 l 1,0,-1
EndSplineSet
Validated: 1
EndChar

StartChar: less
Encoding: 60 60 83
Width: 917
VWidth: 0
Flags: W
HStem: 860 41G<864 951>
LayerCount: 2
Fore
SplineSet
223 473 m 1,0,-1
 932 901 l 1,1,-1
 985 786 l 1,2,-1
 463 473 l 1,3,-1
 840 162 l 1,4,-1
 733 47 l 1,5,-1
 223 473 l 1,0,-1
EndSplineSet
Validated: 1
EndChar

StartChar: greater
Encoding: 62 62 84
Width: 917
VWidth: 0
Flags: W
HStem: 860 41G<365 452>
LayerCount: 2
Fore
SplineSet
913 475 m 1,0,-1
 205 47 l 1,1,-1
 152 162 l 1,2,-1
 674 475 l 1,3,-1
 297 786 l 1,4,-1
 403 901 l 1,5,-1
 913 475 l 1,0,-1
EndSplineSet
Validated: 1
EndChar

StartChar: equal
Encoding: 61 61 85
Width: 708
VWidth: 0
Flags: W
HStem: 348 102<186 707> 573 102<238 760>
VStem: 162 621
LayerCount: 2
Fore
SplineSet
238 676 m 1,0,-1
 782 676 l 1,1,-1
 760 573 l 1,2,-1
 215 573 l 1,3,-1
 238 676 l 1,0,-1
186 451 m 1,4,-1
 731 451 l 1,5,-1
 707 348 l 1,6,-1
 162 348 l 1,7,-1
 186 451 l 1,4,-1
EndSplineSet
Validated: 1
EndChar

StartChar: at
Encoding: 64 64 86
Width: 1488
VWidth: 0
Flags: W
HStem: -20 102<652 1085> 262 102<1022 1185> 279 66<762 915> 860 66<869 989> 1126 102<836 1169>
VStem: 186 256<287 702> 596 141<358 698> 913 141<366 634> 991 141<599 860> 1292 256<632 998>
LayerCount: 2
Fore
SplineSet
1133 791 m 0,0,1
 1133 761 1133 761 1094 612 c 128,-1,2
 1055 463 1055 463 1055 416 c 0,3,4
 1055 387 1055 387 1064 376 c 128,-1,5
 1073 365 1073 365 1092 365 c 0,6,7
 1146 365 1146 365 1186.5 408 c 128,-1,8
 1227 451 1227 451 1249 522 c 128,-1,9
 1271 593 1271 593 1281.5 671 c 128,-1,10
 1292 749 1292 749 1292 831 c 0,11,12
 1292 966 1292 966 1213.5 1046 c 128,-1,13
 1135 1126 1135 1126 1034 1126 c 0,14,15
 931 1126 931 1126 837 1087.5 c 128,-1,16
 743 1049 743 1049 672.5 983.5 c 128,-1,17
 602 918 602 918 549 834.5 c 128,-1,18
 496 751 496 751 469 657.5 c 128,-1,19
 442 564 442 564 442 473 c 0,20,21
 442 393 442 393 466.5 326.5 c 128,-1,22
 491 260 491 260 530.5 215.5 c 128,-1,23
 570 171 570 171 621.5 140.5 c 128,-1,24
 673 110 673 110 726 96 c 128,-1,25
 779 82 779 82 831 82 c 0,26,27
 959 82 959 82 1100 131.5 c 128,-1,28
 1241 181 1241 181 1313 264 c 1,29,-1
 1421 209 l 1,30,31
 1309 98 1309 98 1162 39 c 128,-1,32
 1015 -20 1015 -20 778 -20 c 0,33,34
 687 -20 687 -20 601.5 -1.5 c 128,-1,35
 516 17 516 17 440.5 56.5 c 128,-1,36
 365 96 365 96 308.5 152.5 c 128,-1,37
 252 209 252 209 219 290 c 128,-1,38
 186 371 186 371 186 467 c 0,39,40
 186 595 186 595 234.5 714.5 c 128,-1,41
 283 834 283 834 366.5 926 c 128,-1,42
 450 1018 450 1018 557 1087 c 128,-1,43
 664 1156 664 1156 786 1192.5 c 128,-1,44
 908 1229 908 1229 1028 1229 c 0,45,46
 1267 1229 1267 1229 1407.5 1125.5 c 128,-1,47
 1548 1022 1548 1022 1548 840 c 0,48,49
 1548 765 1548 765 1524 684 c 128,-1,50
 1500 603 1500 603 1453.5 528.5 c 128,-1,51
 1407 454 1407 454 1346 394 c 128,-1,52
 1285 334 1285 334 1204.5 298 c 128,-1,53
 1124 262 1124 262 1038 262 c 0,54,55
 972 262 972 262 938 309 c 1,56,57
 880 279 880 279 793 279 c 0,58,59
 696 279 696 279 646 340.5 c 128,-1,60
 596 402 596 402 596 506 c 0,61,62
 596 598 596 598 630.5 679.5 c 128,-1,63
 665 761 665 761 718 813.5 c 128,-1,64
 771 866 771 866 832.5 896 c 128,-1,65
 894 926 894 926 950 926 c 0,66,67
 1028 926 1028 926 1080.5 893 c 128,-1,68
 1133 860 1133 860 1133 791 c 0,0,1
956 860 m 0,69,70
 902 860 902 860 857.5 819.5 c 128,-1,71
 813 779 813 779 788 718 c 128,-1,72
 763 657 763 657 750 595 c 128,-1,73
 737 533 737 533 737 481 c 0,74,75
 737 344 737 344 827 344 c 0,76,77
 882 344 882 344 915 367 c 1,78,79
 913 381 913 381 913 412 c 0,80,81
 913 473 913 473 952 621 c 128,-1,82
 991 769 991 769 991 807 c 0,83,84
 991 860 991 860 956 860 c 0,69,70
EndSplineSet
Validated: 1
EndChar

StartChar: bracketleft
Encoding: 91 91 87
Width: 524
VWidth: 0
Flags: W
HStem: 0 82<315 432> 1270 82<590 725>
VStem: 92 651
LayerCount: 2
Fore
SplineSet
432 0 m 1,0,-1
 92 0 l 1,1,-1
 403 1352 l 1,2,-1
 743 1352 l 1,3,-1
 725 1270 l 1,4,-1
 590 1270 l 1,5,-1
 315 82 l 1,6,-1
 451 82 l 1,7,-1
 432 0 l 1,0,-1
EndSplineSet
Validated: 1
EndChar

StartChar: bracketright
Encoding: 93 93 88
Width: 524
VWidth: 0
Flags: W
HStem: 0 82<111 246> 1270 82<403 520>
VStem: 92 651
LayerCount: 2
Fore
SplineSet
403 1352 m 1,0,-1
 743 1352 l 1,1,-1
 432 0 l 1,2,-1
 92 0 l 1,3,-1
 111 82 l 1,4,-1
 246 82 l 1,5,-1
 520 1270 l 1,6,-1
 385 1270 l 1,7,-1
 403 1352 l 1,0,-1
EndSplineSet
Validated: 1
EndChar

StartChar: underscore
Encoding: 95 95 89
Width: 692
VWidth: 0
Flags: W
HStem: -184 102<-18 649>
LayerCount: 2
Fore
SplineSet
-18 -82 m 1,0,-1
 674 -82 l 1,1,-1
 649 -184 l 1,2,-1
 -43 -184 l 1,3,-1
 -18 -82 l 1,0,-1
EndSplineSet
Validated: 1
EndChar

StartChar: braceleft
Encoding: 123 123 90
Width: 571
VWidth: 0
Flags: W
HStem: 0 43G<308 489> 1393 41G<521 821>
VStem: 250 188<47 361> 297 221<329 691>
LayerCount: 2
Fore
SplineSet
518 559 m 0,0,1
 518 494 518 494 478 344.5 c 128,-1,2
 438 195 438 195 438 131 c 0,3,4
 438 45 438 45 489 0 c 1,5,-1
 346 0 l 1,6,7
 250 62 250 62 250 207 c 0,8,9
 250 270 250 270 273.5 399 c 128,-1,10
 297 528 297 528 297 582 c 0,11,12
 297 673 297 673 248 717 c 1,13,14
 293 745 293 745 325.5 792.5 c 128,-1,15
 358 840 358 840 377 894 c 128,-1,16
 396 948 396 948 412.5 1008.5 c 128,-1,17
 429 1069 429 1069 448.5 1130 c 128,-1,18
 468 1191 468 1191 494.5 1247 c 128,-1,19
 521 1303 521 1303 567.5 1352.5 c 128,-1,20
 614 1402 614 1402 678 1434 c 1,21,-1
 821 1434 l 1,22,23
 772 1403 772 1403 739 1354 c 128,-1,24
 706 1305 706 1305 689.5 1250 c 128,-1,25
 673 1195 673 1195 661 1134 c 128,-1,26
 649 1073 649 1073 635.5 1012 c 128,-1,27
 622 951 622 951 601.5 896.5 c 128,-1,28
 581 842 581 842 541 794.5 c 128,-1,29
 501 747 501 747 442 717 c 1,30,31
 518 668 518 668 518 559 c 0,0,1
EndSplineSet
Validated: 1
EndChar

StartChar: braceright
Encoding: 125 125 91
Width: 571
VWidth: 0
Flags: W
HStem: 0 43G<82 382> 1393 41G<414 594>
VStem: 383 223<746 1105> 463 190<1073 1385>
LayerCount: 2
Fore
SplineSet
383 874 m 0,0,1
 383 939 383 939 423 1088.5 c 128,-1,2
 463 1238 463 1238 463 1303 c 0,3,4
 463 1390 463 1390 414 1434 c 1,5,-1
 557 1434 l 1,6,7
 653 1370 653 1370 653 1227 c 0,8,9
 653 1164 653 1164 629.5 1035 c 128,-1,10
 606 906 606 906 606 852 c 0,11,12
 606 761 606 761 655 717 c 1,13,14
 610 689 610 689 577.5 641.5 c 128,-1,15
 545 594 545 594 526 540 c 128,-1,16
 507 486 507 486 490.5 425.5 c 128,-1,17
 474 365 474 365 454.5 304 c 128,-1,18
 435 243 435 243 408.5 187 c 128,-1,19
 382 131 382 131 335.5 81.5 c 128,-1,20
 289 32 289 32 225 0 c 1,21,-1
 82 0 l 1,22,23
 131 31 131 31 164 80 c 128,-1,24
 197 129 197 129 213.5 184 c 128,-1,25
 230 239 230 239 242 300 c 128,-1,26
 254 361 254 361 267.5 422 c 128,-1,27
 281 483 281 483 301.5 537.5 c 128,-1,28
 322 592 322 592 362 639.5 c 128,-1,29
 402 687 402 687 461 717 c 1,30,31
 383 768 383 768 383 874 c 0,0,1
EndSplineSet
Validated: 1
EndChar

StartChar: gravecomb
Encoding: 768 768 92
Width: 0
VWidth: 0
Flags: W
HStem: 1249 403
VStem: -373 319
AnchorPoint: "top" -180 1188 mark 0
LayerCount: 2
Fore
SplineSet
-195 1653 m 25,0,-1
 -53 1303 l 1,1,-1
 -129 1249 l 1,2,-1
 -373 1530 l 1,3,-1
 -195 1653 l 25,0,-1
EndSplineSet
Validated: 1
EndChar

StartChar: acutecomb
Encoding: 769 769 93
Width: 0
VWidth: 0
Flags: W
HStem: 1249 403
VStem: -387 422
AnchorPoint: "top" -313 1188 mark 0
LayerCount: 2
Fore
SplineSet
-86 1653 m 25,0,-1
 35 1530 l 1,1,-1
 -336 1249 l 1,2,-1
 -387 1303 l 1,3,-1
 -86 1653 l 25,0,-1
EndSplineSet
Validated: 1
EndChar

StartChar: uni0302
Encoding: 770 770 94
Width: 0
VWidth: 0
Flags: W
HStem: 1257 299
VStem: -551 551
AnchorPoint: "top" -313 1188 mark 0
LayerCount: 2
Fore
SplineSet
0 1348 m 1,0,-1
 -113 1257 l 1,1,-1
 -254 1434 l 1,2,-1
 -479 1257 l 1,3,-1
 -551 1348 l 1,4,-1
 -227 1556 l 1,5,-1
 0 1348 l 1,0,-1
EndSplineSet
Validated: 1
EndChar

StartChar: tildecomb
Encoding: 771 771 95
Width: 0
VWidth: 0
Flags: W
HStem: 1270 141<-250 -73> 1335 141<-449 -271>
VStem: -567 612
AnchorPoint: "top" -313 1188 mark 0
LayerCount: 2
Fore
SplineSet
-39 1477 m 1,0,-1
 45 1477 l 1,1,2
 16 1393 16 1393 -51.5 1331.5 c 128,-1,3
 -119 1270 -119 1270 -203 1270 c 0,4,5
 -241 1270 -241 1270 -291 1302.5 c 128,-1,6
 -341 1335 -341 1335 -360 1335 c 0,7,8
 -460 1335 -460 1335 -483 1270 c 1,9,-1
 -567 1270 l 1,10,11
 -536 1354 -536 1354 -469.5 1415.5 c 128,-1,12
 -403 1477 -403 1477 -319 1477 c 0,13,14
 -281 1477 -281 1477 -230 1444 c 128,-1,15
 -179 1411 -179 1411 -160 1411 c 0,16,17
 -62 1411 -62 1411 -39 1477 c 1,0,-1
EndSplineSet
Validated: 1
EndChar

StartChar: uni0304
Encoding: 772 772 96
Width: 0
VWidth: 0
Flags: W
HStem: 1270 115<-514 -70>
VStem: -541 498
AnchorPoint: "top" -313 1188 mark 0
LayerCount: 2
Fore
SplineSet
-514 1384 m 1,0,-1
 -43 1384 l 1,1,-1
 -70 1270 l 1,2,-1
 -541 1270 l 1,3,-1
 -514 1384 l 1,0,-1
EndSplineSet
Validated: 1
EndChar

StartChar: uni0306
Encoding: 774 774 97
Width: 0
VWidth: 0
Flags: W
HStem: 1270 137<-373 -145>
VStem: -483 88<1435 1460>
AnchorPoint: "top" -313 1188 mark 0
LayerCount: 2
Fore
SplineSet
-262 1407 m 0,0,1
 -206 1407 -206 1407 -153 1436.5 c 128,-1,2
 -100 1466 -100 1466 -88 1501 c 1,3,-1
 -18 1460 l 1,4,5
 -46 1382 -46 1382 -126.5 1326 c 128,-1,6
 -207 1270 -207 1270 -295 1270 c 0,7,8
 -377 1270 -377 1270 -430 1319 c 128,-1,9
 -483 1368 -483 1368 -483 1440 c 0,10,11
 -483 1443 -483 1443 -482 1450 c 128,-1,12
 -481 1457 -481 1457 -481 1460 c 1,13,-1
 -395 1501 l 1,14,-1
 -395 1497 l 2,15,16
 -395 1464 -395 1464 -355.5 1435.5 c 128,-1,17
 -316 1407 -316 1407 -262 1407 c 0,0,1
EndSplineSet
Validated: 1
EndChar

StartChar: uni0307
Encoding: 775 775 98
Width: 0
VWidth: 0
Flags: W
HStem: 1270 170<-344 -213>
VStem: -383 209
AnchorPoint: "top" -313 1188 mark 0
LayerCount: 2
Fore
SplineSet
-344 1440 m 1,0,-1
 -174 1440 l 1,1,-1
 -213 1270 l 1,2,-1
 -383 1270 l 1,3,-1
 -344 1440 l 1,0,-1
EndSplineSet
Validated: 1
EndChar

StartChar: uni030A
Encoding: 778 778 100
Width: 0
VWidth: 0
Flags: W
HStem: 1167 72<-361 -225> 1407 72<-340 -204>
VStem: -442 74<1245 1380> -197 74<1266 1401>
AnchorPoint: "top" -313 1188 mark 0
LayerCount: 2
Fore
SplineSet
-262 1407 m 0,0,1
 -301 1407 -301 1407 -335 1377 c 128,-1,2
 -369 1347 -369 1347 -369 1305 c 0,3,4
 -369 1277 -369 1277 -350 1258 c 128,-1,5
 -331 1239 -331 1239 -301 1239 c 0,6,7
 -263 1239 -263 1239 -230 1269 c 128,-1,8
 -197 1299 -197 1299 -197 1341 c 0,9,10
 -197 1369 -197 1369 -215 1388 c 128,-1,11
 -233 1407 -233 1407 -262 1407 c 0,0,1
-442 1288 m 0,12,13
 -442 1365 -442 1365 -380 1422 c 128,-1,14
 -318 1479 -318 1479 -246 1479 c 0,15,16
 -191 1479 -191 1479 -157 1445 c 128,-1,17
 -123 1411 -123 1411 -123 1358 c 0,18,19
 -123 1281 -123 1281 -184.5 1224 c 128,-1,20
 -246 1167 -246 1167 -317 1167 c 0,21,22
 -372 1167 -372 1167 -407 1201 c 128,-1,23
 -442 1235 -442 1235 -442 1288 c 0,12,13
EndSplineSet
Validated: 1
EndChar

StartChar: uni030C
Encoding: 780 780 102
Width: 0
VWidth: 0
Flags: W
HStem: 1139 387
VStem: -487 479
AnchorPoint: "top" -313 1188 mark 0
LayerCount: 2
Fore
SplineSet
-326 1139 m 1,0,-1
 -487 1473 l 1,1,-1
 -412 1526 l 1,2,-1
 -276 1346 l 1,3,-1
 -59 1526 l 1,4,-1
 -8 1473 l 1,5,-1
 -326 1139 l 1,0,-1
EndSplineSet
Validated: 1
EndChar

StartChar: uni0311
Encoding: 785 785 104
Width: 0
VWidth: 0
Flags: W
HStem: 1343 137<-396 -168>
VStem: -145 88<1291 1317>
AnchorPoint: "top" -313 1188 mark 0
LayerCount: 2
Fore
SplineSet
-279 1343 m 0,0,1
 -335 1343 -335 1343 -388 1313.5 c 128,-1,2
 -441 1284 -441 1284 -453 1249 c 1,3,-1
 -522 1290 l 1,4,5
 -494 1368 -494 1368 -414 1424.5 c 128,-1,6
 -334 1481 -334 1481 -246 1481 c 0,7,8
 -164 1481 -164 1481 -110.5 1431 c 128,-1,9
 -57 1381 -57 1381 -57 1309 c 0,10,11
 -57 1296 -57 1296 -59 1290 c 1,12,-1
 -145 1249 l 1,13,-1
 -145 1253 l 2,14,15
 -145 1286 -145 1286 -185 1314.5 c 128,-1,16
 -225 1343 -225 1343 -279 1343 c 0,0,1
EndSplineSet
Validated: 1
EndChar

StartChar: uni0312
Encoding: 786 786 105
Width: 0
VWidth: 0
Flags: W
HStem: 1270 367<-240 -209>
VStem: -391 180<1270 1342>
AnchorPoint: "top" -313 1188 mark 0
LayerCount: 2
Fore
SplineSet
-121 1636 m 1,0,1
 -209 1539 -209 1539 -209 1446 c 0,2,3
 -209 1432 -209 1432 -206 1398 c 128,-1,4
 -203 1364 -203 1364 -203 1343 c 0,5,6
 -203 1306 -203 1306 -211 1270 c 1,7,-1
 -391 1270 l 1,8,9
 -376 1334 -376 1334 -359.5 1386.5 c 128,-1,10
 -343 1439 -343 1439 -332 1470 c 128,-1,11
 -321 1501 -321 1501 -302.5 1533.5 c 128,-1,12
 -284 1566 -284 1566 -277.5 1575 c 128,-1,13
 -271 1584 -271 1584 -250.5 1609 c 128,-1,14
 -230 1634 -230 1634 -229 1636 c 1,15,-1
 -121 1636 l 1,0,1
EndSplineSet
Validated: 1
EndChar

StartChar: uni0313
Encoding: 787 787 106
Width: 0
VWidth: 0
Flags: W
HStem: 1270 367<-268 -237>
VStem: -266 180<1564 1636>
AnchorPoint: "top" -313 1188 mark 0
LayerCount: 2
Fore
SplineSet
-356 1270 m 1,0,1
 -268 1364 -268 1364 -268 1460 c 0,2,3
 -268 1475 -268 1475 -271 1509 c 128,-1,4
 -274 1543 -274 1543 -274 1563 c 0,5,6
 -274 1600 -274 1600 -266 1636 c 1,7,-1
 -86 1636 l 1,8,9
 -101 1572 -101 1572 -117.5 1519.5 c 128,-1,10
 -134 1467 -134 1467 -145 1436 c 128,-1,11
 -156 1405 -156 1405 -174.5 1372.5 c 128,-1,12
 -193 1340 -193 1340 -199.5 1331 c 128,-1,13
 -206 1322 -206 1322 -226.5 1297 c 128,-1,14
 -247 1272 -247 1272 -248 1270 c 1,15,-1
 -356 1270 l 1,0,1
EndSplineSet
Validated: 1
EndChar

StartChar: uni0314
Encoding: 788 788 107
Width: 0
VWidth: 0
Flags: W
HStem: 1270 367<-351 -262>
VStem: -375 113<1271 1503>
AnchorPoint: "top" -313 1188 mark 0
LayerCount: 2
Fore
SplineSet
-162 1636 m 1,0,1
 -171 1596 -171 1596 -189 1557.5 c 128,-1,2
 -207 1519 -207 1519 -222.5 1495 c 128,-1,3
 -238 1471 -238 1471 -250 1435.5 c 128,-1,4
 -262 1400 -262 1400 -262 1362 c 0,5,6
 -262 1322 -262 1322 -240 1270 c 1,7,-1
 -348 1270 l 1,8,9
 -350 1276 -350 1276 -356 1293.5 c 128,-1,10
 -362 1311 -362 1311 -365.5 1322.5 c 128,-1,11
 -369 1334 -369 1334 -372 1356 c 128,-1,12
 -375 1378 -375 1378 -375 1403 c 0,13,14
 -375 1489 -375 1489 -342 1636 c 1,15,-1
 -162 1636 l 1,0,1
EndSplineSet
Validated: 1
EndChar

StartChar: uni0326
Encoding: 806 806 108
Width: 0
VWidth: 0
Flags: W
HStem: -401 49<-827 -675> -164 57<-696 -632>
VStem: -612 160<-313 -176>
AnchorPoint: "cedilla" -590 0 mark 0
LayerCount: 2
Fore
SplineSet
-827 -352 m 17,0,1
 -612 -352 -612 -352 -612 -233 c 0,2,3
 -612 -203 -612 -203 -634.5 -187.5 c 128,-1,4
 -657 -172 -657 -172 -709 -164 c 1,5,-1
 -696 -106 l 1,6,7
 -588 -106 -588 -106 -520.5 -141.5 c 128,-1,8
 -453 -177 -453 -177 -453 -231 c 0,9,10
 -453 -259 -453 -259 -473.5 -287 c 128,-1,11
 -494 -315 -494 -315 -536 -341.5 c 128,-1,12
 -578 -368 -578 -368 -656.5 -384.5 c 128,-1,13
 -735 -401 -735 -401 -838 -401 c 1,14,-1
 -827 -352 l 17,0,1
EndSplineSet
Validated: 1
EndChar

StartChar: uni0327
Encoding: 807 807 109
Width: 0
VWidth: 0
Flags: W
HStem: -401 49<-827 -680> -41 41G<-676 -520>
VStem: -612 162<-312 -178>
AnchorPoint: "cedilla" -590 0 mark 0
LayerCount: 2
Fore
SplineSet
-827 -352 m 1,0,1
 -612 -352 -612 -352 -612 -236 c 0,2,3
 -612 -173 -612 -173 -725 -164 c 1,4,-1
 -659 0 l 1,5,-1
 -520 0 l 1,6,-1
 -561 -113 l 1,7,8
 -511 -124 -511 -124 -481 -151.5 c 128,-1,9
 -451 -179 -451 -179 -451 -221 c 0,10,11
 -451 -281 -451 -281 -509.5 -323.5 c 128,-1,12
 -568 -366 -568 -366 -652.5 -383.5 c 128,-1,13
 -737 -401 -737 -401 -838 -401 c 1,14,-1
 -827 -352 l 1,0,1
EndSplineSet
Validated: 1
EndChar

StartChar: uni0328
Encoding: 808 808 110
Width: 0
VWidth: 0
Flags: W
HStem: -319 37<-583 -504>
VStem: -774 152<-267 -104>
AnchorPoint: "ogonek" -483 0 mark 0
LayerCount: 2
Fore
SplineSet
-477 25 m 9,0,-1
 -483 0 l 1,1,2
 -525 -18 -525 -18 -574 -72 c 128,-1,3
 -623 -126 -623 -126 -623 -193 c 0,4,5
 -623 -283 -623 -283 -496 -283 c 1,6,-1
 -504 -319 l 1,7,8
 -647 -319 -647 -319 -710.5 -285 c 128,-1,9
 -774 -251 -774 -251 -774 -203 c 0,10,11
 -774 -186 -774 -186 -769 -168.5 c 128,-1,12
 -764 -151 -764 -151 -745.5 -124 c 128,-1,13
 -727 -97 -727 -97 -697 -73 c 128,-1,14
 -667 -49 -667 -49 -610 -22 c 128,-1,15
 -553 5 -553 5 -477 25 c 9,0,-1
EndSplineSet
Validated: 1
EndChar

StartChar: uni0237
Encoding: 567 567 111
Width: 438
VWidth: 0
Flags: W
HStem: -348 102<-200 13> 860 41G<281 547>
AnchorPoint: "top" 440 1004 basechar 0
LayerCount: 2
Fore
SplineSet
-152 -195 m 1,0,1
 -130 -246 -130 -246 -55 -246 c 0,2,3
 -7 -246 -7 -246 22 -190.5 c 128,-1,4
 51 -135 51 -135 82 0 c 2,5,-1
 291 901 l 1,6,-1
 547 901 l 1,7,-1
 322 -68 l 2,8,9
 306 -140 306 -140 256.5 -196.5 c 128,-1,10
 207 -253 207 -253 142.5 -284.5 c 128,-1,11
 78 -316 78 -316 13.5 -332 c 128,-1,12
 -51 -348 -51 -348 -109 -348 c 0,13,14
 -238 -348 -238 -348 -295 -256 c 1,15,-1
 -152 -195 l 1,0,1
EndSplineSet
Validated: 1
EndChar

StartChar: dotlessi
Encoding: 305 305 112
Width: 573
VWidth: 0
Flags: W
HStem: -20 102<305 513> 860 41G<291 555>
VStem: 133 254<83 364> 520 70<96 131>
AnchorPoint: "top" 457 1004 basechar 0
LayerCount: 2
Fore
SplineSet
410 276 m 6,0,1
 387 178 387 178 387 143 c 0,2,3
 387 82 387 82 442 82 c 0,4,5
 466 82 466 82 488.5 98 c 128,-1,6
 511 114 511 114 520 131 c 1,7,-1
 590 131 l 1,8,9
 576 73 576 73 516 26.5 c 128,-1,10
 456 -20 456 -20 391 -20 c 0,11,12
 268 -20 268 -20 200.5 31.5 c 128,-1,13
 133 83 133 83 133 164 c 0,14,15
 133 189 133 189 139 213 c 2,16,-1
 301 901 l 1,17,-1
 555 901 l 1,18,-1
 410 276 l 6,0,1
EndSplineSet
Validated: 1
EndChar

StartChar: Aring
Encoding: 197 197 143
Width: 1275
VWidth: 0
UnlinkRmOvrlpSave: 1
Flags: W
HStem: 0 21G<31 277.902 1017.32 1255> 410 102<571 952> 1653 72<946.91 1083.84>
VStem: 846 73<1491.72 1624.17> 1091 75<1511.87 1647.23>
LayerCount: 2
Fore
SplineSet
897 1434 m 1,0,1
 846 1472 846 1472 846 1541.5 c 128,-1,2
 846 1611 846 1611 908 1668 c 128,-1,3
 970 1725 970 1725 1033.5 1725 c 128,-1,4
 1097 1725 1097 1725 1131.5 1691 c 128,-1,5
 1166 1657 1166 1657 1166 1592 c 2,6,-1
 1166 1591 l 2,7,8
 1166 1527 1166 1527 1104 1470 c 0,9,10
 1080 1448 1080 1448 1054 1434 c 1,11,-1
 1065 1434 l 1,12,-1
 1255 0 l 1,13,-1
 1020 0 l 1,14,-1
 965 410 l 1,15,-1
 510 410 l 1,16,-1
 266 0 l 1,17,-1
 31 0 l 1,18,-1
 885 1434 l 1,19,-1
 897 1434 l 1,0,1
1091 1580 m 0,20,21
 1091 1653 1091 1653 1021 1653 c 0,22,23
 987 1653 987 1653 953 1623 c 128,-1,24
 919 1593 919 1593 919 1558 c 0,25,26
 919 1485 919 1485 991 1485 c 0,27,28
 1025 1485 1025 1485 1058 1515 c 128,-1,29
 1091 1545 1091 1545 1091 1580 c 0,20,21
883 1034 m 1,30,-1
 571 512 l 1,31,-1
 952 512 l 1,32,-1
 883 1034 l 1,30,-1
EndSplineSet
EndChar

StartChar: Thorn
Encoding: 222 222 163
Width: 970
VWidth: 0
Flags: W
HStem: 0 43G<92 368> 328 102<457 683> 1004 102<614 805> 1393 41G<414 690>
VStem: 866 266<623 944>
LayerCount: 2
Fore
SplineSet
1133 801 m 0,0,1
 1133 739 1133 739 1110.5 674 c 128,-1,2
 1088 609 1088 609 1042 547 c 128,-1,3
 996 485 996 485 932.5 436 c 128,-1,4
 869 387 869 387 779.5 357.5 c 128,-1,5
 690 328 690 328 588 328 c 2,6,-1
 434 328 l 1,7,-1
 358 0 l 1,8,-1
 92 0 l 1,9,-1
 424 1434 l 1,10,-1
 690 1434 l 1,11,-1
 614 1106 l 1,12,-1
 768 1106 l 2,13,14
 866 1106 866 1106 939.5 1079.5 c 128,-1,15
 1013 1053 1013 1053 1054 1008 c 128,-1,16
 1095 963 1095 963 1114 911 c 128,-1,17
 1133 859 1133 859 1133 801 c 0,0,1
549 430 m 2,18,19
 617 430 617 430 678 464.5 c 128,-1,20
 739 499 739 499 779 553 c 128,-1,21
 819 607 819 607 842.5 672.5 c 128,-1,22
 866 738 866 738 866 801 c 0,23,24
 866 887 866 887 821.5 945.5 c 128,-1,25
 777 1004 777 1004 682 1004 c 2,26,-1
 590 1004 l 1,27,-1
 457 430 l 1,28,-1
 549 430 l 2,18,19
EndSplineSet
Validated: 1
EndChar

StartChar: thorn
Encoding: 254 254 164
Width: 1138
VWidth: 0
Flags: W
HStem: 0 102<428 605> 823 102<672 919>
VStem: 944 252<461 802>
LayerCount: 2
Fore
SplineSet
403 0 m 1,0,-1
 309 -410 l 1,1,-1
 53 -410 l 1,2,-1
 459 1352 l 1,3,-1
 715 1352 l 1,4,-1
 604 866 l 1,5,6
 713 926 713 926 821 926 c 0,7,8
 1196 926 1196 926 1196 674 c 0,9,10
 1196 490 1196 490 1092 337.5 c 128,-1,11
 988 185 988 185 806.5 96 c 128,-1,12
 625 7 625 7 403 0 c 1,0,-1
428 102 m 1,13,14
 567 105 567 105 686 184.5 c 128,-1,15
 805 264 805 264 874.5 398.5 c 128,-1,16
 944 533 944 533 944 690 c 0,17,18
 944 823 944 823 829 823 c 0,19,20
 698 823 698 823 627 743.5 c 128,-1,21
 556 664 556 664 520 508 c 2,22,-1
 428 102 l 1,13,14
EndSplineSet
Validated: 1
EndChar

StartChar: multiply
Encoding: 215 215 165
Width: 856
VWidth: 0
Flags: W
HStem: 229 561
VStem: 217 657
LayerCount: 2
Fore
SplineSet
616 510 m 1,0,-1
 778 301 l 1,1,-1
 690 229 l 1,2,-1
 528 438 l 1,3,-1
 272 229 l 1,4,-1
 217 301 l 1,5,-1
 473 510 l 1,6,-1
 313 719 l 1,7,-1
 401 791 l 1,8,-1
 563 582 l 1,9,-1
 819 791 l 1,10,-1
 874 719 l 1,11,-1
 616 510 l 1,0,-1
EndSplineSet
Validated: 1
EndChar

StartChar: Oslash
Encoding: 216 216 166
Width: 1370
VWidth: 0
Flags: W
HStem: -20 102<573 844> 0 43G<289 498> 1352 102<823 1118> 1393 41G<1190 1403>
VStem: 199 258<294 748> 1235 256<700 1145>
LayerCount: 2
Fore
SplineSet
969 1352 m 0,0,1
 875 1352 875 1352 790.5 1286.5 c 128,-1,2
 706 1221 706 1221 646.5 1119 c 128,-1,3
 587 1017 587 1017 543 893 c 128,-1,4
 499 769 499 769 478 650.5 c 128,-1,5
 457 532 457 532 457 436 c 0,6,7
 457 357 457 357 473 291 c 1,8,-1
 1120 1309 l 1,9,10
 1059 1352 1059 1352 969 1352 c 0,0,1
694 82 m 0,11,12
 800 82 800 82 892.5 151.5 c 128,-1,13
 985 221 985 221 1046 326.5 c 128,-1,14
 1107 432 1107 432 1151 560 c 128,-1,15
 1195 688 1195 688 1215 804 c 128,-1,16
 1235 920 1235 920 1235 1010 c 0,17,18
 1235 1085 1235 1085 1219 1147 c 1,19,-1
 571 125 l 1,20,21
 626 82 626 82 694 82 c 0,11,12
1190 1419 m 1,22,-1
 1200 1434 l 1,23,-1
 1403 1434 l 1,24,-1
 1337 1333 l 1,25,26
 1491 1199 1491 1199 1491 948 c 0,27,28
 1491 863 1491 863 1475 772 c 128,-1,29
 1459 681 1459 681 1425 586 c 128,-1,30
 1391 491 1391 491 1342.5 403.5 c 128,-1,31
 1294 316 1294 316 1224.5 238.5 c 128,-1,32
 1155 161 1155 161 1072.5 103.5 c 128,-1,33
 990 46 990 46 883.5 13 c 128,-1,34
 777 -20 777 -20 659 -20 c 0,35,36
 569 -20 569 -20 498 8 c 1,37,-1
 492 0 l 1,38,-1
 289 0 l 1,39,-1
 350 96 l 1,40,41
 199 237 199 237 199 487 c 0,42,43
 199 624 199 624 237 763.5 c 128,-1,44
 275 903 275 903 347 1026 c 128,-1,45
 419 1149 419 1149 513.5 1245.5 c 128,-1,46
 608 1342 608 1342 730 1398 c 128,-1,47
 852 1454 852 1454 981 1454 c 0,48,49
 1102 1454 1102 1454 1190 1419 c 1,22,-1
EndSplineSet
Validated: 1
EndChar

StartChar: oslash
Encoding: 248 248 167
Width: 1013
VWidth: 0
Flags: W
HStem: -20 102<451 637> 819 102<585 771>
VStem: 147 244<206 505> 821 242<381 686>
LayerCount: 2
Fore
SplineSet
1063 594 m 0,0,1
 1063 524 1063 524 1045.5 447 c 128,-1,2
 1028 370 1028 370 984.5 285.5 c 128,-1,3
 941 201 941 201 877 134 c 128,-1,4
 813 67 813 67 709.5 23.5 c 128,-1,5
 606 -20 606 -20 479 -20 c 0,6,7
 431 -20 431 -20 379 -10 c 1,8,-1
 319 -102 l 1,9,-1
 199 -102 l 1,10,-1
 281 27 l 1,11,12
 147 108 147 108 147 299 c 0,13,14
 147 429 147 429 197.5 547.5 c 128,-1,15
 248 666 248 666 327 746.5 c 128,-1,16
 406 827 406 827 504 874.5 c 128,-1,17
 602 922 602 922 696 922 c 0,18,19
 770 922 770 922 838 903 c 1,20,-1
 901 1004 l 1,21,-1
 1022 1004 l 1,22,-1
 932 862 l 1,23,24
 1063 779 1063 779 1063 594 c 0,0,1
393 205 m 1,25,-1
 772 801 l 1,26,27
 748 819 748 819 702 819 c 0,28,29
 631 819 631 819 574 768 c 128,-1,30
 517 717 517 717 484 644.5 c 128,-1,31
 451 572 451 572 429 487 c 128,-1,32
 407 402 407 402 399 340.5 c 128,-1,33
 391 279 391 279 391 242 c 0,34,35
 391 236 391 236 392 223.5 c 128,-1,36
 393 211 393 211 393 205 c 1,25,-1
451 102 m 1,37,38
 480 82 480 82 532 82 c 0,39,40
 601 82 601 82 656 138.5 c 128,-1,41
 711 195 711 195 740.5 271.5 c 128,-1,42
 770 348 770 348 789.5 437.5 c 128,-1,43
 809 527 809 527 815 582.5 c 128,-1,44
 821 638 821 638 821 662 c 0,45,46
 821 678 821 678 819 686 c 1,47,-1
 451 102 l 1,37,38
EndSplineSet
Validated: 1
EndChar

StartChar: AE
Encoding: 198 198 168
Width: 1813
VWidth: 0
Flags: W
HStem: 0 102<1160 1730> 410 102<579 964> 799 102<1344 1696> 1331 103<1067 1177 1443 2004>
AnchorPoint: "horn" 1951 1384 basechar 0
AnchorPoint: "cedilla" 982 0 basechar 0
AnchorPoint: "bottom" 1005 0 basechar 0
AnchorPoint: "ogonek" 1533 0 basechar 0
AnchorPoint: "top" 1360 1434 basechar 0
LayerCount: 2
Fore
SplineSet
987 512 m 1,0,-1
 1177 1332 l 1,1,-1
 1067 1332 l 1,2,-1
 579 512 l 1,3,-1
 987 512 l 1,0,-1
964 410 m 1,4,-1
 519 410 l 1,5,-1
 274 0 l 1,6,-1
 39 0 l 1,7,-1
 892 1434 l 1,8,-1
 2028 1434 l 1,9,-1
 2004 1331 l 1,10,-1
 1443 1331 l 1,11,-1
 1344 901 l 1,12,-1
 1720 901 l 1,13,-1
 1696 799 l 1,14,-1
 1320 799 l 1,15,-1
 1160 102 l 1,16,-1
 1754 102 l 1,17,-1
 1730 0 l 1,18,-1
 869 0 l 1,19,-1
 964 410 l 1,4,-1
EndSplineSet
Validated: 1
EndChar

StartChar: ae
Encoding: 230 230 169
Width: 1478
VWidth: 0
Flags: W
HStem: -20 102<404 599 952 1219> 451 102<963 1304> 520 102<488 694> 819 102<492 708 1089 1295>
VStem: 127 256<101 396> 1313 233<554 763>
AnchorPoint: "top" 991 1004 basechar 0
LayerCount: 2
Fore
SplineSet
127 211 m 0,0,1
 127 273 127 273 144 331.5 c 128,-1,2
 161 390 161 390 198 443 c 128,-1,3
 235 496 235 496 287.5 536 c 128,-1,4
 340 576 340 576 417.5 599.5 c 128,-1,5
 495 623 495 623 588 623 c 0,6,7
 646 623 646 623 711 616 c 1,8,9
 719 665 719 665 719 709 c 0,10,11
 719 768 719 768 698 793.5 c 128,-1,12
 677 819 677 819 631 819 c 0,13,14
 524 819 524 819 428 723 c 1,15,-1
 281 829 l 1,16,17
 478 922 478 922 625 922 c 0,18,19
 759 922 759 922 834 901 c 128,-1,20
 909 880 909 880 942 829 c 1,21,22
 1078 922 1078 922 1210 922 c 0,23,24
 1294 922 1294 922 1360 893.5 c 128,-1,25
 1426 865 1426 865 1466 815.5 c 128,-1,26
 1506 766 1506 766 1526 704 c 128,-1,27
 1546 642 1546 642 1546 571 c 0,28,29
 1546 523 1546 523 1532 451 c 1,30,-1
 936 451 l 1,31,32
 909 330 909 330 909 262 c 0,33,34
 909 172 909 172 950.5 127 c 128,-1,35
 992 82 992 82 1087 82 c 0,36,37
 1161 82 1161 82 1203 113 c 128,-1,38
 1245 144 1245 144 1270 205 c 1,39,-1
 1454 158 l 1,40,41
 1370 76 1370 76 1262.5 28 c 128,-1,42
 1155 -20 1155 -20 1034 -20 c 0,43,44
 873 -20 873 -20 774 63 c 1,45,46
 736 51 736 51 687 35 c 128,-1,47
 638 19 638 19 620.5 13 c 128,-1,48
 603 7 603 7 574.5 -1.5 c 128,-1,49
 546 -10 546 -10 536.5 -12 c 128,-1,50
 527 -14 527 -14 508 -16.5 c 128,-1,51
 489 -19 489 -19 475.5 -19.5 c 128,-1,52
 462 -20 462 -20 440 -20 c 0,53,54
 127 -20 127 -20 127 211 c 0,0,1
963 553 m 1,55,-1
 1296 553 l 1,56,57
 1313 643 1313 643 1313 694 c 0,58,59
 1313 755 1313 755 1291.5 787 c 128,-1,60
 1270 819 1270 819 1217 819 c 0,61,62
 1124 819 1124 819 1063.5 751.5 c 128,-1,63
 1003 684 1003 684 963 553 c 1,55,-1
596 520 m 128,-1,65
 548 520 548 520 509 495.5 c 128,-1,66
 470 471 470 471 447.5 435 c 128,-1,67
 425 399 425 399 409.5 355 c 128,-1,68
 394 311 394 311 388.5 275 c 128,-1,69
 383 239 383 239 383 211 c 0,70,71
 383 82 383 82 494 82 c 0,72,73
 548 82 548 82 598 98 c 1,74,-1
 694 514 l 1,75,64
 644 520 644 520 596 520 c 128,-1,65
EndSplineSet
Validated: 1
EndChar

StartChar: eth
Encoding: 240 240 170
Width: 1007
VWidth: 0
Flags: W
HStem: -20 102<465 645> 819 102<606 787>
VStem: 172 252<144 545> 807 258<383 805>
LayerCount: 2
Fore
SplineSet
172 330 m 0,0,1
 172 400 172 400 193 478.5 c 128,-1,2
 214 557 214 557 258.5 636.5 c 128,-1,3
 303 716 303 716 364.5 779 c 128,-1,4
 426 842 426 842 516 882 c 128,-1,5
 606 922 606 922 709 922 c 0,6,7
 765 922 765 922 831 905 c 1,8,9
 819 1030 819 1030 760 1126 c 1,10,-1
 643 1044 l 1,11,-1
 608 1100 l 1,12,-1
 721 1180 l 1,13,14
 675 1234 675 1234 612 1286 c 1,15,-1
 737 1380 l 1,16,17
 787 1332 787 1332 844 1266 c 1,18,-1
 965 1352 l 1,19,-1
 999 1294 l 1,20,-1
 885 1212 l 1,21,22
 1065 962 1065 962 1065 672 c 0,23,24
 1065 358 1065 358 905.5 169 c 128,-1,25
 746 -20 746 -20 492 -20 c 0,26,27
 347 -20 347 -20 259.5 79 c 128,-1,28
 172 178 172 178 172 330 c 0,0,1
715 819 m 0,29,30
 645 819 645 819 587 762 c 128,-1,31
 529 705 529 705 495 621 c 128,-1,32
 461 537 461 537 442.5 451 c 128,-1,33
 424 365 424 365 424 297 c 0,34,35
 424 202 424 202 454.5 142 c 128,-1,36
 485 82 485 82 545 82 c 0,37,38
 606 82 606 82 655 130 c 128,-1,39
 704 178 704 178 731.5 246.5 c 128,-1,40
 759 315 759 315 777 399.5 c 128,-1,41
 795 484 795 484 801 548.5 c 128,-1,42
 807 613 807 613 807 662 c 0,43,44
 807 819 807 819 715 819 c 0,29,30
EndSplineSet
Validated: 1
EndChar

StartChar: Ccedilla
Encoding: 199 199 171
Width: 1325
VWidth: 0
Flags: W
HStem: -401 49<479 627> -41 41<631 786> -20 102<601 928> 1331 102<832 1172>
VStem: 201 260<280 770> 694 162<-312 -178>
LayerCount: 2
Fore
SplineSet
479 -352 m 1,0,1
 694 -352 694 -352 694 -236 c 0,2,3
 694 -173 694 -173 582 -164 c 1,4,-1
 640 -17 l 1,5,6
 586 -11 586 -11 533.5 7.5 c 128,-1,7
 481 26 481 26 431.5 55.5 c 128,-1,8
 382 85 382 85 340.5 129.5 c 128,-1,9
 299 174 299 174 267.5 229 c 128,-1,10
 236 284 236 284 218.5 356 c 128,-1,11
 201 428 201 428 201 510 c 0,12,13
 201 617 201 617 228 728 c 128,-1,14
 255 839 255 839 304 941 c 128,-1,15
 353 1043 353 1043 425.5 1133 c 128,-1,16
 498 1223 498 1223 584 1290 c 128,-1,17
 670 1357 670 1357 776 1395.5 c 128,-1,18
 882 1434 882 1434 993 1434 c 0,19,20
 1382 1434 1382 1434 1489 1245 c 1,21,-1
 1249 1178 l 1,22,23
 1229 1221 1229 1221 1214.5 1243.5 c 128,-1,24
 1200 1266 1200 1266 1172.5 1289.5 c 128,-1,25
 1145 1313 1145 1313 1103.5 1322 c 128,-1,26
 1062 1331 1062 1331 999 1331 c 0,27,28
 911 1331 911 1331 834.5 1292.5 c 128,-1,29
 758 1254 758 1254 704 1192 c 128,-1,30
 650 1130 650 1130 607 1048 c 128,-1,31
 564 966 564 966 537.5 883 c 128,-1,32
 511 800 511 800 493 716.5 c 128,-1,33
 475 633 475 633 468 571 c 128,-1,34
 461 509 461 509 461 465 c 0,35,36
 461 275 461 275 543 178.5 c 128,-1,37
 625 82 625 82 750 82 c 0,38,39
 808 82 808 82 852 93 c 128,-1,40
 896 104 896 104 935.5 130.5 c 128,-1,41
 975 157 975 157 1004 185 c 128,-1,42
 1033 213 1033 213 1077 264 c 1,43,-1
 1257 209 l 1,44,45
 1166 120 1166 120 1042.5 59.5 c 128,-1,46
 919 -1 919 -1 781 -16 c 1,47,-1
 745 -113 l 1,48,49
 795 -124 795 -124 825.5 -151.5 c 128,-1,50
 856 -179 856 -179 856 -221 c 0,51,52
 856 -281 856 -281 797.5 -323.5 c 128,-1,53
 739 -366 739 -366 654.5 -383.5 c 128,-1,54
 570 -401 570 -401 469 -401 c 1,55,-1
 479 -352 l 1,0,1
EndSplineSet
Validated: 1
EndChar

StartChar: ccedilla
Encoding: 231 231 172
Width: 944
VWidth: 0
Flags: W
HStem: -401 49<303 451> -41 41<455 610> -20 102<439 698> 819 102<587 786>
VStem: 150 246<143 528> 518 162<-312 -178> 801 219<671 782>
LayerCount: 2
Fore
SplineSet
303 -352 m 1,0,1
 518 -352 518 -352 518 -236 c 0,2,3
 518 -173 518 -173 406 -164 c 1,4,-1
 464 -18 l 1,5,6
 318 -3 318 -3 234 88 c 128,-1,7
 150 179 150 179 150 324 c 0,8,9
 150 443 150 443 199.5 555.5 c 128,-1,10
 249 668 249 668 327.5 747.5 c 128,-1,11
 406 827 406 827 504 874.5 c 128,-1,12
 602 922 602 922 696 922 c 0,13,14
 830 922 830 922 912 854.5 c 128,-1,15
 994 787 994 787 1020 676 c 1,16,-1
 801 608 l 1,17,18
 800 627 800 627 799.5 665 c 128,-1,19
 799 703 799 703 798 718.5 c 128,-1,20
 797 734 797 734 791.5 758.5 c 128,-1,21
 786 783 786 783 776.5 793 c 128,-1,22
 767 803 767 803 748.5 811 c 128,-1,23
 730 819 730 819 702 819 c 0,24,25
 629 819 629 819 571 766.5 c 128,-1,26
 513 714 513 714 481.5 642 c 128,-1,27
 450 570 450 570 429 485 c 128,-1,28
 408 400 408 400 401.5 345 c 128,-1,29
 395 290 395 290 395 262 c 0,30,31
 395 172 395 172 436.5 127 c 128,-1,32
 478 82 478 82 573 82 c 0,33,34
 592 82 592 82 609 84.5 c 128,-1,35
 626 87 626 87 638 90 c 128,-1,36
 650 93 650 93 663.5 101.5 c 128,-1,37
 677 110 677 110 684.5 114.5 c 128,-1,38
 692 119 692 119 705.5 133.5 c 128,-1,39
 719 148 719 148 723.5 153.5 c 128,-1,40
 728 159 728 159 744 178.5 c 128,-1,41
 760 198 760 198 766 205 c 1,42,-1
 940 158 l 1,43,44
 793 15 793 15 605 -14 c 1,45,-1
 569 -113 l 1,46,47
 619 -124 619 -124 649.5 -151.5 c 128,-1,48
 680 -179 680 -179 680 -221 c 0,49,50
 680 -281 680 -281 621.5 -323.5 c 128,-1,51
 563 -366 563 -366 478.5 -383.5 c 128,-1,52
 394 -401 394 -401 293 -401 c 1,53,-1
 303 -352 l 1,0,1
EndSplineSet
Validated: 1
EndChar

StartChar: Eth
Encoding: 208 208 173
Width: 1216
VWidth: 0
Flags: W
HStem: 0 102<383 690> 692 102<203 252 543 791> 1331 102<666 966>
VStem: 1065 264<718 1227>
LayerCount: 2
Fore
SplineSet
1329 1020 m 0,0,1
 1329 962 1329 962 1319.5 885.5 c 128,-1,2
 1310 809 1310 809 1285.5 710 c 128,-1,3
 1261 611 1261 611 1224.5 514.5 c 128,-1,4
 1188 418 1188 418 1128.5 324 c 128,-1,5
 1069 230 1069 230 995 159 c 128,-1,6
 921 88 921 88 815.5 44 c 128,-1,7
 710 0 710 0 588 0 c 2,8,-1
 92 0 l 1,9,-1
 252 692 l 1,10,-1
 178 692 l 1,11,-1
 203 795 l 1,12,-1
 276 795 l 1,13,-1
 424 1434 l 1,14,-1
 920 1434 l 2,15,16
 1329 1434 1329 1434 1329 1020 c 0,0,1
518 692 m 1,17,-1
 383 102 l 1,18,-1
 551 102 l 2,19,20
 636 102 636 102 712.5 153 c 128,-1,21
 789 204 789 204 843 287 c 128,-1,22
 897 370 897 370 941 470.5 c 128,-1,23
 985 571 985 571 1011.5 676 c 128,-1,24
 1038 781 1038 781 1051.5 870 c 128,-1,25
 1065 959 1065 959 1065 1024 c 0,26,27
 1065 1185 1065 1185 1002 1258 c 128,-1,28
 939 1331 939 1331 834 1331 c 2,29,-1
 666 1331 l 1,30,-1
 543 795 l 1,31,-1
 815 795 l 1,32,-1
 791 692 l 1,33,-1
 518 692 l 1,17,-1
EndSplineSet
Validated: 1
EndChar

StartChar: germandbls
Encoding: 223 223 174
Width: 1026
VWidth: 0
Flags: W
HStem: -276 102<-78 40> 799 102<557 805> 1270 102<684 879>
VStem: -154 74<-170 -125> 719 240<31 295>
LayerCount: 2
Fore
SplineSet
424 -152 m 1,0,1
 436 -148 436 -148 456 -140.5 c 128,-1,2
 476 -133 476 -133 526.5 -106 c 128,-1,3
 577 -79 577 -79 616 -47.5 c 128,-1,4
 655 -16 655 -16 687 36 c 128,-1,5
 719 88 719 88 719 145 c 0,6,7
 719 191 719 191 699.5 242.5 c 128,-1,8
 680 294 680 294 652 334 c 128,-1,9
 624 374 624 374 596 408 c 0,10,11
 568 442 568 442 548 460 c 2,12,-1
 528 479 l 1,13,-1
 805 799 l 1,14,-1
 532 799 l 1,15,-1
 338 -43 l 2,16,17
 315 -147 315 -147 224.5 -211.5 c 128,-1,18
 134 -276 134 -276 -20 -276 c 0,19,20
 -77 -276 -77 -276 -115.5 -239.5 c 128,-1,21
 -154 -203 -154 -203 -154 -152 c 0,22,23
 -154 -141 -154 -141 -150 -125 c 1,24,-1
 -80 -125 l 1,25,26
 -80 -174 -80 -174 -27 -174 c 0,27,28
 18 -174 18 -174 46 -123.5 c 128,-1,29
 74 -73 74 -73 96 20 c 2,30,-1
 291 864 l 2,31,32
 317 974 317 974 338.5 1044.5 c 128,-1,33
 360 1115 360 1115 390.5 1177 c 128,-1,34
 421 1239 421 1239 455 1272.5 c 128,-1,35
 489 1306 489 1306 542.5 1330.5 c 128,-1,36
 596 1355 596 1355 661 1363.5 c 128,-1,37
 726 1372 726 1372 819 1372 c 0,38,39
 843 1372 843 1372 863.5 1370 c 128,-1,40
 884 1368 884 1368 904.5 1362 c 128,-1,41
 925 1356 925 1356 938.5 1351.5 c 128,-1,42
 952 1347 952 1347 972.5 1336 c 128,-1,43
 993 1325 993 1325 1002.5 1320 c 128,-1,44
 1012 1315 1012 1315 1036 1300 c 128,-1,45
 1060 1285 1060 1285 1069 1280 c 1,46,-1
 942 1174 l 1,47,48
 936 1179 936 1179 918 1194.5 c 128,-1,49
 900 1210 900 1210 896 1213.5 c 128,-1,50
 892 1217 892 1217 878 1228 c 128,-1,51
 864 1239 864 1239 859 1241.5 c 128,-1,52
 854 1244 854 1244 842.5 1251.5 c 128,-1,53
 831 1259 831 1259 824.5 1260.5 c 128,-1,54
 818 1262 818 1262 807 1265.5 c 128,-1,55
 796 1269 796 1269 786 1269.5 c 128,-1,56
 776 1270 776 1270 764 1270 c 0,57,58
 640 1270 640 1270 557 901 c 1,59,-1
 1108 901 l 1,60,-1
 764 502 l 1,61,62
 958 364 958 364 958 178 c 0,63,64
 958 114 958 114 931 57 c 128,-1,65
 904 -0 904 -0 860 -40 c 128,-1,66
 816 -80 816 -80 764 -113 c 128,-1,67
 712 -146 712 -146 658 -167.5 c 128,-1,68
 604 -189 604 -189 560.5 -203 c 128,-1,69
 517 -217 517 -217 487.5 -224.5 c 128,-1,70
 458 -232 458 -232 457 -233 c 1,71,-1
 424 -152 l 1,0,1
EndSplineSet
Validated: 1
EndChar

StartChar: Scaron
Encoding: 352 352 177
Width: 1198
VWidth: 0
Flags: W
HStem: -20 102<527 773> 1352 102<812 1024> 1384 387
VStem: 207 238<177 350> 430 270<940 1185> 752 479 932 270<279 555>
LayerCount: 2
Fore
SplineSet
1202 465 m 0,0,1
 1202 358 1202 358 1153 266.5 c 128,-1,2
 1104 175 1104 175 1020.5 113 c 128,-1,3
 937 51 937 51 824.5 15.5 c 128,-1,4
 712 -20 712 -20 586 -20 c 0,5,6
 410 -20 410 -20 310 86.5 c 128,-1,7
 210 193 210 193 207 350 c 1,8,-1
 446 381 l 1,9,10
 444 367 444 367 444 342 c 0,11,12
 444 234 444 234 497 158 c 128,-1,13
 550 82 550 82 623 82 c 0,14,15
 695 82 695 82 752.5 111.5 c 128,-1,16
 810 141 810 141 842 182.5 c 128,-1,17
 874 224 874 224 895.5 275.5 c 128,-1,18
 917 327 917 327 924.5 365.5 c 128,-1,19
 932 404 932 404 932 432 c 0,20,21
 932 491 932 491 904.5 538 c 128,-1,22
 877 585 877 585 832.5 617.5 c 128,-1,23
 788 650 788 650 734.5 679 c 128,-1,24
 681 708 681 708 627.5 738.5 c 128,-1,25
 574 769 574 769 529.5 804 c 128,-1,26
 485 839 485 839 457.5 892.5 c 128,-1,27
 430 946 430 946 430 1012 c 0,28,29
 430 1102 430 1102 471.5 1181.5 c 128,-1,30
 513 1261 513 1261 580 1315.5 c 128,-1,31
 647 1370 647 1370 725 1405 c 128,-1,32
 803 1440 803 1440 881 1450 c 1,33,-1
 752 1718 l 1,34,-1
 827 1772 l 1,35,-1
 963 1591 l 1,36,-1
 1180 1772 l 1,37,-1
 1231 1718 l 1,38,-1
 979 1453 l 1,39,40
 1051 1450 1051 1450 1104.5 1436.5 c 128,-1,41
 1158 1423 1158 1423 1190.5 1405.5 c 128,-1,42
 1223 1388 1223 1388 1249 1355 c 128,-1,43
 1275 1322 1275 1322 1288 1296.5 c 128,-1,44
 1301 1271 1301 1271 1319 1225 c 1,45,-1
 1085 1182 l 1,46,47
 1070 1231 1070 1231 1058.5 1257.5 c 128,-1,48
 1047 1284 1047 1284 1026 1308.5 c 128,-1,49
 1005 1333 1005 1333 974.5 1342.5 c 128,-1,50
 944 1352 944 1352 897 1352 c 128,-1,51
 850 1352 850 1352 802.5 1297.5 c 128,-1,52
 755 1243 755 1243 727.5 1173 c 128,-1,53
 700 1103 700 1103 700 1051 c 0,54,55
 700 1005 700 1005 721.5 966.5 c 128,-1,56
 743 928 743 928 778.5 900.5 c 128,-1,57
 814 873 814 873 859 844.5 c 128,-1,58
 904 816 904 816 951 792.5 c 128,-1,59
 998 769 998 769 1043 736 c 128,-1,60
 1088 703 1088 703 1123.5 667.5 c 128,-1,61
 1159 632 1159 632 1180.5 579.5 c 128,-1,62
 1202 527 1202 527 1202 465 c 0,0,1
EndSplineSet
Validated: 1
EndChar

StartChar: Scedilla
Encoding: 350 350 178
Width: 1198
VWidth: 0
Flags: W
HStem: -401 49<360 508> -41 41<512 668> -20 102<527 773> 1352 102<812 1024>
VStem: 207 238<177 350> 430 270<940 1185> 575 162<-312 -178> 932 270<279 555>
LayerCount: 2
Fore
SplineSet
360 -352 m 1,0,1
 575 -352 575 -352 575 -236 c 0,2,3
 575 -173 575 -173 463 -164 c 1,4,-1
 522 -16 l 1,5,6
 375 4 375 4 292.5 106.5 c 128,-1,7
 210 209 210 209 207 350 c 1,8,-1
 446 381 l 1,9,10
 444 367 444 367 444 342 c 0,11,12
 444 234 444 234 497 158 c 128,-1,13
 550 82 550 82 623 82 c 0,14,15
 695 82 695 82 752.5 111.5 c 128,-1,16
 810 141 810 141 842 182.5 c 128,-1,17
 874 224 874 224 895.5 275.5 c 128,-1,18
 917 327 917 327 924.5 365.5 c 128,-1,19
 932 404 932 404 932 432 c 0,20,21
 932 491 932 491 904.5 538 c 128,-1,22
 877 585 877 585 832.5 617.5 c 128,-1,23
 788 650 788 650 734.5 679 c 128,-1,24
 681 708 681 708 627.5 738.5 c 128,-1,25
 574 769 574 769 529.5 804 c 128,-1,26
 485 839 485 839 457.5 892.5 c 128,-1,27
 430 946 430 946 430 1012 c 0,28,29
 430 1091 430 1091 462.5 1162.5 c 128,-1,30
 495 1234 495 1234 548.5 1286 c 128,-1,31
 602 1338 602 1338 668.5 1377 c 128,-1,32
 735 1416 735 1416 805 1435 c 128,-1,33
 875 1454 875 1454 938 1454 c 0,34,35
 1021 1454 1021 1454 1082 1441.5 c 128,-1,36
 1143 1429 1143 1429 1179.5 1412 c 128,-1,37
 1216 1395 1216 1395 1244.5 1361 c 128,-1,38
 1273 1327 1273 1327 1286.5 1300 c 128,-1,39
 1300 1273 1300 1273 1319 1225 c 1,40,-1
 1085 1182 l 1,41,42
 1070 1231 1070 1231 1058.5 1257.5 c 128,-1,43
 1047 1284 1047 1284 1026 1308.5 c 128,-1,44
 1005 1333 1005 1333 974.5 1342.5 c 128,-1,45
 944 1352 944 1352 897 1352 c 128,-1,46
 850 1352 850 1352 802.5 1297.5 c 128,-1,47
 755 1243 755 1243 727.5 1173 c 128,-1,48
 700 1103 700 1103 700 1051 c 0,49,50
 700 1005 700 1005 721.5 966.5 c 128,-1,51
 743 928 743 928 778.5 900.5 c 128,-1,52
 814 873 814 873 859 844.5 c 128,-1,53
 904 816 904 816 951 792.5 c 128,-1,54
 998 769 998 769 1043 736 c 128,-1,55
 1088 703 1088 703 1123.5 667.5 c 128,-1,56
 1159 632 1159 632 1180.5 579.5 c 128,-1,57
 1202 527 1202 527 1202 465 c 0,58,59
 1202 268 1202 268 1048 136 c 128,-1,60
 894 4 894 4 661 -17 c 1,61,-1
 627 -113 l 1,62,63
 677 -124 677 -124 707 -151.5 c 128,-1,64
 737 -179 737 -179 737 -221 c 0,65,66
 737 -281 737 -281 678.5 -323.5 c 128,-1,67
 620 -366 620 -366 535.5 -383.5 c 128,-1,68
 451 -401 451 -401 350 -401 c 1,69,-1
 360 -352 l 1,0,1
EndSplineSet
Validated: 1
EndChar

StartChar: Tcaron
Encoding: 356 356 179
Width: 1198
VWidth: 0
Flags: W
HStem: 0 43<487 763> 1331 102<352 795 1061 1526> 1384 387
VStem: 780 479
LayerCount: 2
Fore
SplineSet
918 1434 m 1,0,-1
 780 1718 l 1,1,-1
 856 1772 l 1,2,-1
 991 1591 l 1,3,-1
 1208 1772 l 1,4,-1
 1260 1718 l 1,5,-1
 989 1434 l 1,6,-1
 1554 1434 l 1,7,-1
 1526 1331 l 1,8,-1
 1061 1331 l 1,9,-1
 754 0 l 1,10,-1
 487 0 l 1,11,-1
 795 1331 l 1,12,-1
 328 1331 l 1,13,-1
 352 1434 l 1,14,-1
 918 1434 l 1,0,-1
EndSplineSet
Validated: 1
EndChar

StartChar: Zcaron
Encoding: 381 381 181
Width: 1075
VWidth: 0
Flags: W
HStem: 0 102<367 963> 1331 102<414 958> 1384 387
VStem: 649 479
LayerCount: 2
Fore
SplineSet
958 1331 m 1,0,-1
 358 1331 l 1,1,-1
 414 1434 l 1,2,-1
 787 1434 l 1,3,-1
 649 1718 l 1,4,-1
 725 1772 l 1,5,-1
 860 1591 l 1,6,-1
 1077 1772 l 1,7,-1
 1128 1718 l 1,8,-1
 858 1434 l 1,9,-1
 1286 1434 l 1,10,-1
 367 102 l 1,11,-1
 987 102 l 1,12,-1
 963 0 l 1,13,-1
 41 0 l 1,14,-1
 958 1331 l 1,0,-1
EndSplineSet
Validated: 1
EndChar

StartChar: scedilla
Encoding: 351 351 186
Width: 860
VWidth: 0
Flags: W
HStem: -401 49<184 332> -41 41<336 492> -20 102<290 523> 817 104<550 718>
VStem: 252 256<549 774> 399 162<-312 -178> 596 258<167 388>
LayerCount: 2
Fore
SplineSet
184 -352 m 1,0,1
 399 -352 399 -352 399 -236 c 0,2,3
 399 -173 399 -173 287 -164 c 1,4,-1
 345 -18 l 1,5,6
 290 -13 290 -13 243.5 7.5 c 128,-1,7
 197 28 197 28 171.5 47.5 c 128,-1,8
 146 67 146 67 88 117 c 1,9,-1
 236 201 l 1,10,11
 265 141 265 141 308 111.5 c 128,-1,12
 351 82 351 82 420 82 c 0,13,14
 460 82 460 82 492.5 101 c 128,-1,15
 525 120 525 120 543.5 147 c 128,-1,16
 562 174 562 174 574.5 205.5 c 128,-1,17
 587 237 587 237 591.5 259.5 c 128,-1,18
 596 282 596 282 596 295 c 0,19,20
 596 350 596 350 554.5 385.5 c 128,-1,21
 513 421 513 421 463 434 c 1,22,23
 365 462 365 462 308.5 514 c 128,-1,24
 252 566 252 566 252 641 c 0,25,26
 252 690 252 690 276 739 c 128,-1,27
 300 788 300 788 344 829 c 128,-1,28
 388 870 388 870 458.5 896 c 128,-1,29
 529 922 529 922 614 922 c 0,30,31
 713 922 713 922 771 894.5 c 128,-1,32
 829 867 829 867 913 795 c 1,33,-1
 743 723 l 1,34,35
 711 817 711 817 618 817 c 0,36,37
 567 817 567 817 537.5 757 c 128,-1,38
 508 697 508 697 508 641 c 0,39,40
 508 600 508 600 526 573.5 c 128,-1,41
 544 547 544 547 575 539 c 0,42,43
 707 508 707 508 780.5 448 c 128,-1,44
 854 388 854 388 854 305 c 0,45,46
 854 272 854 272 843 235.5 c 128,-1,47
 832 199 832 199 805 157.5 c 128,-1,48
 778 116 778 116 738 81.5 c 128,-1,49
 698 47 698 47 632.5 20 c 128,-1,50
 567 -7 567 -7 486 -16 c 1,51,-1
 451 -113 l 1,52,53
 501 -124 501 -124 531 -151.5 c 128,-1,54
 561 -179 561 -179 561 -221 c 0,55,56
 561 -281 561 -281 502.5 -323.5 c 128,-1,57
 444 -366 444 -366 359.5 -383.5 c 128,-1,58
 275 -401 275 -401 174 -401 c 1,59,-1
 184 -352 l 1,0,1
EndSplineSet
Validated: 1
EndChar

StartChar: Ccaron
Encoding: 268 268 195
Width: 1325
VWidth: 0
Flags: W
HStem: -20 102<601 928> 1331 102<832 1172> 1384 387
VStem: 201 260<280 770> 834 479
LayerCount: 2
Fore
SplineSet
1257 209 m 1,0,1
 1153 106 1153 106 1005 43 c 128,-1,2
 857 -20 857 -20 696 -20 c 0,3,4
 626 -20 626 -20 557 -0.5 c 128,-1,5
 488 19 488 19 423.5 61.5 c 128,-1,6
 359 104 359 104 310 164.5 c 128,-1,7
 261 225 261 225 231 314.5 c 128,-1,8
 201 404 201 404 201 510 c 0,9,10
 201 615 201 615 227.5 724 c 128,-1,11
 254 833 254 833 301.5 934 c 128,-1,12
 349 1035 349 1035 419.5 1124.5 c 128,-1,13
 490 1214 490 1214 573.5 1281 c 128,-1,14
 657 1348 657 1348 760 1388.5 c 128,-1,15
 863 1429 863 1429 972 1433 c 1,16,-1
 834 1718 l 1,17,-1
 909 1772 l 1,18,-1
 1044 1591 l 1,19,-1
 1262 1772 l 1,20,-1
 1313 1718 l 1,21,-1
 1041 1433 l 1,22,23
 1389 1422 1389 1422 1489 1245 c 1,24,-1
 1249 1178 l 1,25,26
 1229 1221 1229 1221 1214.5 1243.5 c 128,-1,27
 1200 1266 1200 1266 1172.5 1289.5 c 128,-1,28
 1145 1313 1145 1313 1103.5 1322 c 128,-1,29
 1062 1331 1062 1331 999 1331 c 0,30,31
 911 1331 911 1331 834.5 1292.5 c 128,-1,32
 758 1254 758 1254 704 1192 c 128,-1,33
 650 1130 650 1130 607 1048 c 128,-1,34
 564 966 564 966 537.5 883 c 128,-1,35
 511 800 511 800 493 716.5 c 128,-1,36
 475 633 475 633 468 571 c 128,-1,37
 461 509 461 509 461 465 c 0,38,39
 461 275 461 275 543 178.5 c 128,-1,40
 625 82 625 82 750 82 c 0,41,42
 808 82 808 82 852 93 c 128,-1,43
 896 104 896 104 935.5 130.5 c 128,-1,44
 975 157 975 157 1004 185 c 128,-1,45
 1033 213 1033 213 1077 264 c 1,46,-1
 1257 209 l 1,0,1
EndSplineSet
Validated: 1
EndChar

StartChar: Ecaron
Encoding: 282 282 196
Width: 962
VWidth: 0
Flags: W
HStem: 0 102<373 942> 799 102<557 909> 1331 102<655 1217> 1384 387
VStem: 680 479
LayerCount: 2
Fore
SplineSet
942 0 m 1,0,-1
 82 0 l 1,1,-1
 414 1434 l 1,2,-1
 818 1434 l 1,3,-1
 680 1718 l 1,4,-1
 756 1772 l 1,5,-1
 891 1591 l 1,6,-1
 1108 1772 l 1,7,-1
 1159 1718 l 1,8,-1
 888 1434 l 1,9,-1
 1241 1434 l 1,10,-1
 1217 1331 l 1,11,-1
 655 1331 l 1,12,-1
 557 901 l 1,13,-1
 934 901 l 1,14,-1
 909 799 l 1,15,-1
 532 799 l 1,16,-1
 373 102 l 1,17,-1
 967 102 l 1,18,-1
 942 0 l 1,0,-1
EndSplineSet
Validated: 1
EndChar

StartChar: Dcaron
Encoding: 270 270 197
Width: 1216
VWidth: 0
Flags: W
HStem: 0 102<383 690> 1331 102<666 966> 1384 387
VStem: 657 479 1065 264<718 1227>
LayerCount: 2
Fore
SplineSet
666 1331 m 1,0,-1
 383 102 l 1,1,-1
 551 102 l 2,2,3
 636 102 636 102 712.5 153 c 128,-1,4
 789 204 789 204 843 287 c 128,-1,5
 897 370 897 370 941 470.5 c 128,-1,6
 985 571 985 571 1011.5 676 c 128,-1,7
 1038 781 1038 781 1051.5 870 c 128,-1,8
 1065 959 1065 959 1065 1024 c 0,9,10
 1065 1185 1065 1185 1002 1258 c 128,-1,11
 939 1331 939 1331 834 1331 c 2,12,-1
 666 1331 l 1,0,-1
1329 1020 m 0,13,14
 1329 962 1329 962 1319.5 885.5 c 128,-1,15
 1310 809 1310 809 1285.5 710 c 128,-1,16
 1261 611 1261 611 1224.5 514.5 c 128,-1,17
 1188 418 1188 418 1128.5 324 c 128,-1,18
 1069 230 1069 230 995 159 c 128,-1,19
 921 88 921 88 815.5 44 c 128,-1,20
 710 0 710 0 588 0 c 2,21,-1
 92 0 l 1,22,-1
 424 1434 l 1,23,-1
 795 1434 l 1,24,-1
 657 1718 l 1,25,-1
 733 1772 l 1,26,-1
 868 1591 l 1,27,-1
 1085 1772 l 1,28,-1
 1137 1718 l 1,29,-1
 866 1434 l 1,30,-1
 920 1434 l 2,31,32
 1329 1434 1329 1434 1329 1020 c 0,13,14
EndSplineSet
Validated: 1
EndChar

StartChar: Rcaron
Encoding: 344 344 202
Width: 1122
VWidth: 0
Flags: W
HStem: 0 43<92 368 748 1012> 655 102<532 607> 1331 102<666 881> 1384 387
VStem: 637 479 758 262<0 382> 940 266<951 1271>
LayerCount: 2
Fore
SplineSet
625 758 m 2,0,1
 715 758 715 758 789.5 816 c 128,-1,2
 864 874 864 874 902 958 c 128,-1,3
 940 1042 940 1042 940 1128 c 0,4,5
 940 1215 940 1215 896.5 1273 c 128,-1,6
 853 1331 853 1331 758 1331 c 2,7,-1
 666 1331 l 1,8,-1
 532 758 l 1,9,-1
 625 758 l 2,0,1
1206 1128 m 0,10,11
 1206 1042 1206 1042 1166 955.5 c 128,-1,12
 1126 869 1126 869 1043.5 794.5 c 128,-1,13
 961 720 961 720 852 684 c 1,14,15
 918 606 918 606 969 434.5 c 128,-1,16
 1020 263 1020 263 1020 115 c 0,17,18
 1020 52 1020 52 1008 0 c 1,19,-1
 748 0 l 1,20,21
 758 41 758 41 758 106 c 0,22,23
 758 254 758 254 702 419 c 128,-1,24
 646 584 646 584 569 655 c 1,25,-1
 510 655 l 1,26,-1
 358 0 l 1,27,-1
 92 0 l 1,28,-1
 424 1434 l 1,29,-1
 775 1434 l 1,30,-1
 637 1718 l 1,31,-1
 713 1772 l 1,32,-1
 848 1591 l 1,33,-1
 1065 1772 l 1,34,-1
 1116 1718 l 1,35,-1
 845 1434 l 1,36,37
 942 1434 942 1434 1015 1407 c 128,-1,38
 1088 1380 1088 1380 1128 1335 c 128,-1,39
 1168 1290 1168 1290 1187 1238 c 128,-1,40
 1206 1186 1206 1186 1206 1128 c 0,10,11
EndSplineSet
Validated: 1
EndChar

StartChar: Tcommaaccent
Encoding: 354 354 205
Width: 1198
VWidth: 0
Flags: W
HStem: -401 49<381 528> -41 41<532 688> 0 43<487 763> 1331 102<352 795 1061 1526>
VStem: 596 162<-312 -178>
LayerCount: 2
Fore
SplineSet
381 -352 m 1,0,1
 596 -352 596 -352 596 -236 c 0,2,3
 596 -173 596 -173 483 -164 c 1,4,-1
 549 0 l 1,5,-1
 487 0 l 1,6,-1
 795 1331 l 1,7,-1
 328 1331 l 1,8,-1
 352 1434 l 1,9,-1
 1554 1434 l 1,10,-1
 1526 1331 l 1,11,-1
 1061 1331 l 1,12,-1
 754 0 l 1,13,-1
 688 0 l 1,14,-1
 647 -113 l 1,15,16
 697 -124 697 -124 727.5 -151.5 c 128,-1,17
 758 -179 758 -179 758 -221 c 0,18,19
 758 -281 758 -281 699.5 -323.5 c 128,-1,20
 641 -366 641 -366 556.5 -383.5 c 128,-1,21
 472 -401 472 -401 371 -401 c 1,22,-1
 381 -352 l 1,0,1
EndSplineSet
Validated: 1
EndChar

StartChar: tcommaaccent
Encoding: 355 355 219
Width: 669
VWidth: 0
Flags: W
HStem: -401 49<145 293> -41 41<297 453> -20 102<395 610> 799 102<291 371 651 788>
VStem: 229 258<84 376> 360 162<-312 -178> 616 70<93 131>
LayerCount: 2
Fore
SplineSet
180 -352 m 1,0,1
 395 -352 395 -352 395 -236 c 0,2,3
 395 -173 395 -173 283 -164 c 1,4,-1
 348 -1 l 1,5,6
 229 41 229 41 229 156 c 0,7,8
 229 178 229 178 236 213 c 1,9,-1
 371 799 l 1,10,-1
 236 799 l 1,11,-1
 291 901 l 1,12,-1
 395 901 l 1,13,-1
 463 1198 l 1,14,-1
 727 1229 l 1,15,-1
 651 901 l 1,16,-1
 813 901 l 1,17,-1
 788 799 l 1,18,-1
 627 799 l 1,19,-1
 506 276 l 2,20,21
 487 191 487 191 487 156 c 0,22,23
 487 82 487 82 539 82 c 0,24,25
 594 82 594 82 616 131 c 1,26,-1
 686 131 l 1,27,28
 672 73 672 73 612 26.5 c 128,-1,29
 552 -20 552 -20 487 -20 c 2,30,-1
 480 -20 l 1,31,-1
 446 -113 l 1,32,33
 496 -124 496 -124 526.5 -151.5 c 128,-1,34
 557 -179 557 -179 557 -221 c 0,35,36
 557 -281 557 -281 498.5 -323.5 c 128,-1,37
 440 -366 440 -366 355.5 -383.5 c 128,-1,38
 271 -401 271 -401 170 -401 c 1,39,-1
 180 -352 l 1,0,1
EndSplineSet
Validated: 1
EndChar

StartChar: Aogonek
Encoding: 260 260 220
Width: 1275
VWidth: 0
Flags: W
HStem: -319 37<992 1071> 0 43<31 291 1014 1255> 410 102<571 952> 1393 41<860 1070>
VStem: 801 152<-267 -104>
LayerCount: 2
Fore
SplineSet
883 1034 m 1,0,-1
 571 512 l 1,1,-1
 952 512 l 1,2,-1
 883 1034 l 1,0,-1
1065 1434 m 1,3,-1
 1255 0 l 1,4,-1
 1092 0 l 1,5,6
 1050 -18 1050 -18 1001 -72 c 128,-1,7
 952 -126 952 -126 952 -193 c 0,8,9
 952 -283 952 -283 1079 -283 c 1,10,-1
 1071 -319 l 1,11,12
 928 -319 928 -319 864.5 -285 c 128,-1,13
 801 -251 801 -251 801 -203 c 0,14,15
 801 -184 801 -184 808.5 -163.5 c 128,-1,16
 816 -143 816 -143 836.5 -114 c 128,-1,17
 857 -85 857 -85 904.5 -55 c 128,-1,18
 952 -25 952 -25 1020 0 c 1,19,-1
 965 410 l 1,20,-1
 510 410 l 1,21,-1
 266 0 l 1,22,-1
 31 0 l 1,23,-1
 885 1434 l 1,24,-1
 1065 1434 l 1,3,-1
EndSplineSet
Validated: 1
EndChar

StartChar: Eogonek
Encoding: 280 280 221
Width: 962
VWidth: 0
Flags: W
HStem: -319 37<654 733> 0 102<373 942> 799 102<557 909> 1331 102<655 1217>
VStem: 463 152<-267 -104>
LayerCount: 2
Fore
SplineSet
754 0 m 1,0,1
 712 -18 712 -18 663 -72 c 128,-1,2
 614 -126 614 -126 614 -193 c 0,3,4
 614 -283 614 -283 741 -283 c 1,5,-1
 733 -319 l 1,6,7
 590 -319 590 -319 526.5 -285 c 128,-1,8
 463 -251 463 -251 463 -203 c 0,9,10
 463 -184 463 -184 470.5 -163.5 c 128,-1,11
 478 -143 478 -143 498.5 -114 c 128,-1,12
 519 -85 519 -85 566 -55 c 128,-1,13
 613 -25 613 -25 681 0 c 1,14,-1
 82 0 l 1,15,-1
 414 1434 l 1,16,-1
 1241 1434 l 1,17,-1
 1217 1331 l 1,18,-1
 655 1331 l 1,19,-1
 557 901 l 1,20,-1
 934 901 l 1,21,-1
 909 799 l 1,22,-1
 532 799 l 1,23,-1
 373 102 l 1,24,-1
 967 102 l 1,25,-1
 942 0 l 1,26,-1
 754 0 l 1,0,1
EndSplineSet
Validated: 1
EndChar

StartChar: aogonek
Encoding: 261 261 222
Width: 1130
VWidth: 0
Flags: W
HStem: -319 37<932 1012> -20 102<443 701 907 1067> 819 102<633 835>
VStem: 154 246<136 485> 690 262<96 373> 741 152<-267 -104> 1075 72<97 131>
LayerCount: 2
Fore
SplineSet
836 815 m 1,0,1
 790 819 790 819 760 819 c 0,2,3
 678 819 678 819 607 757 c 128,-1,4
 536 695 536 695 492.5 604.5 c 128,-1,5
 449 514 449 514 424 420.5 c 128,-1,6
 399 327 399 327 399 254 c 0,7,8
 399 165 399 165 441 123.5 c 128,-1,9
 483 82 483 82 524 82 c 0,10,11
 634 82 634 82 702 100 c 1,12,13
 690 130 690 130 690 164 c 0,14,15
 690 189 690 189 696 213 c 2,16,-1
 836 815 l 1,0,1
1098 838 m 1,17,-1
 967 276 l 2,18,19
 952 215 952 215 952 166 c 0,20,21
 952 82 952 82 997 82 c 0,22,23
 1022 82 1022 82 1046.5 97 c 128,-1,24
 1071 112 1071 112 1075 131 c 1,25,-1
 1147 131 l 1,26,27
 1137 92 1137 92 1102 54.5 c 128,-1,28
 1067 17 1067 17 1021 -3 c 1,29,30
 977 -27 977 -27 933 -78.5 c 128,-1,31
 889 -130 889 -130 889 -193 c 0,32,33
 889 -283 889 -283 1016 -283 c 1,34,-1
 1008 -319 l 1,35,36
 864 -319 864 -319 800.5 -285 c 128,-1,37
 737 -251 737 -251 737 -203 c 0,38,39
 737 -190 737 -190 740 -176 c 128,-1,40
 743 -162 743 -162 754 -141.5 c 128,-1,41
 765 -121 765 -121 782.5 -102 c 128,-1,42
 800 -83 800 -83 832.5 -60.5 c 128,-1,43
 865 -38 865 -38 908 -19 c 1,44,45
 818 -11 818 -11 766 25 c 1,46,47
 706 4 706 4 622.5 -8 c 128,-1,48
 539 -20 539 -20 471 -20 c 0,49,50
 336 -20 336 -20 245 74 c 128,-1,51
 154 168 154 168 154 309 c 0,52,53
 154 461 154 461 234.5 602.5 c 128,-1,54
 315 744 315 744 455 833 c 128,-1,55
 595 922 595 922 754 922 c 0,56,57
 833 922 833 922 902 908 c 128,-1,58
 971 894 971 894 1009.5 879 c 128,-1,59
 1048 864 1048 864 1098 838 c 1,17,-1
EndSplineSet
Validated: 1
EndChar

StartChar: eogonek
Encoding: 281 281 223
Width: 964
VWidth: 0
Flags: W
HStem: -319 37<459 539> -20 102<439 705> 451 102<449 789> 819 102<575 781>
VStem: 150 246<143 446> 268 152<-267 -104> 799 233<561 763>
LayerCount: 2
Fore
SplineSet
449 553 m 1,0,-1
 700 553 l 2,1,2
 762 553 762 553 780.5 580.5 c 128,-1,3
 799 608 799 608 799 694 c 0,4,5
 799 755 799 755 777 787 c 128,-1,6
 755 819 755 819 702 819 c 0,7,8
 609 819 609 819 549 751.5 c 128,-1,9
 489 684 489 684 449 553 c 1,0,-1
150 324 m 0,10,11
 150 443 150 443 199.5 555.5 c 128,-1,12
 249 668 249 668 327.5 747.5 c 128,-1,13
 406 827 406 827 504 874.5 c 128,-1,14
 602 922 602 922 696 922 c 0,15,16
 780 922 780 922 846 893.5 c 128,-1,17
 912 865 912 865 952 815.5 c 128,-1,18
 992 766 992 766 1012 704 c 128,-1,19
 1032 642 1032 642 1032 571 c 0,20,21
 1032 516 1032 516 996.5 483.5 c 128,-1,22
 961 451 961 451 887 451 c 2,23,-1
 422 451 l 1,24,25
 395 330 395 330 395 262 c 0,26,27
 395 172 395 172 436.5 127 c 128,-1,28
 478 82 478 82 573 82 c 0,29,30
 647 82 647 82 689 113 c 128,-1,31
 731 144 731 144 756 205 c 1,32,-1
 940 158 l 1,33,34
 856 76 856 76 750.5 28.5 c 128,-1,35
 645 -19 645 -19 525 -20 c 1,36,37
 483 -50 483 -50 451.5 -95 c 128,-1,38
 420 -140 420 -140 420 -193 c 0,39,40
 420 -283 420 -283 547 -283 c 1,41,-1
 539 -319 l 1,42,43
 395 -319 395 -319 331.5 -285 c 128,-1,44
 268 -251 268 -251 268 -203 c 0,45,46
 268 -186 268 -186 274.5 -167 c 128,-1,47
 281 -148 281 -148 298 -122 c 128,-1,48
 315 -96 315 -96 353 -68 c 128,-1,49
 391 -40 391 -40 447 -16 c 1,50,51
 309 4 309 4 229.5 93.5 c 128,-1,52
 150 183 150 183 150 324 c 0,10,11
EndSplineSet
Validated: 1
EndChar

StartChar: Lslash
Encoding: 321 321 224
Width: 1052
VWidth: 0
UnlinkRmOvrlpSave: 1
Flags: W
HStem: 0 102<373 942> 1393 41G<404 680>
LayerCount: 2
Fore
SplineSet
373 102 m 1,0,-1
 967 102 l 1,1,-1
 942 0 l 1,2,-1
 82 0 l 1,3,-1
 246 707 l 1,4,-1
 174 670 l 1,5,-1
 129 762 l 1,6,-1
 276 838 l 1,7,-1
 414 1434 l 1,8,-1
 680 1434 l 1,9,-1
 578 991 l 1,10,-1
 655 1030 l 1,11,-1
 700 938 l 1,12,-1
 547 860 l 1,13,-1
 373 102 l 1,0,-1
EndSplineSet
EndChar

StartChar: lslash
Encoding: 322 322 225
Width: 575
VWidth: 0
UnlinkRmOvrlpSave: 1
Flags: W
HStem: -20 102<301 515>
VStem: 135 258<84 377> 522 70<93 131>
LayerCount: 2
Fore
SplineSet
403 1352 m 1,0,-1
 659 1352 l 1,1,-1
 575 989 l 1,2,-1
 655 1030 l 1,3,-1
 700 938 l 1,4,-1
 547 860 l 1,5,-1
 412 276 l 2,6,7
 393 191 393 191 393 156 c 0,8,9
 393 82 393 82 444 82 c 0,10,11
 500 82 500 82 522 131 c 1,12,-1
 592 131 l 1,13,14
 578 73 578 73 518 26.5 c 128,-1,15
 458 -20 458 -20 393 -20 c 0,16,17
 262 -20 262 -20 198.5 28 c 128,-1,18
 135 76 135 76 135 156 c 0,19,20
 135 183 135 183 141 213 c 2,21,-1
 256 711 l 1,22,-1
 174 670 l 1,23,-1
 129 762 l 1,24,-1
 287 842 l 1,25,-1
 403 1352 l 1,0,-1
EndSplineSet
EndChar

StartChar: dcroat
Encoding: 273 273 226
Width: 1142
VWidth: 0
Flags: W
HStem: -20 102<421 631 956 1082> 819 102<584 774> 1085 102<778 909 1190 1239>
VStem: 152 238<130 500> 1090 70<96 131>
LayerCount: 2
Fore
SplineSet
524 82 m 0,0,1
 582 82 582 82 628.5 123 c 128,-1,2
 675 164 675 164 703 229.5 c 128,-1,3
 731 295 731 295 751 366 c 128,-1,4
 771 437 771 437 779.5 508 c 128,-1,5
 788 579 788 579 791.5 618 c 128,-1,6
 795 657 795 657 795 672 c 0,7,8
 795 819 795 819 694 819 c 0,9,10
 638 819 638 819 591.5 787 c 128,-1,11
 545 755 545 755 514.5 704.5 c 128,-1,12
 484 654 484 654 460 592.5 c 128,-1,13
 436 531 436 531 423 469 c 128,-1,14
 410 407 410 407 402 356.5 c 128,-1,15
 394 306 394 306 392 274 c 2,16,-1
 389 242 l 1,17,18
 389 82 389 82 524 82 c 0,0,1
979 276 m 2,19,20
 954 170 954 170 954 143 c 0,21,22
 954 82 954 82 1012 82 c 0,23,24
 1036 82 1036 82 1058.5 98 c 128,-1,25
 1081 114 1081 114 1090 131 c 1,26,-1
 1159 131 l 1,27,28
 1145 73 1145 73 1085.5 26.5 c 128,-1,29
 1026 -20 1026 -20 961 -20 c 0,30,31
 825 -20 825 -20 756 43 c 1,32,33
 638 -20 638 -20 471 -20 c 0,34,35
 312 -20 312 -20 232 74.5 c 128,-1,36
 152 169 152 169 152 317 c 0,37,38
 152 398 152 398 176 483.5 c 128,-1,39
 200 569 200 569 247 647 c 128,-1,40
 294 725 294 725 357.5 786.5 c 128,-1,41
 421 848 421 848 507 885 c 128,-1,42
 593 922 593 922 688 922 c 0,43,44
 786 922 786 922 862 883 c 1,45,-1
 909 1085 l 1,46,-1
 754 1085 l 1,47,-1
 778 1188 l 1,48,-1
 932 1188 l 1,49,-1
 971 1352 l 1,50,-1
 1227 1352 l 1,51,-1
 1190 1188 l 1,52,-1
 1264 1188 l 1,53,-1
 1239 1085 l 1,54,-1
 1165 1085 l 1,55,-1
 979 276 l 2,19,20
EndSplineSet
Validated: 1
EndChar

StartChar: Hbar
Encoding: 294 294 246
Width: 1189
VWidth: 0
UnlinkRmOvrlpSave: 1
Flags: W
HStem: 0 43G<82 358 823 1099> 717 102<537 989> 1159 102<291 350 639 1092 1382 1440> 1393 41G<404 680 1145 1421>
LayerCount: 2
Fore
SplineSet
350 1159 m 1,0,-1
 268 1159 l 1,1,-1
 291 1262 l 1,2,-1
 375 1262 l 1,3,-1
 414 1434 l 1,4,-1
 680 1434 l 1,5,-1
 639 1262 l 1,6,-1
 1114 1262 l 1,7,-1
 1155 1434 l 1,8,-1
 1421 1434 l 1,9,-1
 1382 1262 l 1,10,-1
 1462 1262 l 1,11,-1
 1440 1159 l 1,12,-1
 1358 1159 l 1,13,-1
 1090 0 l 1,14,-1
 823 0 l 1,15,-1
 989 717 l 1,16,-1
 514 717 l 1,17,-1
 348 0 l 1,18,-1
 82 0 l 1,19,-1
 350 1159 l 1,0,-1
1092 1159 m 1,20,-1
 616 1159 l 1,21,-1
 537 819 l 1,22,-1
 1012 819 l 1,23,-1
 1092 1159 l 1,20,-1
EndSplineSet
EndChar

StartChar: hbar
Encoding: 295 295 247
Width: 972
VWidth: 0
UnlinkRmOvrlpSave: 1
Flags: W
HStem: 0 43G<82 347 627 892> 819 102<548 751> 1085 102<287 332 608 748> 1270 102<228 442>
VStem: 152 70<1221 1259> 768 248<415 804>
LayerCount: 2
Fore
SplineSet
262 1085 m 5,0,-1
 287 1188 l 1,1,-1
 348 1188 l 1,2,3
 348 1196 l 2,4,5
 348 1270 348 1270 297 1270 c 0,6,7
 243 1270 243 1270 221 1221 c 1,8,-1
 152 1221 l 1,9,10
 164 1279 164 1279 224.5 1325.5 c 128,-1,11
 285 1372 285 1372 350 1372 c 0,12,13
 481 1372 481 1372 544.5 1324 c 128,-1,14
 608 1276 608 1276 608 1196 c 2,15,-1
 608 1188 l 1,16,-1
 772 1188 l 1,17,-1
 748 1085 l 1,18,-1
 588 1085 l 1,19,-1
 547 907 l 1,20,21
 624 922 624 922 668 922 c 0,22,23
 1016 922 1016 922 1016 641 c 0,24,25
 1016 574 1016 574 995 492 c 1,26,-1
 883 0 l 1,27,-1
 627 0 l 1,28,-1
 735 467 l 2,29,30
 768 610 768 610 768 692 c 0,31,32
 768 762 768 762 744 790.5 c 128,-1,33
 720 819 720 819 674 819 c 0,34,35
 595 819 595 819 520 784 c 1,36,-1
 338 0 l 1,37,-1
 82 0 l 1,38,-1
 332 1085 l 1,39,-1
 262 1085 l 5,0,-1
EndSplineSet
EndChar

StartChar: Iogonek
Encoding: 302 302 248
Width: 458
VWidth: 0
Flags: W
HStem: -319 37<101 180> 0 43<92 368> 1393 41<414 690>
VStem: -90 152<-267 -104> 92 598
LayerCount: 2
Fore
SplineSet
690 1434 m 1,0,-1
 358 0 l 1,1,-1
 201 0 l 1,2,3
 159 -18 159 -18 110 -72 c 128,-1,4
 61 -126 61 -126 61 -193 c 0,5,6
 61 -283 61 -283 188 -283 c 1,7,-1
 180 -319 l 1,8,9
 37 -319 37 -319 -26.5 -285 c 128,-1,10
 -90 -251 -90 -251 -90 -203 c 0,11,12
 -90 -184 -90 -184 -82.5 -163.5 c 128,-1,13
 -75 -143 -75 -143 -54.5 -114 c 128,-1,14
 -34 -85 -34 -85 13 -55 c 128,-1,15
 60 -25 60 -25 128 0 c 1,16,-1
 92 0 l 1,17,-1
 424 1434 l 1,18,-1
 690 1434 l 1,0,-1
EndSplineSet
Validated: 1
EndChar

StartChar: Uogonek
Encoding: 370 370 249
Width: 1239
VWidth: 0
Flags: W
HStem: -319 37<576 655> -20 102<498 781> 1393 41<384 659 1209 1485>
VStem: 176 254<182 636> 385 152<-267 -104>
LayerCount: 2
Fore
SplineSet
1219 1434 m 1,0,-1
 1485 1434 l 1,1,-1
 1294 610 l 2,2,3
 1261 468 1261 468 1209 359.5 c 128,-1,4
 1157 251 1157 251 1096.5 181.5 c 128,-1,5
 1036 112 1036 112 959.5 67 c 128,-1,6
 883 22 883 22 807 3 c 128,-1,7
 731 -16 731 -16 643 -20 c 1,8,9
 601 -50 601 -50 569 -95 c 128,-1,10
 537 -140 537 -140 537 -193 c 0,11,12
 537 -283 537 -283 664 -283 c 1,13,-1
 655 -319 l 1,14,15
 512 -319 512 -319 448.5 -285 c 128,-1,16
 385 -251 385 -251 385 -203 c 0,17,18
 385 -190 385 -190 388 -176 c 128,-1,19
 391 -162 391 -162 402 -141.5 c 128,-1,20
 413 -121 413 -121 430.5 -102 c 128,-1,21
 448 -83 448 -83 480.5 -60.5 c 128,-1,22
 513 -38 513 -38 556 -19 c 1,23,24
 500 -15 500 -15 449 -1 c 128,-1,25
 398 13 398 13 347 44 c 128,-1,26
 296 75 296 75 259 120 c 128,-1,27
 222 165 222 165 199 236.5 c 128,-1,28
 176 308 176 308 176 397 c 0,29,30
 176 490 176 490 203 610 c 2,31,-1
 393 1434 l 1,32,-1
 659 1434 l 1,33,-1
 469 610 l 2,34,35
 430 444 430 444 430 334 c 0,36,37
 430 259 430 259 446.5 207 c 128,-1,38
 463 155 463 155 493 129 c 128,-1,39
 523 103 523 103 556.5 92.5 c 128,-1,40
 590 82 590 82 633 82 c 0,41,42
 683 82 683 82 725 95.5 c 128,-1,43
 767 109 767 109 810.5 144.5 c 128,-1,44
 854 180 854 180 891 238 c 128,-1,45
 928 296 928 296 963.5 390 c 128,-1,46
 999 484 999 484 1028 610 c 2,47,-1
 1219 1434 l 1,0,-1
EndSplineSet
Validated: 1
EndChar

StartChar: iogonek
Encoding: 303 303 250
Width: 573
VWidth: 0
Flags: W
HStem: -317 37<207 287> -20 102<305 513> 860 41<291 555> 1065 164<397 573>
VStem: 16 152<-265 -102> 133 254<83 364> 520 70<96 131>
LayerCount: 2
Fore
SplineSet
410 276 m 2,0,1
 387 178 387 178 387 143 c 0,2,3
 387 82 387 82 442 82 c 0,4,5
 466 82 466 82 488.5 98 c 128,-1,6
 511 114 511 114 520 131 c 1,7,-1
 590 131 l 1,8,9
 576 73 576 73 516 26.5 c 128,-1,10
 456 -20 456 -20 391 -20 c 0,11,12
 329 -20 329 -20 288 -9 c 1,13,14
 243 -37 243 -37 205.5 -84 c 128,-1,15
 168 -131 168 -131 168 -190 c 0,16,17
 168 -281 168 -281 295 -281 c 1,18,-1
 287 -317 l 1,19,20
 143 -317 143 -317 79.5 -283 c 128,-1,21
 16 -249 16 -249 16 -201 c 0,22,23
 16 -182 16 -182 24 -160.5 c 128,-1,24
 32 -139 32 -139 53.5 -109.5 c 128,-1,25
 75 -80 75 -80 124.5 -49.5 c 128,-1,26
 174 -19 174 -19 245 6 c 1,27,28
 190 30 190 30 161.5 71 c 128,-1,29
 133 112 133 112 133 164 c 0,30,31
 133 189 133 189 139 213 c 2,32,-1
 301 901 l 1,33,-1
 555 901 l 1,34,-1
 410 276 l 2,0,1
397 1229 m 1,35,-1
 612 1229 l 1,36,-1
 573 1065 l 1,37,-1
 358 1065 l 1,38,-1
 397 1229 l 1,35,-1
EndSplineSet
Validated: 1
EndChar

StartChar: uogonek
Encoding: 371 371 251
Width: 1110
VWidth: 0
Flags: W
HStem: -319 37<824 903> -20 102<435 668 876 1050> 860 41<281 547 826 1092>
VStem: 154 256<105 501> 633 152<-267 -104> 668 260<101 364> 1057 70<93 131>
LayerCount: 2
Fore
SplineSet
836 901 m 1,0,-1
 1092 901 l 1,1,-1
 946 276 l 2,2,3
 928 195 928 195 928 156 c 0,4,5
 928 82 928 82 979 82 c 0,6,7
 1035 82 1035 82 1057 131 c 1,8,-1
 1126 131 l 1,9,10
 1112 73 1112 73 1052.5 26.5 c 128,-1,11
 993 -20 993 -20 928 -20 c 0,12,13
 903 -20 903 -20 891 -19 c 1,14,15
 849 -49 849 -49 816.5 -94.5 c 128,-1,16
 784 -140 784 -140 784 -193 c 0,17,18
 784 -283 784 -283 911 -283 c 1,19,-1
 903 -319 l 1,20,21
 760 -319 760 -319 696.5 -285 c 128,-1,22
 633 -251 633 -251 633 -203 c 0,23,24
 633 -185 633 -185 639.5 -165.5 c 128,-1,25
 646 -146 646 -146 664 -119 c 128,-1,26
 682 -92 682 -92 723.5 -63 c 128,-1,27
 765 -34 765 -34 824 -10 c 1,28,29
 752 6 752 6 715 43 c 1,30,31
 567 -20 567 -20 475 -20 c 0,32,33
 309 -20 309 -20 231.5 43.5 c 128,-1,34
 154 107 154 107 154 240 c 0,35,36
 154 311 154 311 176 410 c 1,37,-1
 291 901 l 1,38,-1
 547 901 l 1,39,-1
 438 434 l 1,40,41
 410 303 410 303 410 236 c 0,42,43
 410 151 410 151 441 116.5 c 128,-1,44
 472 82 472 82 528 82 c 0,45,46
 609 82 609 82 670 127 c 1,47,48
 670 131 670 131 669 140.5 c 128,-1,49
 668 150 668 150 668 154 c 0,50,51
 668 173 668 173 676 213 c 1,52,-1
 836 901 l 1,0,-1
EndSplineSet
Validated: 1
EndChar

StartChar: kgreenlandic
Encoding: 312 312 305
Width: 917
VWidth: 0
Flags: W
HStem: 0 43G<82 347 608 848> 860 41G<281 547 745 1020>
LayerCount: 2
Fore
SplineSet
483 627 m 1,0,-1
 791 901 l 1,1,-1
 1020 901 l 1,2,-1
 571 502 l 1,3,-1
 848 0 l 1,4,-1
 631 0 l 1,5,-1
 424 371 l 1,6,-1
 338 0 l 1,7,-1
 82 0 l 1,8,-1
 291 901 l 1,9,-1
 547 901 l 1,10,-1
 483 627 l 1,0,-1
EndSplineSet
Validated: 1
EndChar

StartChar: Tbar
Encoding: 358 358 306
Width: 1198
VWidth: 0
Flags: W
HStem: 0 43G<487 763> 901 102<567 696 985 1110> 1331 102<352 795 1061 1526>
LayerCount: 2
Fore
SplineSet
543 901 m 1,0,-1
 567 1004 l 1,1,-1
 719 1004 l 1,2,-1
 795 1331 l 1,3,-1
 328 1331 l 1,4,-1
 352 1434 l 1,5,-1
 1554 1434 l 1,6,-1
 1526 1331 l 1,7,-1
 1061 1331 l 1,8,-1
 985 1004 l 1,9,-1
 1135 1004 l 1,10,-1
 1110 901 l 1,11,-1
 963 901 l 1,12,-1
 754 0 l 1,13,-1
 487 0 l 1,14,-1
 696 901 l 1,15,-1
 543 901 l 1,0,-1
EndSplineSet
Validated: 1
EndChar

StartChar: tbar
Encoding: 359 359 307
Width: 669
VWidth: 0
Flags: W
HStem: -20 102<395 610> 500 102<193 301 582 735> 799 102<291 371 651 788>
VStem: 229 258<84 380> 616 70<93 131>
LayerCount: 2
Fore
SplineSet
168 500 m 1,0,-1
 193 602 l 1,1,-1
 326 602 l 1,2,-1
 371 799 l 1,3,-1
 236 799 l 1,4,-1
 291 901 l 1,5,-1
 395 901 l 1,6,-1
 463 1198 l 1,7,-1
 727 1229 l 1,8,-1
 651 901 l 1,9,-1
 813 901 l 1,10,-1
 788 799 l 1,11,-1
 627 799 l 1,12,-1
 582 602 l 1,13,-1
 760 602 l 1,14,-1
 735 500 l 1,15,-1
 557 500 l 1,16,-1
 506 276 l 2,17,18
 487 191 487 191 487 156 c 0,19,20
 487 82 487 82 539 82 c 0,21,22
 594 82 594 82 616 131 c 1,23,-1
 686 131 l 1,24,25
 672 73 672 73 612 26.5 c 128,-1,26
 552 -20 552 -20 487 -20 c 0,27,28
 356 -20 356 -20 292.5 28 c 128,-1,29
 229 76 229 76 229 156 c 0,30,31
 229 178 229 178 236 213 c 2,32,-1
 301 500 l 1,33,-1
 168 500 l 1,0,-1
EndSplineSet
Validated: 1
EndChar

StartChar: Eng
Encoding: 330 330 308
Width: 1394
VWidth: 0
Flags: W
HStem: -20 102<716 932> 0 43G<147 423> 1270 102<828 1170>
VStem: 1229 264<811 1191>
LayerCount: 2
Fore
SplineSet
1399 590 m 2,0,1
 1328 281 1328 281 1179.5 130.5 c 128,-1,2
 1031 -20 1031 -20 793 -20 c 0,3,4
 705 -20 705 -20 649 0 c 128,-1,5
 593 20 593 20 545 72 c 1,6,-1
 672 178 l 1,7,8
 730 82 730 82 846 82 c 0,9,10
 928 82 928 82 1007 230 c 128,-1,11
 1086 378 1086 378 1135 594 c 2,12,-1
 1208 918 l 1,13,14
 1229 1006 1229 1006 1229 1069 c 0,15,16
 1229 1181 1229 1181 1174 1225.5 c 128,-1,17
 1119 1270 1119 1270 1024 1270 c 0,18,19
 926 1270 926 1270 842 1232 c 128,-1,20
 758 1194 758 1194 676 1135 c 1,21,-1
 414 0 l 1,22,-1
 147 0 l 1,23,-1
 459 1352 l 1,24,-1
 725 1352 l 1,25,-1
 711 1282 l 1,26,27
 721 1287 721 1287 754.5 1303.5 c 128,-1,28
 788 1320 788 1320 809 1328.5 c 128,-1,29
 830 1337 830 1337 864.5 1349 c 128,-1,30
 899 1361 899 1361 937 1366.5 c 128,-1,31
 975 1372 975 1372 1018 1372 c 0,32,33
 1149 1372 1149 1372 1254 1336 c 128,-1,34
 1359 1300 1359 1300 1426 1221.5 c 128,-1,35
 1493 1143 1493 1143 1493 1034 c 0,36,37
 1493 992 1493 992 1481 942 c 2,38,-1
 1399 590 l 2,0,1
EndSplineSet
Validated: 1
EndChar

StartChar: eng
Encoding: 331 331 309
Width: 1075
VWidth: 0
Flags: W
HStem: -348 102<447 662> 0 43G<184 450> 819 102<226 400 616 855>
VStem: 150 70<770 809> 346 260<527 780> 872 246<427 804>
LayerCount: 2
Fore
SplineSet
969 -68 m 2,0,1
 953 -140 953 -140 903.5 -196.5 c 128,-1,2
 854 -253 854 -253 789.5 -284.5 c 128,-1,3
 725 -316 725 -316 661 -332 c 128,-1,4
 597 -348 597 -348 539 -348 c 0,5,6
 409 -348 409 -348 352 -256 c 1,7,-1
 496 -195 l 1,8,9
 518 -246 518 -246 592 -246 c 0,10,11
 644 -246 644 -246 670.5 -193 c 128,-1,12
 697 -140 697 -140 729 0 c 2,13,-1
 838 467 l 1,14,15
 872 621 872 621 872 700 c 0,16,17
 872 766 872 766 848 792.5 c 128,-1,18
 824 819 824 819 776 819 c 0,19,20
 685 819 685 819 604 768 c 1,21,22
 606 762 606 762 606 745 c 0,23,24
 606 718 606 718 600 688 c 2,25,-1
 440 0 l 1,26,-1
 184 0 l 1,27,-1
 328 625 l 1,28,29
 346 692 346 692 346 745 c 0,30,31
 346 819 346 819 295 819 c 0,32,33
 241 819 241 819 219 770 c 1,34,-1
 150 770 l 1,35,36
 162 828 162 828 222.5 875 c 128,-1,37
 283 922 283 922 348 922 c 0,38,39
 494 922 494 922 561 858 c 1,40,41
 675 922 675 922 770 922 c 0,42,43
 1118 922 1118 922 1118 641 c 0,44,45
 1118 571 1118 571 1098 492 c 1,46,-1
 969 -68 l 2,0,1
EndSplineSet
Validated: 1
EndChar

StartChar: asciicircum
Encoding: 94 94 310
Width: 917
VWidth: 0
Flags: W
LayerCount: 2
Fore
SplineSet
647 819 m 1,0,-1
 934 209 l 1,1,-1
 801 131 l 1,2,-1
 592 578 l 1,3,-1
 178 131 l 1,4,-1
 82 209 l 1,5,-1
 647 819 l 1,0,-1
EndSplineSet
Validated: 1
EndChar

StartChar: asciitilde
Encoding: 126 126 311
Width: 831
VWidth: 0
Flags: W
HStem: 399 158<571 750> 465 158<317 496>
LayerCount: 2
Fore
SplineSet
809 623 m 1,0,-1
 893 623 l 1,1,2
 865 540 865 540 785 469.5 c 128,-1,3
 705 399 705 399 621 399 c 0,4,5
 565 399 565 399 527.5 409.5 c 128,-1,6
 490 420 490 420 476 432 c 128,-1,7
 462 444 462 444 442.5 454.5 c 128,-1,8
 423 465 423 465 399 465 c 0,9,10
 350 465 350 465 309.5 448 c 128,-1,11
 269 431 269 431 258 399 c 1,12,-1
 174 399 l 1,13,14
 204 482 204 482 283 552.5 c 128,-1,15
 362 623 362 623 446 623 c 0,16,17
 502 623 502 623 539.5 612.5 c 128,-1,18
 577 602 577 602 591 590 c 128,-1,19
 605 578 605 578 624.5 567.5 c 128,-1,20
 644 557 644 557 668 557 c 0,21,22
 717 557 717 557 757.5 574 c 128,-1,23
 798 591 798 591 809 623 c 1,0,-1
EndSplineSet
Validated: 1
EndChar

StartChar: exclamdown
Encoding: 161 161 312
Width: 448
VWidth: 0
Flags: W
HStem: 1032 164<389 565>
VStem: 37 567
LayerCount: 2
Fore
SplineSet
565 1032 m 1,0,-1
 350 1032 l 1,1,-1
 389 1196 l 1,2,-1
 604 1196 l 1,3,-1
 565 1032 l 1,0,-1
37 -238 m 17,4,-1
 313 827 l 1,5,-1
 508 827 l 1,6,-1
 293 -238 l 1,7,-1
 37 -238 l 17,4,-1
EndSplineSet
Validated: 1
EndChar

StartChar: questiondown
Encoding: 191 191 313
Width: 944
VWidth: 0
Flags: W
HStem: -176 102<390 637> 612 215<629 784> 1032 164<694 870>
VStem: 94 246<-5 366>
LayerCount: 2
Fore
SplineSet
870 1032 m 1,0,-1
 655 1032 l 1,1,-1
 694 1196 l 1,2,-1
 909 1196 l 1,3,-1
 870 1032 l 1,0,-1
94 174 m 0,4,5
 94 282 94 282 135 377 c 128,-1,6
 176 472 176 472 245.5 539 c 128,-1,7
 315 606 315 606 402.5 649.5 c 128,-1,8
 490 693 490 693 586 709 c 1,9,-1
 629 827 l 1,10,-1
 803 827 l 1,11,-1
 784 612 l 1,12,-1
 676 612 l 2,13,14
 615 612 615 612 563.5 589 c 128,-1,15
 512 566 512 566 478.5 529.5 c 128,-1,16
 445 493 445 493 418.5 444.5 c 128,-1,17
 392 396 392 396 378 349 c 128,-1,18
 364 302 364 302 354.5 253 c 128,-1,19
 345 204 345 204 342.5 172 c 128,-1,20
 340 140 340 140 340 117 c 0,21,22
 340 24 340 24 384.5 -25 c 128,-1,23
 429 -74 429 -74 528 -74 c 0,24,25
 558 -74 558 -74 578.5 -69 c 128,-1,26
 599 -64 599 -64 615 -51.5 c 128,-1,27
 631 -39 631 -39 640.5 -27.5 c 128,-1,28
 650 -16 650 -16 667.5 8 c 128,-1,29
 685 32 685 32 700 49 c 1,30,-1
 883 2 l 1,31,32
 702 -176 702 -176 473 -176 c 0,33,34
 302 -176 302 -176 198 -81.5 c 128,-1,35
 94 13 94 13 94 174 c 0,4,5
EndSplineSet
Validated: 1
EndChar

StartChar: cent
Encoding: 162 162 314
Width: 944
VWidth: 0
Flags: W
HStem: 20 102<478 530> 778 102<648 706>
VStem: 141 248<198 530> 797 211<630 736>
LayerCount: 2
Fore
SplineSet
141 336 m 0,0,1
 141 513 141 513 258 665.5 c 128,-1,2
 375 818 375 818 563 864 c 1,3,-1
 596 1004 l 1,4,-1
 676 1004 l 1,5,-1
 647 879 l 1,6,7
 659 881 659 881 686 881 c 0,8,9
 715 881 715 881 729 879 c 1,10,-1
 758 1004 l 1,11,-1
 838 1004 l 1,12,-1
 805 864 l 1,13,14
 966 811 966 811 1008 635 c 1,15,-1
 797 567 l 1,16,17
 796 582 796 582 795 618 c 128,-1,18
 794 654 794 654 792.5 669 c 128,-1,19
 791 684 791 684 787 705 c 128,-1,20
 783 726 783 726 776 739 c 1,21,-1
 637 129 l 1,22,23
 661 135 661 135 677 149 c 128,-1,24
 693 163 693 163 717.5 196.5 c 128,-1,25
 742 230 742 230 756 246 c 1,26,-1
 907 199 l 1,27,28
 835 127 835 127 766 84 c 128,-1,29
 697 41 697 41 612 27 c 1,30,-1
 582 -102 l 1,31,-1
 502 -102 l 1,32,-1
 530 20 l 1,33,-1
 528 20 l 2,34,35
 518 20 518 20 451 25 c 1,36,-1
 420 -102 l 1,37,-1
 340 -102 l 1,38,-1
 373 39 l 1,39,40
 264 71 264 71 202.5 146 c 128,-1,41
 141 221 141 221 141 336 c 0,0,1
530 715 m 1,42,43
 466 653 466 653 427.5 515.5 c 128,-1,44
 389 378 389 378 389 291 c 0,45,46
 389 233 389 233 410 195 c 1,47,-1
 530 715 l 1,42,43
477 139 m 1,48,49
 510 126 510 126 555 123 c 1,50,-1
 707 778 l 1,51,-1
 694 778 l 2,52,53
 650 778 650 778 623 770 c 1,54,-1
 477 139 l 1,48,49
EndSplineSet
Validated: 1
EndChar

StartChar: brokenbar
Encoding: 166 166 315
Width: 376
VWidth: 0
Flags: W
HStem: 0 43G<92 286> 1393 41G<414 608>
VStem: 92 516
LayerCount: 2
Fore
SplineSet
608 1434 m 25,0,-1
 457 778 l 1,1,-1
 272 778 l 1,2,-1
 424 1434 l 1,3,-1
 608 1434 l 25,0,-1
428 655 m 25,4,-1
 276 0 l 1,5,-1
 92 0 l 1,6,-1
 244 655 l 1,7,-1
 428 655 l 25,4,-1
EndSplineSet
Validated: 1
EndChar

StartChar: OE
Encoding: 338 338 316
Width: 1851
VWidth: 0
Flags: W
HStem: -20 102<571 852> 0 102<1262 1831> 799 102<1446 1798> 1331 102<1544 2105> 1352 102<822 1121>
VStem: 199 258<251 749>
LayerCount: 2
Fore
SplineSet
1831 0 m 1,0,-1
 971 0 l 1,1,-1
 983 53 l 1,2,3
 828 -20 828 -20 659 -20 c 0,4,5
 571 -20 571 -20 490.5 11 c 128,-1,6
 410 42 410 42 343.5 102 c 128,-1,7
 277 162 277 162 238 262 c 128,-1,8
 199 362 199 362 199 489 c 0,9,10
 199 624 199 624 236.5 763 c 128,-1,11
 274 902 274 902 345.5 1025 c 128,-1,12
 417 1148 417 1148 511 1244.5 c 128,-1,13
 605 1341 605 1341 727.5 1397.5 c 128,-1,14
 850 1454 850 1454 981 1454 c 0,15,16
 1160 1454 1160 1454 1288 1372 c 1,17,-1
 1303 1434 l 1,18,-1
 2130 1434 l 1,19,-1
 2105 1331 l 1,20,-1
 1544 1331 l 1,21,-1
 1446 901 l 1,22,-1
 1823 901 l 1,23,-1
 1798 799 l 1,24,-1
 1421 799 l 1,25,-1
 1262 102 l 1,26,-1
 1855 102 l 1,27,-1
 1831 0 l 1,0,-1
969 1352 m 0,28,29
 875 1352 875 1352 790.5 1287 c 128,-1,30
 706 1222 706 1222 646.5 1120 c 128,-1,31
 587 1018 587 1018 543 894.5 c 128,-1,32
 499 771 499 771 478 653 c 128,-1,33
 457 535 457 535 457 440 c 0,34,35
 457 262 457 262 524.5 172 c 128,-1,36
 592 82 592 82 694 82 c 0,37,38
 790 82 790 82 881 143.5 c 128,-1,39
 972 205 972 205 1047 326 c 1,40,-1
 1227 1110 l 1,41,42
 1207 1233 1207 1233 1140.5 1292.5 c 128,-1,43
 1074 1352 1074 1352 969 1352 c 0,28,29
EndSplineSet
Validated: 1
EndChar

StartChar: oe
Encoding: 339 339 317
Width: 1589
VWidth: 0
Flags: W
HStem: -20 102<427 646 1063 1330> 451 102<1073 1415> 819 102<586 795 1201 1406>
VStem: 147 244<117 508> 1423 233<554 763>
LayerCount: 2
Fore
SplineSet
1073 553 m 1,0,-1
 1407 553 l 1,1,2
 1423 638 1423 638 1423 694 c 0,3,4
 1423 755 1423 755 1401.5 787 c 128,-1,5
 1380 819 1380 819 1327 819 c 0,6,7
 1234 819 1234 819 1173.5 751.5 c 128,-1,8
 1113 684 1113 684 1073 553 c 1,0,-1
147 301 m 0,9,10
 147 430 147 430 197.5 547.5 c 128,-1,11
 248 665 248 665 327 745.5 c 128,-1,12
 406 826 406 826 504 874 c 128,-1,13
 602 922 602 922 696 922 c 0,14,15
 913 922 913 922 1006 795 c 1,16,17
 1079 856 1079 856 1161.5 889 c 128,-1,18
 1244 922 1244 922 1321 922 c 0,19,20
 1405 922 1405 922 1471 893.5 c 128,-1,21
 1537 865 1537 865 1577 815.5 c 128,-1,22
 1617 766 1617 766 1637 704 c 128,-1,23
 1657 642 1657 642 1657 571 c 0,24,25
 1657 528 1657 528 1642 451 c 1,26,-1
 1047 451 l 1,27,28
 1020 330 1020 330 1020 262 c 0,29,30
 1020 172 1020 172 1061.5 127 c 128,-1,31
 1103 82 1103 82 1198 82 c 0,32,33
 1272 82 1272 82 1313.5 113 c 128,-1,34
 1355 144 1355 144 1380 205 c 1,35,-1
 1565 158 l 1,36,37
 1481 76 1481 76 1373.5 28 c 128,-1,38
 1266 -20 1266 -20 1145 -20 c 0,39,40
 944 -20 944 -20 846 104 c 1,41,42
 695 -20 695 -20 479 -20 c 0,43,44
 318 -20 318 -20 232.5 64.5 c 128,-1,45
 147 149 147 149 147 301 c 0,9,10
791 451 m 1,46,47
 821 588 821 588 821 664 c 0,48,49
 821 819 821 819 702 819 c 0,50,51
 627 819 627 819 568 763 c 128,-1,52
 509 707 509 707 477 631 c 128,-1,53
 445 555 445 555 424.5 466.5 c 128,-1,54
 404 378 404 378 397.5 323.5 c 128,-1,55
 391 269 391 269 391 246 c 0,56,57
 391 165 391 165 424.5 123.5 c 128,-1,58
 458 82 458 82 532 82 c 0,59,60
 584 82 584 82 625 108 c 128,-1,61
 666 134 666 134 696.5 186 c 128,-1,62
 727 238 727 238 748.5 300.5 c 128,-1,63
 770 363 770 363 791 451 c 1,46,47
EndSplineSet
Validated: 1
EndChar

StartChar: Euro
Encoding: 8364 8364 318
Width: 1204
VWidth: 0
Flags: W
HStem: -20 102<638 886> 512 102<244 309 571 848> 819 102<315 365 649 918> 1331 102<867 1143>
VStem: 309 244<247 512> 317 254<614 810>
LayerCount: 2
Fore
SplineSet
1171 209 m 1,0,1
 1083 107 1083 107 958.5 43.5 c 128,-1,2
 834 -20 834 -20 705 -20 c 0,3,4
 636 -20 636 -20 568 10.5 c 128,-1,5
 500 41 500 41 441 100 c 128,-1,6
 382 159 382 159 345.5 259.5 c 128,-1,7
 309 360 309 360 309 485 c 2,8,-1
 309 512 l 1,9,-1
 190 512 l 1,10,-1
 244 614 l 1,11,-1
 317 614 l 1,12,13
 333 710 333 710 365 819 c 1,14,-1
 260 819 l 1,15,-1
 315 922 l 1,16,-1
 403 922 l 1,17,18
 446 1027 446 1027 505.5 1114 c 128,-1,19
 565 1201 565 1201 628 1259 c 128,-1,20
 691 1317 691 1317 759.5 1357.5 c 128,-1,21
 828 1398 828 1398 890 1416 c 128,-1,22
 952 1434 952 1434 1008 1434 c 0,23,24
 1329 1434 1329 1434 1405 1245 c 1,25,-1
 1198 1178 l 1,26,27
 1185 1216 1185 1216 1178.5 1232 c 128,-1,28
 1172 1248 1172 1248 1157 1272 c 128,-1,29
 1142 1296 1142 1296 1125 1305.5 c 128,-1,30
 1108 1315 1108 1315 1078.5 1323 c 128,-1,31
 1049 1331 1049 1331 1008 1331 c 0,32,33
 890 1331 890 1331 803 1232.5 c 128,-1,34
 716 1134 716 1134 649 922 c 1,35,-1
 942 922 l 1,36,-1
 918 819 l 1,37,-1
 618 819 l 1,38,39
 583 676 583 676 571 614 c 1,40,-1
 870 614 l 1,41,-1
 848 512 l 1,42,-1
 559 512 l 1,43,44
 553 453 553 453 553 403 c 0,45,46
 553 242 553 242 607.5 162 c 128,-1,47
 662 82 662 82 752 82 c 0,48,49
 773 82 773 82 790 83.5 c 128,-1,50
 807 85 807 85 824 92 c 128,-1,51
 841 99 841 99 852 102.5 c 128,-1,52
 863 106 863 106 879 120 c 128,-1,53
 895 134 895 134 902 139.5 c 128,-1,54
 909 145 909 145 926 165.5 c 128,-1,55
 943 186 943 186 948 193 c 128,-1,56
 953 200 953 200 973.5 227.5 c 128,-1,57
 994 255 994 255 1001 264 c 1,58,-1
 1171 209 l 1,0,1
EndSplineSet
Validated: 1
EndChar

StartChar: yen
Encoding: 165 165 319
Width: 1075
VWidth: 0
Flags: W
HStem: 0 43G<406 681> 336 102<395 483 772 856> 549 102<444 532 821 905> 1393 41G<377 646 1112 1327>
AnchorPoint: "top" 868 1434 basechar 0
LayerCount: 2
Fore
SplineSet
774 936 m 1,0,-1
 1143 1434 l 1,1,-1
 1327 1434 l 1,2,-1
 856 801 l 1,3,-1
 821 651 l 1,4,-1
 930 651 l 1,5,-1
 905 549 l 1,6,-1
 799 549 l 1,7,-1
 772 438 l 1,8,-1
 881 438 l 1,9,-1
 856 336 l 1,10,-1
 750 336 l 1,11,-1
 672 0 l 1,12,-1
 406 0 l 1,13,-1
 483 336 l 1,14,-1
 371 336 l 1,15,-1
 395 438 l 1,16,-1
 506 438 l 1,17,-1
 532 549 l 1,18,-1
 420 549 l 1,19,-1
 444 651 l 1,20,-1
 555 651 l 1,21,-1
 573 727 l 1,22,-1
 377 1434 l 1,23,-1
 635 1434 l 1,24,-1
 774 936 l 1,0,-1
EndSplineSet
Validated: 1
EndChar

StartChar: sterling
Encoding: 163 163 320
Width: 903
VWidth: 0
Flags: W
HStem: 0 102<76 134 274 821> 696 102<332 358 629 819> 1169 102<725 934>
LayerCount: 2
Fore
SplineSet
428 991 m 2,0,1
 445 1064 445 1064 487.5 1120 c 128,-1,2
 530 1176 530 1176 588 1208 c 128,-1,3
 646 1240 646 1240 709.5 1256 c 128,-1,4
 773 1272 773 1272 840 1272 c 0,5,6
 912 1272 912 1272 955 1250 c 128,-1,7
 998 1228 998 1228 1028 1180 c 1,8,-1
 883 1118 l 1,9,10
 861 1169 861 1169 788 1169 c 0,11,12
 770 1169 770 1169 757 1162.5 c 128,-1,13
 744 1156 744 1156 727.5 1133 c 128,-1,14
 711 1110 711 1110 693.5 1058.5 c 128,-1,15
 676 1007 676 1007 657 924 c 2,16,-1
 629 799 l 1,17,-1
 844 799 l 1,18,-1
 819 696 l 1,19,-1
 604 696 l 1,20,-1
 547 446 l 2,21,22
 534 388 534 388 502 332.5 c 128,-1,23
 470 277 470 277 437 240 c 128,-1,24
 404 203 404 203 364 169 c 128,-1,25
 324 135 324 135 306 122.5 c 128,-1,26
 288 110 288 110 274 102 c 1,27,-1
 846 102 l 1,28,-1
 821 0 l 1,29,-1
 51 0 l 1,30,-1
 76 102 l 1,31,32
 96 102 96 102 142 154 c 128,-1,33
 188 206 188 206 236 289.5 c 128,-1,34
 284 373 284 373 301 446 c 2,35,-1
 358 696 l 1,36,-1
 276 696 l 1,37,-1
 332 799 l 1,38,-1
 383 799 l 1,39,-1
 428 991 l 2,0,1
EndSplineSet
Validated: 1
EndChar

StartChar: section
Encoding: 167 167 321
Width: 808
VWidth: 0
Flags: W
HStem: -18 102<303 479> 1268 102<642 818>
VStem: 119 150<115 219> 274 227<544 775> 344 227<970 1175> 551 225<176 382> 621 225<575 806> 854 147<1133 1230>
LayerCount: 2
Fore
SplineSet
776 324 m 0,0,1
 776 233 776 233 718 153.5 c 128,-1,2
 660 74 660 74 566.5 28 c 128,-1,3
 473 -18 473 -18 371 -18 c 0,4,5
 151 -18 151 -18 119 217 c 1,6,-1
 268 238 l 1,7,8
 272 206 272 206 277.5 184 c 128,-1,9
 283 162 283 162 296 136.5 c 128,-1,10
 309 111 309 111 334.5 97.5 c 128,-1,11
 360 84 360 84 397 84 c 0,12,13
 441 84 441 84 478.5 125.5 c 128,-1,14
 516 167 516 167 533.5 215.5 c 128,-1,15
 551 264 551 264 551 299 c 0,16,17
 551 335 551 335 530.5 360.5 c 128,-1,18
 510 386 510 386 479 399.5 c 128,-1,19
 448 413 448 413 412.5 430 c 128,-1,20
 377 447 377 447 346 465.5 c 128,-1,21
 315 484 315 484 294.5 520.5 c 128,-1,22
 274 557 274 557 274 608 c 0,23,24
 274 627 274 627 278 652.5 c 128,-1,25
 282 678 282 678 295 720.5 c 128,-1,26
 308 763 308 763 340 809.5 c 128,-1,27
 372 856 372 856 420 893 c 1,28,29
 344 944 344 944 344 1028 c 0,30,31
 344 1165 344 1165 469 1267.5 c 128,-1,32
 594 1370 594 1370 750 1370 c 0,33,34
 969 1370 969 1370 1001 1135 c 1,35,-1
 854 1114 l 1,36,37
 849 1147 849 1147 843.5 1168 c 128,-1,38
 838 1189 838 1189 824.5 1215 c 128,-1,39
 811 1241 811 1241 785.5 1254.5 c 128,-1,40
 760 1268 760 1268 723 1268 c 0,41,42
 679 1268 679 1268 642 1226.5 c 128,-1,43
 605 1185 605 1185 588 1136.5 c 128,-1,44
 571 1088 571 1088 571 1053 c 0,45,46
 571 1011 571 1011 599.5 983.5 c 128,-1,47
 628 956 628 956 668 939 c 128,-1,48
 708 922 708 922 748.5 902.5 c 128,-1,49
 789 883 789 883 817.5 843 c 128,-1,50
 846 803 846 803 846 743 c 0,51,52
 846 723 846 723 842 698.5 c 128,-1,53
 838 674 838 674 826 631 c 128,-1,54
 814 588 814 588 782 542 c 128,-1,55
 750 496 750 496 702 459 c 1,56,57
 776 407 776 407 776 324 c 0,0,1
549 541 m 1,58,59
 583 575 583 575 602 627 c 128,-1,60
 621 679 621 679 621 717 c 0,61,62
 621 777 621 777 571 811 c 1,63,64
 538 778 538 778 520 726 c 128,-1,65
 502 674 502 674 502 635 c 0,66,67
 502 573 502 573 549 541 c 1,58,59
EndSplineSet
Validated: 1
EndChar

StartChar: copyright
Encoding: 169 169 322
Width: 1101
VWidth: 0
Flags: W
HStem: -20 82<447 689> 193 61<568 694> 733 61<661 776> 946 82<634 876>
VStem: 125 209<181 595> 389 168<272 584> 989 209<422 827>
LayerCount: 2
Fore
SplineSet
764 946 m 0,0,1
 690 946 690 946 612 896 c 128,-1,2
 534 846 534 846 473 766.5 c 128,-1,3
 412 687 412 687 373 581 c 128,-1,4
 334 475 334 475 334 371 c 0,5,6
 334 233 334 233 398 147 c 128,-1,7
 462 61 462 61 559 61 c 0,8,9
 618 61 618 61 680.5 93 c 128,-1,10
 743 125 743 125 797.5 181.5 c 128,-1,11
 852 238 852 238 895.5 309.5 c 128,-1,12
 939 381 939 381 964 467 c 128,-1,13
 989 553 989 553 989 637 c 0,14,15
 989 774 989 774 925 860 c 128,-1,16
 861 946 861 946 764 946 c 0,0,1
143 504 m 0,17,18
 170 622 170 622 227.5 716.5 c 128,-1,19
 285 811 285 811 353 868 c 128,-1,20
 421 925 421 925 501.5 962.5 c 128,-1,21
 582 1000 582 1000 650.5 1014 c 128,-1,22
 719 1028 719 1028 782 1028 c 0,23,24
 836 1028 836 1028 890 1017.5 c 128,-1,25
 944 1007 944 1007 1000.5 979.5 c 128,-1,26
 1057 952 1057 952 1100 910.5 c 128,-1,27
 1143 869 1143 869 1170.5 802 c 128,-1,28
 1198 735 1198 735 1198 651 c 0,29,30
 1198 587 1198 587 1180 504 c 0,31,32
 1153 385 1153 385 1095 291 c 128,-1,33
 1037 197 1037 197 969.5 140 c 128,-1,34
 902 83 902 83 821.5 45.5 c 128,-1,35
 741 8 741 8 672.5 -6 c 128,-1,36
 604 -20 604 -20 541 -20 c 0,37,38
 487 -20 487 -20 433 -9.5 c 128,-1,39
 379 1 379 1 322.5 28.5 c 128,-1,40
 266 56 266 56 223 97 c 128,-1,41
 180 138 180 138 152.5 205 c 128,-1,42
 125 272 125 272 125 356 c 0,43,44
 125 422 125 422 143 504 c 0,17,18
389 412 m 0,45,46
 389 557 389 557 487 676 c 128,-1,47
 585 795 585 795 719 795 c 0,48,49
 811 795 811 795 858 773 c 128,-1,50
 905 751 905 751 930 705 c 1,51,-1
 788 670 l 1,52,53
 785 676 785 676 780.5 692.5 c 128,-1,54
 776 709 776 709 772 715 c 128,-1,55
 768 721 768 721 754 727 c 128,-1,56
 740 733 740 733 717 733 c 0,57,58
 680 733 680 733 649.5 692.5 c 128,-1,59
 619 652 619 652 602.5 594 c 128,-1,60
 586 536 586 536 575 478 c 0,61,62
 564 418 564 418 560 378 c 2,63,-1
 557 338 l 1,64,65
 557 294 557 294 573 274 c 128,-1,66
 589 254 589 254 623 254 c 0,67,68
 655 254 655 254 673.5 265 c 128,-1,69
 692 276 692 276 707.5 300.5 c 128,-1,70
 723 325 723 325 727 330 c 1,71,-1
 840 299 l 1,72,73
 734 193 734 193 596 193 c 0,74,75
 515 193 515 193 452 249.5 c 128,-1,76
 389 306 389 306 389 412 c 0,45,46
EndSplineSet
Validated: 1
EndChar

StartChar: registered
Encoding: 174 174 323
Width: 1101
VWidth: 0
Flags: W
HStem: -20 82<447 690> 739 61<676 732> 946 82<632 876>
VStem: 125 209<181 590> 666 133<207 430> 741 139<561 736> 989 209<418 827>
LayerCount: 2
Fore
SplineSet
764 946 m 0,0,1
 690 946 690 946 612 896 c 128,-1,2
 534 846 534 846 473 766.5 c 128,-1,3
 412 687 412 687 373 581 c 128,-1,4
 334 475 334 475 334 371 c 0,5,6
 334 233 334 233 398 147 c 128,-1,7
 462 61 462 61 559 61 c 0,8,9
 618 61 618 61 680.5 93 c 128,-1,10
 743 125 743 125 797.5 181.5 c 128,-1,11
 852 238 852 238 895.5 309.5 c 128,-1,12
 939 381 939 381 964 467 c 128,-1,13
 989 553 989 553 989 637 c 0,14,15
 989 774 989 774 925 860 c 128,-1,16
 861 946 861 946 764 946 c 0,0,1
782 1028 m 0,17,18
 836 1028 836 1028 890 1017.5 c 128,-1,19
 944 1007 944 1007 1000.5 979.5 c 128,-1,20
 1057 952 1057 952 1100 910.5 c 128,-1,21
 1143 869 1143 869 1170.5 802 c 128,-1,22
 1198 735 1198 735 1198 651 c 0,23,24
 1198 516 1198 516 1145.5 392 c 128,-1,25
 1093 268 1093 268 1005 177.5 c 128,-1,26
 917 87 917 87 795.5 33.5 c 128,-1,27
 674 -20 674 -20 541 -20 c 0,28,29
 487 -20 487 -20 433 -9.5 c 128,-1,30
 379 1 379 1 322.5 28.5 c 128,-1,31
 266 56 266 56 223 97 c 128,-1,32
 180 138 180 138 152.5 205 c 128,-1,33
 125 272 125 272 125 356 c 0,34,35
 125 537 125 537 213 691.5 c 128,-1,36
 301 846 301 846 452.5 937 c 128,-1,37
 604 1028 604 1028 782 1028 c 0,17,18
881 670 m 0,38,39
 881 614 881 614 841.5 561 c 128,-1,40
 802 508 802 508 741 485 c 1,41,42
 759 454 759 454 779 392 c 128,-1,43
 799 330 799 330 799 268 c 0,44,45
 799 234 799 234 791 207 c 1,46,-1
 657 207 l 1,47,48
 666 242 666 242 666 272 c 0,49,50
 666 328 666 328 648.5 375.5 c 128,-1,51
 631 423 631 423 608 446 c 1,52,-1
 553 207 l 1,53,-1
 412 207 l 1,54,-1
 549 801 l 1,55,-1
 727 801 l 2,56,57
 809 801 809 801 845 762.5 c 128,-1,58
 881 724 881 724 881 670 c 0,38,39
629 530 m 1,59,60
 679 530 679 530 710 574 c 128,-1,61
 741 618 741 618 741 666 c 0,62,63
 741 739 741 739 676 739 c 1,64,-1
 629 530 l 1,59,60
EndSplineSet
Validated: 1
EndChar

StartChar: ordfeminine
Encoding: 170 170 324
Width: 677
VWidth: 0
Flags: W
HStem: 348 61<166 694> 516 61<327 507 578 704> 938 61<452 576>
VStem: 229 137<579 838> 508 150<585 698> 709 45<581 602>
LayerCount: 2
Fore
SplineSet
166 410 m 1,0,-1
 709 410 l 1,1,-1
 694 348 l 1,2,-1
 152 348 l 1,3,-1
 166 410 l 1,0,-1
229 686 m 0,4,5
 229 801 229 801 316 900 c 128,-1,6
 403 999 403 999 500 999 c 0,7,8
 538 999 538 999 569.5 996.5 c 128,-1,9
 601 994 601 994 619.5 992 c 128,-1,10
 638 990 638 990 658.5 983.5 c 128,-1,11
 679 977 679 977 685 974.5 c 128,-1,12
 691 972 691 972 708.5 963.5 c 128,-1,13
 726 955 726 955 729 954 c 1,14,-1
 664 672 l 2,15,16
 657 640 657 640 657 625 c 0,17,18
 657 603 657 603 662 590.5 c 128,-1,19
 667 578 667 578 674 578 c 0,20,21
 703 578 703 578 709 602 c 1,22,-1
 754 602 l 1,23,24
 745 562 745 562 689 539 c 128,-1,25
 633 516 633 516 592 516 c 0,26,27
 555 516 555 516 526 549 c 1,28,29
 445 516 445 516 375 516 c 0,30,31
 308 516 308 516 268.5 564 c 128,-1,32
 229 612 229 612 229 686 c 0,4,5
502 938 m 0,33,34
 452 938 452 938 409.5 835.5 c 128,-1,35
 367 733 367 733 367 645 c 0,36,37
 367 578 367 578 406 578 c 0,38,39
 453 578 453 578 508 600 c 1,40,41
 506 614 506 614 510 639 c 1,42,-1
 578 928 l 1,43,44
 545 938 545 938 502 938 c 0,33,34
EndSplineSet
Validated: 1
EndChar

StartChar: ordmasculine
Encoding: 186 186 325
Width: 620
VWidth: 0
Flags: W
HStem: 348 61<166 629> 516 61<403 500> 938 61<472 570>
VStem: 250 141<580 846> 580 139<669 937>
LayerCount: 2
Fore
SplineSet
166 410 m 1,0,-1
 643 410 l 1,1,-1
 629 348 l 1,2,-1
 152 348 l 1,3,-1
 166 410 l 1,0,-1
451 578 m 0,4,5
 479 578 479 578 504 607 c 128,-1,6
 529 636 529 636 545 679 c 128,-1,7
 561 722 561 722 570.5 768.5 c 128,-1,8
 580 815 580 815 580 852 c 0,9,10
 580 938 580 938 535 938 c 0,11,12
 498 938 498 938 468 904.5 c 128,-1,13
 438 871 438 871 422.5 823 c 128,-1,14
 407 775 407 775 399 733 c 128,-1,15
 391 691 391 691 391 664 c 0,16,17
 391 578 391 578 451 578 c 0,4,5
719 831 m 0,18,19
 719 795 719 795 710 755.5 c 128,-1,20
 701 716 701 716 678.5 672.5 c 128,-1,21
 656 629 656 629 623 595 c 128,-1,22
 590 561 590 561 537 538.5 c 128,-1,23
 484 516 484 516 420 516 c 0,24,25
 338 516 338 516 294 560 c 128,-1,26
 250 604 250 604 250 682 c 0,27,28
 250 750 250 750 276.5 810.5 c 128,-1,29
 303 871 303 871 344.5 911.5 c 128,-1,30
 386 952 386 952 436 975.5 c 128,-1,31
 486 999 486 999 532 999 c 0,32,33
 619 999 619 999 669 956 c 128,-1,34
 719 913 719 913 719 831 c 0,18,19
EndSplineSet
Validated: 1
EndChar

StartChar: guilsinglright
Encoding: 8250 8250 326
Width: 630
VWidth: 0
Flags: W
VStem: 131 502
LayerCount: 2
Fore
SplineSet
481 451 m 1,0,-1
 283 778 l 1,1,-1
 379 864 l 1,2,-1
 633 451 l 1,3,-1
 188 39 l 1,4,-1
 131 125 l 1,5,-1
 481 451 l 1,0,-1
EndSplineSet
Validated: 1
EndChar

StartChar: guilsinglleft
Encoding: 8249 8249 327
Width: 630
VWidth: 0
Flags: W
VStem: 207 502
LayerCount: 2
Fore
SplineSet
358 453 m 1,0,-1
 557 125 l 1,1,-1
 459 39 l 1,2,-1
 207 453 l 1,3,-1
 649 864 l 1,4,-1
 709 778 l 1,5,-1
 358 453 l 1,0,-1
EndSplineSet
Validated: 1
EndChar

StartChar: quoteleft
Encoding: 8216 8216 330
Width: 397
VWidth: 0
Flags: W
HStem: 985 367<471 510>
VStem: 319 188<985 1058>
LayerCount: 2
Fore
SplineSet
598 1352 m 1,0,1
 510 1255 510 1255 510 1161 c 0,2,3
 510 1146 510 1146 513 1113 c 128,-1,4
 516 1080 516 1080 516 1059 c 0,5,6
 516 1021 516 1021 508 985 c 1,7,-1
 319 985 l 1,8,9
 334 1049 334 1049 350.5 1102 c 128,-1,10
 367 1155 367 1155 377.5 1185 c 128,-1,11
 388 1215 388 1215 407.5 1248.5 c 128,-1,12
 427 1282 427 1282 432.5 1290.5 c 128,-1,13
 438 1299 438 1299 459.5 1325 c 128,-1,14
 481 1351 481 1351 481 1352 c 1,15,-1
 598 1352 l 1,0,1
EndSplineSet
Validated: 1
EndChar

StartChar: quoteright
Encoding: 8217 8217 331
Width: 397
VWidth: 0
Flags: W
HStem: 985 367<408 447>
VStem: 410 188<1279 1352>
LayerCount: 2
Fore
SplineSet
319 985 m 1,0,1
 408 1081 408 1081 408 1176 c 0,2,3
 408 1190 408 1190 404.5 1224 c 128,-1,4
 401 1258 401 1258 401 1278 c 0,5,6
 401 1312 401 1312 410 1352 c 1,7,-1
 598 1352 l 1,8,9
 583 1288 583 1288 566.5 1235 c 128,-1,10
 550 1182 550 1182 539.5 1152 c 128,-1,11
 529 1122 529 1122 509.5 1088.5 c 128,-1,12
 490 1055 490 1055 484.5 1046.5 c 128,-1,13
 479 1038 479 1038 457.5 1012 c 128,-1,14
 436 986 436 986 436 985 c 1,15,-1
 319 985 l 1,0,1
EndSplineSet
Validated: 1
EndChar

StartChar: bullet
Encoding: 8226 8226 337
Width: 718
VWidth: 0
Flags: W
HStem: 287 483<374 585>
VStem: 199 555<444 611>
LayerCount: 2
Fore
SplineSet
754 584 m 0,0,1
 754 464 754 464 652.5 375.5 c 128,-1,2
 551 287 551 287 412 287 c 0,3,4
 321 287 321 287 260 338.5 c 128,-1,5
 199 390 199 390 199 475 c 0,6,7
 199 528 199 528 222.5 576 c 128,-1,8
 246 624 246 624 282.5 658.5 c 128,-1,9
 319 693 319 693 362.5 719 c 128,-1,10
 406 745 406 745 448.5 757.5 c 128,-1,11
 491 770 491 770 524 770 c 0,12,13
 621 770 621 770 687.5 721 c 128,-1,14
 754 672 754 672 754 584 c 0,0,1
EndSplineSet
Validated: 1
EndChar

StartChar: endash
Encoding: 8211 8211 338
Width: 802
VWidth: 0
Flags: W
HStem: 348 102<186 801>
VStem: 162 664
LayerCount: 2
Fore
SplineSet
186 451 m 1,0,-1
 825 451 l 1,1,-1
 801 348 l 1,2,-1
 162 348 l 1,3,-1
 186 451 l 1,0,-1
EndSplineSet
Validated: 1
EndChar

StartChar: emdash
Encoding: 8212 8212 339
Width: 1110
VWidth: 0
Flags: W
HStem: 348 102<186 1108>
LayerCount: 2
Fore
SplineSet
186 451 m 1,0,-1
 1133 451 l 1,1,-1
 1108 348 l 1,2,-1
 162 348 l 1,3,-1
 186 451 l 1,0,-1
EndSplineSet
Validated: 1
EndChar

StartChar: currency
Encoding: 164 164 341
Width: 724
VWidth: 0
Flags: W
HStem: 248 96<392 511> 561 96<423 542>
VStem: 215 176<344 535> 543 176<371 561>
LayerCount: 2
Fore
SplineSet
391 395 m 0,0,1
 391 344 391 344 442 344 c 0,2,3
 468 344 468 344 487.5 360.5 c 128,-1,4
 507 377 507 377 517 398.5 c 128,-1,5
 527 420 527 420 533.5 446.5 c 128,-1,6
 540 473 540 473 541.5 488 c 128,-1,7
 543 503 543 503 543 510 c 0,8,9
 543 561 543 561 492 561 c 0,10,11
 466 561 466 561 446.5 544.5 c 128,-1,12
 427 528 427 528 417 506.5 c 128,-1,13
 407 485 407 485 400.5 458.5 c 128,-1,14
 394 432 394 432 392.5 417 c 128,-1,15
 391 402 391 402 391 395 c 0,0,1
719 500 m 0,16,17
 719 398 719 398 637 326 c 1,18,-1
 698 244 l 1,19,-1
 610 172 l 1,20,-1
 537 268 l 1,21,22
 484 248 484 248 420 248 c 0,23,24
 358 248 358 248 311 268 c 1,25,-1
 193 172 l 1,26,-1
 137 244 l 1,27,-1
 240 326 l 1,28,29
 215 357 215 357 215 406 c 0,30,31
 215 505 215 505 297 580 c 1,32,-1
 236 662 l 1,33,-1
 324 733 l 1,34,-1
 397 637 l 1,35,36
 450 657 450 657 514 657 c 0,37,38
 576 657 576 657 623 637 c 1,39,-1
 741 733 l 1,40,-1
 797 662 l 1,41,-1
 694 580 l 1,42,43
 719 549 719 549 719 500 c 0,16,17
EndSplineSet
Validated: 1
EndChar

StartChar: periodcentered
Encoding: 183 183 342
Width: 272
VWidth: 0
Flags: W
HStem: 414 170<186 317>
VStem: 147 209
LayerCount: 2
Fore
SplineSet
186 584 m 1,0,-1
 356 584 l 1,1,-1
 317 414 l 1,2,-1
 147 414 l 1,3,-1
 186 584 l 1,0,-1
EndSplineSet
Validated: 1
EndChar

StartChar: logicalnot
Encoding: 172 172 343
Width: 696
VWidth: 0
Flags: W
HStem: 195 256<520 659> 348 102<186 520>
VStem: 162 557
LayerCount: 2
Fore
SplineSet
186 451 m 1,0,-1
 719 451 l 1,1,-1
 659 195 l 1,2,-1
 485 195 l 1,3,-1
 520 348 l 1,4,-1
 162 348 l 1,5,-1
 186 451 l 1,0,-1
EndSplineSet
Validated: 1
EndChar

StartChar: plusminus
Encoding: 177 177 344
Width: 856
VWidth: 0
Flags: W
HStem: 53 102<119 786> 453 102<211 436 653 879>
LayerCount: 2
Fore
SplineSet
119 156 m 1,0,-1
 811 156 l 1,1,-1
 786 53 l 1,2,-1
 94 53 l 1,3,-1
 119 156 l 1,0,-1
629 453 m 1,4,-1
 584 260 l 1,5,-1
 391 260 l 1,6,-1
 436 453 l 1,7,-1
 186 453 l 1,8,-1
 211 555 l 1,9,-1
 461 555 l 1,10,-1
 504 748 l 1,11,-1
 696 748 l 1,12,-1
 653 555 l 1,13,-1
 903 555 l 1,14,-1
 879 453 l 1,15,-1
 629 453 l 1,4,-1
EndSplineSet
Validated: 1
EndChar

StartChar: uni00B5
Encoding: 181 181 345
Width: 972
VWidth: 0
Flags: W
HStem: -20 102<425 640> 0 43G<627 892> 860 41G<281 547 826 1092>
LayerCount: 2
Fore
SplineSet
653 119 m 1,0,-1
 836 901 l 1,1,-1
 1092 901 l 1,2,-1
 883 0 l 1,3,-1
 627 0 l 1,4,-1
 631 14 l 1,5,6
 556 -20 556 -20 475 -20 c 0,7,8
 397 -20 397 -20 338 -4 c 1,9,-1
 270 -293 l 1,10,-1
 14 -293 l 1,11,-1
 291 901 l 1,12,-1
 547 901 l 1,13,-1
 446 467 l 1,14,15
 406 300 406 300 406 213 c 0,16,17
 406 143 406 143 434.5 112.5 c 128,-1,18
 463 82 463 82 528 82 c 0,19,20
 597 82 597 82 653 119 c 1,0,-1
EndSplineSet
Validated: 1
EndChar

StartChar: divide
Encoding: 247 247 346
Width: 710
VWidth: 0
Flags: W
HStem: 96 170<315 467> 348 102<186 709> 532 170<416 567>
VStem: 162 571
CounterMasks: 1 e0
LayerCount: 2
Fore
SplineSet
315 266 m 1,0,-1
 506 266 l 1,1,-1
 467 96 l 1,2,-1
 276 96 l 1,3,-1
 315 266 l 1,0,-1
416 702 m 1,4,-1
 606 702 l 1,5,-1
 567 532 l 1,6,-1
 377 532 l 1,7,-1
 416 702 l 1,4,-1
186 451 m 1,8,-1
 733 451 l 1,9,-1
 709 348 l 1,10,-1
 162 348 l 1,11,-1
 186 451 l 1,8,-1
EndSplineSet
Validated: 1
EndChar

StartChar: paragraph
Encoding: 182 182 347
Width: 995
VWidth: 0
Flags: W
HStem: 0 43G<457 650 711 904> 1331 102<948 1018>
VStem: 313 266<818 1140>
LayerCount: 2
Fore
SplineSet
313 963 m 0,0,1
 313 1041 313 1041 349 1122 c 128,-1,2
 385 1203 385 1203 451 1273.5 c 128,-1,3
 517 1344 517 1344 624 1389 c 128,-1,4
 731 1434 731 1434 858 1434 c 2,5,-1
 1227 1434 l 1,6,-1
 895 0 l 1,7,-1
 711 0 l 1,8,-1
 1018 1331 l 1,9,-1
 948 1331 l 1,10,-1
 641 0 l 1,11,-1
 457 0 l 1,12,-1
 608 659 l 1,13,14
 529 668 529 668 470 697.5 c 128,-1,15
 411 727 411 727 378 770 c 128,-1,16
 345 813 345 813 329 861.5 c 128,-1,17
 313 910 313 910 313 963 c 0,0,1
754 1290 m 1,18,19
 675 1241 675 1241 627.5 1147.5 c 128,-1,20
 580 1054 580 1054 580 961 c 0,21,22
 580 849 580 849 641 799 c 1,23,-1
 754 1290 l 1,18,19
EndSplineSet
Validated: 1
EndChar

StartChar: uni00B9
Encoding: 185 185 348
Width: 366
VWidth: 0
Flags: W
HStem: 1282 66<393 436>
VStem: 313 287
LayerCount: 2
Fore
SplineSet
600 1366 m 1,0,-1
 459 754 l 1,1,-1
 313 754 l 1,2,-1
 436 1288 l 1,3,-1
 379 1282 l 1,4,-1
 393 1348 l 1,5,-1
 600 1366 l 1,0,-1
EndSplineSet
Validated: 1
EndChar

StartChar: uni00B2
Encoding: 178 178 349
Width: 559
VWidth: 0
Flags: W
HStem: 752 66<418 651> 1292 66<496 652>
VStem: 608 141<1109 1292>
LayerCount: 2
Fore
SplineSet
258 752 m 1,0,1
 272 812 272 812 299 860 c 128,-1,2
 326 908 326 908 357.5 937.5 c 128,-1,3
 389 967 389 967 424 992.5 c 128,-1,4
 459 1018 459 1018 491.5 1040.5 c 128,-1,5
 524 1063 524 1063 550.5 1088.5 c 128,-1,6
 577 1114 577 1114 592.5 1152 c 128,-1,7
 608 1190 608 1190 608 1239 c 0,8,9
 608 1292 608 1292 578 1292 c 0,10,11
 545 1292 545 1292 521 1278 c 128,-1,12
 497 1264 497 1264 487 1250 c 128,-1,13
 477 1236 477 1236 459 1204 c 1,14,-1
 367 1235 l 1,15,16
 457 1358 457 1358 610 1358 c 0,17,18
 673 1358 673 1358 711.5 1320.5 c 128,-1,19
 750 1283 750 1283 750 1221 c 0,20,21
 750 1161 750 1161 720 1112.5 c 128,-1,22
 690 1064 690 1064 645.5 1031 c 128,-1,23
 601 998 601 998 555 968 c 128,-1,24
 509 938 509 938 469.5 899.5 c 128,-1,25
 430 861 430 861 418 817 c 1,26,-1
 666 817 l 1,27,-1
 651 752 l 1,28,-1
 258 752 l 1,0,1
EndSplineSet
Validated: 1
EndChar

StartChar: uni00B3
Encoding: 179 179 350
Width: 583
VWidth: 0
Flags: W
HStem: 741 68<403 536> 1034 66<492 566> 1290 68<511 621>
VStem: 283 104<817 871> 578 141<839 1026> 623 137<1125 1289>
LayerCount: 2
Fore
SplineSet
473 809 m 0,0,1
 502 809 502 809 524.5 828 c 128,-1,2
 547 847 547 847 557.5 874 c 128,-1,3
 568 901 568 901 573 923.5 c 128,-1,4
 578 946 578 946 578 961 c 0,5,6
 578 1034 578 1034 477 1034 c 1,7,-1
 492 1100 l 1,8,9
 623 1100 623 1100 623 1241 c 0,10,11
 623 1290 623 1290 584 1290 c 0,12,13
 568 1290 568 1290 555 1286.5 c 128,-1,14
 542 1283 542 1283 534 1279.5 c 128,-1,15
 526 1276 526 1276 516 1265 c 128,-1,16
 506 1254 506 1254 502.5 1249 c 128,-1,17
 499 1244 499 1244 488.5 1226.5 c 128,-1,18
 478 1209 478 1209 475 1204 c 1,19,-1
 385 1235 l 1,20,21
 427 1293 427 1293 480.5 1325.5 c 128,-1,22
 534 1358 534 1358 616 1358 c 0,23,24
 680 1358 680 1358 720 1318 c 128,-1,25
 760 1278 760 1278 760 1223 c 0,26,27
 760 1122 760 1122 651 1067 c 1,28,29
 719 1027 719 1027 719 958 c 0,30,31
 719 872 719 872 646.5 806.5 c 128,-1,32
 574 741 574 741 475 741 c 0,33,34
 315 741 315 741 283 866 c 1,35,-1
 387 897 l 1,36,37
 390 876 390 876 393 865 c 128,-1,38
 396 854 396 854 404 838.5 c 128,-1,39
 412 823 412 823 429.5 816 c 128,-1,40
 447 809 447 809 473 809 c 0,0,1
EndSplineSet
Validated: 1
EndChar

StartChar: threequarters
Encoding: 190 190 351
Width: 1081
VWidth: 0
Flags: W
HStem: 0 43G<731 886> 131 66<610 762 922 969> 741 68<403 536> 1034 66<492 567> 1290 68<511 621>
VStem: 283 104<817 871> 580 139<839 1026> 623 137<1125 1289>
LayerCount: 2
Fore
SplineSet
473 809 m 0,0,1
 502 809 502 809 524.5 828 c 128,-1,2
 547 847 547 847 558 874.5 c 128,-1,3
 569 902 569 902 574.5 925 c 128,-1,4
 580 948 580 948 580 963 c 0,5,6
 580 1034 580 1034 477 1034 c 1,7,-1
 492 1100 l 1,8,9
 623 1100 623 1100 623 1241 c 0,10,11
 623 1290 623 1290 584 1290 c 0,12,13
 568 1290 568 1290 555 1286.5 c 128,-1,14
 542 1283 542 1283 534 1279.5 c 128,-1,15
 526 1276 526 1276 516 1265 c 128,-1,16
 506 1254 506 1254 502.5 1249 c 128,-1,17
 499 1244 499 1244 488.5 1226.5 c 128,-1,18
 478 1209 478 1209 475 1204 c 1,19,-1
 385 1235 l 1,20,21
 427 1293 427 1293 480.5 1325.5 c 128,-1,22
 534 1358 534 1358 616 1358 c 0,23,24
 680 1358 680 1358 720 1318 c 128,-1,25
 760 1278 760 1278 760 1223 c 0,26,27
 760 1122 760 1122 651 1067 c 1,28,29
 719 1027 719 1027 719 958 c 0,30,31
 719 872 719 872 646.5 806.5 c 128,-1,32
 574 741 574 741 475 741 c 0,33,34
 315 741 315 741 283 866 c 1,35,-1
 387 897 l 1,36,37
 390 876 390 876 393 865 c 128,-1,38
 396 854 396 854 404 838.5 c 128,-1,39
 412 823 412 823 429.5 816 c 128,-1,40
 447 809 447 809 473 809 c 0,0,1
143 264 m 1,41,-1
 1083 1047 l 1,42,-1
 1241 1047 l 1,43,-1
 301 264 l 1,44,-1
 143 264 l 1,41,-1
512 174 m 1,45,-1
 872 606 l 1,46,-1
 1016 606 l 1,47,-1
 922 197 l 1,48,-1
 983 197 l 1,49,-1
 969 131 l 1,50,-1
 907 131 l 1,51,-1
 877 0 l 1,52,-1
 731 0 l 1,53,-1
 762 131 l 1,54,-1
 502 131 l 1,55,-1
 512 174 l 1,45,-1
840 473 m 1,56,-1
 610 197 l 1,57,-1
 776 197 l 1,58,-1
 840 473 l 1,56,-1
EndSplineSet
Validated: 1
EndChar

StartChar: onequarter
Encoding: 188 188 352
Width: 1081
VWidth: 0
Flags: W
HStem: 0 43G<731 886> 131 66<610 762 922 969> 1282 66<526 569>
LayerCount: 2
Fore
SplineSet
733 1366 m 1,0,-1
 592 754 l 1,1,-1
 446 754 l 1,2,-1
 569 1288 l 1,3,-1
 512 1282 l 1,4,-1
 526 1348 l 1,5,-1
 733 1366 l 1,0,-1
143 264 m 1,6,-1
 1083 1047 l 1,7,-1
 1241 1047 l 1,8,-1
 301 264 l 1,9,-1
 143 264 l 1,6,-1
512 174 m 1,10,-1
 872 606 l 1,11,-1
 1016 606 l 1,12,-1
 922 197 l 1,13,-1
 983 197 l 1,14,-1
 969 131 l 1,15,-1
 907 131 l 1,16,-1
 877 0 l 1,17,-1
 731 0 l 1,18,-1
 762 131 l 1,19,-1
 502 131 l 1,20,-1
 512 174 l 1,10,-1
840 473 m 1,21,-1
 610 197 l 1,22,-1
 776 197 l 1,23,-1
 840 473 l 1,21,-1
EndSplineSet
Validated: 1
EndChar

StartChar: onehalf
Encoding: 189 189 353
Width: 1085
VWidth: 0
Flags: W
HStem: 0 66<770 1004> 541 66<848 1005> 1282 66<526 569>
VStem: 961 141<355 540>
LayerCount: 2
Fore
SplineSet
610 0 m 1,0,1
 624 60 624 60 651.5 108 c 128,-1,2
 679 156 679 156 710.5 185.5 c 128,-1,3
 742 215 742 215 777.5 240.5 c 128,-1,4
 813 266 813 266 845 288.5 c 128,-1,5
 877 311 877 311 903.5 336.5 c 128,-1,6
 930 362 930 362 945.5 400 c 128,-1,7
 961 438 961 438 961 487 c 0,8,9
 961 513 961 513 952 527 c 128,-1,10
 943 541 943 541 930 541 c 0,11,12
 897 541 897 541 873 527 c 128,-1,13
 849 513 849 513 839 499 c 128,-1,14
 829 485 829 485 811 453 c 1,15,-1
 719 483 l 1,16,17
 809 606 809 606 963 606 c 0,18,19
 1026 606 1026 606 1064 568.5 c 128,-1,20
 1102 531 1102 531 1102 469 c 0,21,22
 1102 409 1102 409 1072 360.5 c 128,-1,23
 1042 312 1042 312 997.5 279 c 128,-1,24
 953 246 953 246 907 216.5 c 128,-1,25
 861 187 861 187 821.5 148.5 c 128,-1,26
 782 110 782 110 770 66 c 1,27,-1
 1018 66 l 1,28,-1
 1004 0 l 1,29,-1
 610 0 l 1,0,1
733 1366 m 1,30,-1
 592 754 l 1,31,-1
 446 754 l 1,32,-1
 569 1288 l 1,33,-1
 512 1282 l 1,34,-1
 526 1348 l 1,35,-1
 733 1366 l 1,30,-1
143 264 m 1,36,-1
 1083 1047 l 1,37,-1
 1241 1047 l 1,38,-1
 301 264 l 1,39,-1
 143 264 l 1,36,-1
EndSplineSet
Validated: 1
EndChar

StartChar: afii00208
Encoding: 8213 8213 354
Width: 1384
VWidth: 0
Flags: W
HStem: 348 102<186 1382>
LayerCount: 2
Fore
SplineSet
186 451 m 1,0,-1
 1407 451 l 1,1,-1
 1382 348 l 1,2,-1
 162 348 l 1,3,-1
 186 451 l 1,0,-1
EndSplineSet
Validated: 1
EndChar

StartChar: longs
Encoding: 383 383 359
Width: 731
VWidth: 0
Flags: W
HStem: 0 43G<92 358> 1270 102<684 879>
LayerCount: 2
Fore
SplineSet
92 0 m 1,0,-1
 291 864 l 2,1,2
 317 974 317 974 338.5 1044.5 c 128,-1,3
 360 1115 360 1115 390.5 1177 c 128,-1,4
 421 1239 421 1239 455 1272.5 c 128,-1,5
 489 1306 489 1306 542.5 1330.5 c 128,-1,6
 596 1355 596 1355 661 1363.5 c 128,-1,7
 726 1372 726 1372 819 1372 c 0,8,9
 843 1372 843 1372 863.5 1370 c 128,-1,10
 884 1368 884 1368 904.5 1362 c 128,-1,11
 925 1356 925 1356 938.5 1351.5 c 128,-1,12
 952 1347 952 1347 972.5 1336 c 128,-1,13
 993 1325 993 1325 1002.5 1320 c 128,-1,14
 1012 1315 1012 1315 1036 1300 c 128,-1,15
 1060 1285 1060 1285 1069 1280 c 1,16,-1
 942 1174 l 1,17,18
 936 1179 936 1179 918 1194.5 c 128,-1,19
 900 1210 900 1210 896 1213.5 c 128,-1,20
 892 1217 892 1217 878 1228 c 128,-1,21
 864 1239 864 1239 859 1241.5 c 128,-1,22
 854 1244 854 1244 842.5 1251.5 c 128,-1,23
 831 1259 831 1259 824.5 1260.5 c 128,-1,24
 818 1262 818 1262 807 1265.5 c 128,-1,25
 796 1269 796 1269 786 1269.5 c 128,-1,26
 776 1270 776 1270 764 1270 c 0,27,28
 641 1270 641 1270 559 909 c 1,29,-1
 348 0 l 1,30,-1
 92 0 l 1,0,-1
EndSplineSet
Validated: 1
EndChar

StartChar: uniFB00
Encoding: 64256 64256 361
Width: 1282
VWidth: 0
Flags: W
HStem: -276 102<-238 -120 427 546> 799 102<51 117 397 782 1063 1184> 1270 102<489 645 1155 1310>
VStem: -313 74<-170 -125> 352 74<-170 -125>
LayerCount: 2
Fore
SplineSet
373 799 m 1,0,-1
 178 -43 l 2,1,2
 153 -147 153 -147 63.5 -211.5 c 128,-1,3
 -26 -276 -26 -276 -180 -276 c 0,4,5
 -237 -276 -237 -276 -275 -239.5 c 128,-1,6
 -313 -203 -313 -203 -313 -152 c 0,7,8
 -313 -141 -313 -141 -309 -125 c 1,9,-1
 -240 -125 l 1,10,11
 -240 -174 -240 -174 -186 -174 c 0,12,13
 -141 -174 -141 -174 -113 -123.5 c 128,-1,14
 -85 -73 -85 -73 -63 20 c 2,15,-1
 117 799 l 1,16,-1
 -4 799 l 1,17,-1
 51 901 l 1,18,-1
 141 901 l 1,19,-1
 186 1096 l 2,20,21
 213 1217 213 1217 319 1294.5 c 128,-1,22
 425 1372 425 1372 551 1372 c 0,23,24
 635 1372 635 1372 690 1350 c 1,25,-1
 623 1239 l 1,26,27
 604 1270 604 1270 557 1270 c 0,28,29
 514 1270 514 1270 487 1223 c 128,-1,30
 460 1176 460 1176 430 1042 c 1,31,-1
 397 901 l 1,32,-1
 807 901 l 1,33,-1
 852 1096 l 2,34,35
 879 1217 879 1217 985 1294.5 c 128,-1,36
 1091 1372 1091 1372 1217 1372 c 0,37,38
 1301 1372 1301 1372 1356 1350 c 1,39,-1
 1288 1239 l 1,40,41
 1269 1270 1269 1270 1223 1270 c 0,42,43
 1180 1270 1180 1270 1153 1223 c 128,-1,44
 1126 1176 1126 1176 1096 1042 c 1,45,-1
 1063 901 l 1,46,-1
 1208 901 l 1,47,-1
 1184 799 l 1,48,-1
 1038 799 l 1,49,-1
 844 -43 l 1,50,51
 819 -147 819 -147 729 -211.5 c 128,-1,52
 639 -276 639 -276 485 -276 c 0,53,54
 428 -276 428 -276 390 -239.5 c 128,-1,55
 352 -203 352 -203 352 -152 c 0,56,57
 352 -141 352 -141 356 -125 c 1,58,-1
 426 -125 l 1,59,60
 426 -174 426 -174 479 -174 c 0,61,62
 524 -174 524 -174 552 -123.5 c 128,-1,63
 580 -73 580 -73 602 20 c 2,64,-1
 782 799 l 1,65,-1
 373 799 l 1,0,-1
EndSplineSet
Validated: 1
LCarets2: 1 0 
Ligature2: "'liga' Standard Ligatures in Latin lookup 0-1" f f
EndChar

StartChar: fi
Encoding: 64257 64257 362
Width: 1286
VWidth: 0
Flags: W
HStem: -276 102<36 155> -20 102<999 1207> 799 102<326 391 672 971> 1065 164<1090 1266> 1270 102<764 919>
VStem: -39 74<-170 -125> 827 254<83 366> 1214 70<96 131>
LayerCount: 2
Fore
SplineSet
1090 1229 m 1,0,-1
 1305 1229 l 1,1,-1
 1266 1065 l 1,2,-1
 1051 1065 l 1,3,-1
 1090 1229 l 1,0,-1
1104 276 m 2,4,5
 1081 178 1081 178 1081 143 c 0,6,7
 1081 82 1081 82 1137 82 c 0,8,9
 1161 82 1161 82 1183 98 c 128,-1,10
 1205 114 1205 114 1214 131 c 1,11,-1
 1284 131 l 1,12,13
 1270 73 1270 73 1210 26.5 c 128,-1,14
 1150 -20 1150 -20 1085 -20 c 0,15,16
 962 -20 962 -20 894.5 31.5 c 128,-1,17
 827 83 827 83 827 164 c 0,18,19
 827 185 827 185 834 213 c 2,20,-1
 971 799 l 1,21,-1
 647 799 l 1,22,-1
 453 -43 l 1,23,24
 428 -147 428 -147 338 -211.5 c 128,-1,25
 248 -276 248 -276 94 -276 c 0,26,27
 37 -276 37 -276 -1 -239.5 c 128,-1,28
 -39 -203 -39 -203 -39 -152 c 0,29,30
 -39 -141 -39 -141 -35 -125 c 1,31,-1
 35 -125 l 1,32,33
 35 -174 35 -174 88 -174 c 0,34,35
 133 -174 133 -174 161 -123.5 c 128,-1,36
 189 -73 189 -73 211 20 c 2,37,-1
 391 799 l 1,38,-1
 270 799 l 1,39,-1
 326 901 l 1,40,-1
 416 901 l 1,41,-1
 461 1096 l 2,42,43
 488 1217 488 1217 593.5 1294.5 c 128,-1,44
 699 1372 699 1372 825 1372 c 0,45,46
 910 1372 910 1372 965 1350 c 1,47,-1
 897 1239 l 1,48,49
 878 1270 878 1270 831 1270 c 0,50,51
 788 1270 788 1270 762 1223 c 128,-1,52
 736 1176 736 1176 705 1042 c 2,53,-1
 672 901 l 1,54,-1
 1249 901 l 1,55,-1
 1104 276 l 2,4,5
EndSplineSet
Validated: 1
LCarets2: 1 0 
Ligature2: "'liga' Standard Ligatures in Latin lookup 0-1" f i
EndChar

StartChar: fl
Encoding: 64258 64258 363
Width: 1273
VWidth: 0
Flags: W
HStem: -276 102<36 155> -20 102<999 1214> 799 102<326 391 672 793> 1270 102<799 1074>
VStem: -39 74<-170 -125> 834 258<84 375> 1221 70<93 131>
LayerCount: 2
Fore
SplineSet
647 799 m 1,0,-1
 453 -43 l 1,1,2
 428 -147 428 -147 338 -211.5 c 128,-1,3
 248 -276 248 -276 94 -276 c 0,4,5
 37 -276 37 -276 -1 -239.5 c 128,-1,6
 -39 -203 -39 -203 -39 -152 c 0,7,8
 -39 -141 -39 -141 -35 -125 c 1,9,-1
 35 -125 l 1,10,11
 35 -174 35 -174 88 -174 c 0,12,13
 133 -174 133 -174 161 -123.5 c 128,-1,14
 189 -73 189 -73 211 20 c 2,15,-1
 391 799 l 1,16,-1
 270 799 l 1,17,-1
 326 901 l 1,18,-1
 416 901 l 1,19,-1
 461 1096 l 1,20,21
 523 1372 523 1372 930 1372 c 0,22,23
 1040 1372 1040 1372 1102 1352 c 1,24,-1
 1358 1352 l 1,25,-1
 1110 276 l 2,26,27
 1092 195 1092 195 1092 156 c 0,28,29
 1092 82 1092 82 1143 82 c 0,30,31
 1199 82 1199 82 1221 131 c 1,32,-1
 1290 131 l 1,33,34
 1276 73 1276 73 1216.5 26.5 c 128,-1,35
 1157 -20 1157 -20 1092 -20 c 0,36,37
 961 -20 961 -20 897.5 28 c 128,-1,38
 834 76 834 76 834 156 c 0,39,40
 834 183 834 183 840 213 c 2,41,-1
 1075 1237 l 1,42,43
 1015 1270 1015 1270 936 1270 c 0,44,45
 846 1270 846 1270 790 1220 c 128,-1,46
 734 1170 734 1170 705 1042 c 2,47,-1
 672 901 l 1,48,-1
 817 901 l 1,49,-1
 793 799 l 1,50,-1
 647 799 l 1,0,-1
EndSplineSet
Validated: 1
LCarets2: 1 0 
Ligature2: "'liga' Standard Ligatures in Latin lookup 0-1" f l
EndChar

StartChar: uniFB03
Encoding: 64259 64259 364
Width: 1931
VWidth: 0
Flags: W
HStem: -276 102<36 155 702 821> -20 102<1665 1873> 799 102<326 391 672 1057 1337 1636> 1065 164<1755 1931> 1270 102<764 919 1430 1585>
VStem: -39 74<-170 -125> 627 74<-170 -125> 1493 254<83 366> 1880 70<96 131>
LayerCount: 2
Fore
SplineSet
647 799 m 1,0,-1
 453 -43 l 1,1,2
 428 -147 428 -147 338 -211.5 c 128,-1,3
 248 -276 248 -276 94 -276 c 0,4,5
 37 -276 37 -276 -1 -239.5 c 128,-1,6
 -39 -203 -39 -203 -39 -152 c 0,7,8
 -39 -141 -39 -141 -35 -125 c 1,9,-1
 35 -125 l 1,10,11
 35 -174 35 -174 88 -174 c 0,12,13
 133 -174 133 -174 161 -123.5 c 128,-1,14
 189 -73 189 -73 211 20 c 2,15,-1
 391 799 l 1,16,-1
 270 799 l 1,17,-1
 326 901 l 1,18,-1
 416 901 l 1,19,-1
 461 1096 l 2,20,21
 488 1217 488 1217 593.5 1294.5 c 128,-1,22
 699 1372 699 1372 825 1372 c 0,23,24
 910 1372 910 1372 965 1350 c 1,25,-1
 897 1239 l 1,26,27
 878 1270 878 1270 831 1270 c 0,28,29
 788 1270 788 1270 762 1223 c 128,-1,30
 736 1176 736 1176 705 1042 c 2,31,-1
 672 901 l 1,32,-1
 1081 901 l 1,33,-1
 1126 1096 l 2,34,35
 1153 1217 1153 1217 1259 1294.5 c 128,-1,36
 1365 1372 1365 1372 1491 1372 c 0,37,38
 1575 1372 1575 1372 1630 1350 c 1,39,-1
 1563 1239 l 1,40,41
 1544 1270 1544 1270 1497 1270 c 0,42,43
 1454 1270 1454 1270 1427 1223 c 128,-1,44
 1400 1176 1400 1176 1370 1042 c 1,45,-1
 1337 901 l 1,46,-1
 1915 901 l 1,47,-1
 1769 276 l 2,48,49
 1747 182 1747 182 1747 143 c 0,50,51
 1747 82 1747 82 1802 82 c 0,52,53
 1826 82 1826 82 1848.5 98 c 128,-1,54
 1871 114 1871 114 1880 131 c 1,55,-1
 1950 131 l 1,56,57
 1936 73 1936 73 1876 26.5 c 128,-1,58
 1816 -20 1816 -20 1751 -20 c 0,59,60
 1628 -20 1628 -20 1560.5 31.5 c 128,-1,61
 1493 83 1493 83 1493 164 c 0,62,63
 1493 189 1493 189 1499 213 c 2,64,-1
 1636 799 l 1,65,-1
 1313 799 l 1,66,-1
 1118 -43 l 2,67,68
 1093 -147 1093 -147 1003.5 -211.5 c 128,-1,69
 914 -276 914 -276 760 -276 c 0,70,71
 703 -276 703 -276 665 -239.5 c 128,-1,72
 627 -203 627 -203 627 -152 c 0,73,74
 627 -141 627 -141 631 -125 c 1,75,-1
 700 -125 l 1,76,77
 700 -174 700 -174 754 -174 c 0,78,79
 799 -174 799 -174 827 -123.5 c 128,-1,80
 855 -73 855 -73 877 20 c 2,81,-1
 1057 799 l 1,82,-1
 647 799 l 1,0,-1
1755 1229 m 1,83,-1
 1970 1229 l 1,84,-1
 1931 1065 l 1,85,-1
 1716 1065 l 1,86,-1
 1755 1229 l 1,83,-1
EndSplineSet
Validated: 1
LCarets2: 2 0 0 
Ligature2: "'liga' Standard Ligatures in Latin lookup 0-1" f f i
EndChar

StartChar: uniFB04
Encoding: 64260 64260 365
Width: 1939
VWidth: 0
Flags: W
HStem: -276 102<36 155 702 821> -20 102<1665 1879> 799 102<326 391 672 1057 1337 1458> 1270 102<764 919 1464 1740>
VStem: -39 74<-170 -125> 627 74<-170 -125> 1499 258<84 375> 1886 70<93 131>
LayerCount: 2
Fore
SplineSet
1313 799 m 1,0,-1
 1118 -43 l 2,1,2
 1093 -147 1093 -147 1003.5 -211.5 c 128,-1,3
 914 -276 914 -276 760 -276 c 0,4,5
 703 -276 703 -276 665 -239.5 c 128,-1,6
 627 -203 627 -203 627 -152 c 0,7,8
 627 -141 627 -141 631 -125 c 1,9,-1
 700 -125 l 1,10,11
 700 -174 700 -174 754 -174 c 0,12,13
 799 -174 799 -174 827 -123.5 c 128,-1,14
 855 -73 855 -73 877 20 c 2,15,-1
 1057 799 l 1,16,-1
 647 799 l 1,17,-1
 453 -43 l 1,18,19
 428 -147 428 -147 338 -211.5 c 128,-1,20
 248 -276 248 -276 94 -276 c 0,21,22
 37 -276 37 -276 -1 -239.5 c 128,-1,23
 -39 -203 -39 -203 -39 -152 c 0,24,25
 -39 -141 -39 -141 -35 -125 c 1,26,-1
 35 -125 l 1,27,28
 35 -174 35 -174 88 -174 c 0,29,30
 133 -174 133 -174 161 -123.5 c 128,-1,31
 189 -73 189 -73 211 20 c 2,32,-1
 391 799 l 1,33,-1
 270 799 l 1,34,-1
 326 901 l 1,35,-1
 416 901 l 1,36,-1
 461 1096 l 2,37,38
 488 1217 488 1217 593.5 1294.5 c 128,-1,39
 699 1372 699 1372 825 1372 c 0,40,41
 910 1372 910 1372 965 1350 c 1,42,-1
 897 1239 l 1,43,44
 878 1270 878 1270 831 1270 c 0,45,46
 788 1270 788 1270 762 1223 c 128,-1,47
 736 1176 736 1176 705 1042 c 2,48,-1
 672 901 l 1,49,-1
 1081 901 l 1,50,-1
 1126 1096 l 1,51,52
 1188 1372 1188 1372 1595 1372 c 0,53,54
 1705 1372 1705 1372 1767 1352 c 1,55,-1
 2023 1352 l 1,56,-1
 1776 276 l 2,57,58
 1757 191 1757 191 1757 156 c 0,59,60
 1757 82 1757 82 1808 82 c 0,61,62
 1864 82 1864 82 1886 131 c 1,63,-1
 1956 131 l 1,64,65
 1942 73 1942 73 1882 26.5 c 128,-1,66
 1822 -20 1822 -20 1757 -20 c 0,67,68
 1626 -20 1626 -20 1562.5 28 c 128,-1,69
 1499 76 1499 76 1499 156 c 0,70,71
 1499 183 1499 183 1505 213 c 2,72,-1
 1741 1237 l 1,73,74
 1681 1270 1681 1270 1602 1270 c 0,75,76
 1512 1270 1512 1270 1455.5 1220 c 128,-1,77
 1399 1170 1399 1170 1370 1042 c 2,78,-1
 1337 901 l 1,79,-1
 1483 901 l 1,80,-1
 1458 799 l 1,81,-1
 1313 799 l 1,0,-1
EndSplineSet
Validated: 1
LCarets2: 2 565 946 
Ligature2: "'liga' Standard Ligatures in Latin lookup 0-1" f f l
EndChar

StartChar: degree
Encoding: 176 176 370
Width: 577
VWidth: 0
Flags: W
HStem: 1010 96<478 633> 1286 96<499 652>
VStem: 373 100<1111 1260> 657 98<1132 1281>
LayerCount: 2
Fore
SplineSet
586 1286 m 0,0,1
 546 1286 546 1286 509.5 1254.5 c 128,-1,2
 473 1223 473 1223 473 1176 c 0,3,4
 473 1146 473 1146 493 1126 c 128,-1,5
 513 1106 513 1106 545 1106 c 0,6,7
 585 1106 585 1106 621 1138 c 128,-1,8
 657 1170 657 1170 657 1217 c 0,9,10
 657 1247 657 1247 637.5 1266.5 c 128,-1,11
 618 1286 618 1286 586 1286 c 0,0,1
373 1155 m 0,12,13
 373 1242 373 1242 445.5 1312 c 128,-1,14
 518 1382 518 1382 608 1382 c 0,15,16
 674 1382 674 1382 715 1341 c 128,-1,17
 756 1300 756 1300 756 1237 c 0,18,19
 756 1150 756 1150 683 1080 c 128,-1,20
 610 1010 610 1010 522 1010 c 0,21,22
 456 1010 456 1010 414.5 1051 c 128,-1,23
 373 1092 373 1092 373 1155 c 0,12,13
EndSplineSet
Validated: 1
EndChar

StartChar: uni01EA
Encoding: 490 490 378
Width: 1370
VWidth: 0
Flags: W
HStem: -319 37<576 655> -20 102<571 843> 1352 102<822 1122>
VStem: 199 258<251 749> 385 152<-267 -104> 1235 256<698 1177>
LayerCount: 2
Fore
SplineSet
694 82 m 0,0,1
 799 82 799 82 890.5 150 c 128,-1,2
 982 218 982 218 1043.5 322.5 c 128,-1,3
 1105 427 1105 427 1149.5 554.5 c 128,-1,4
 1194 682 1194 682 1214.5 799.5 c 128,-1,5
 1235 917 1235 917 1235 1012 c 0,6,7
 1235 1185 1235 1185 1165 1268.5 c 128,-1,8
 1095 1352 1095 1352 969 1352 c 0,9,10
 875 1352 875 1352 790.5 1287 c 128,-1,11
 706 1222 706 1222 646.5 1120 c 128,-1,12
 587 1018 587 1018 543 894.5 c 128,-1,13
 499 771 499 771 478 653 c 128,-1,14
 457 535 457 535 457 440 c 0,15,16
 457 262 457 262 524.5 172 c 128,-1,17
 592 82 592 82 694 82 c 0,0,1
642 -20 m 1,18,19
 600 -50 600 -50 568.5 -95 c 128,-1,20
 537 -140 537 -140 537 -193 c 0,21,22
 537 -283 537 -283 664 -283 c 1,23,-1
 655 -319 l 1,24,25
 512 -319 512 -319 448.5 -285 c 128,-1,26
 385 -251 385 -251 385 -203 c 0,27,28
 385 -189 385 -189 388.5 -175 c 128,-1,29
 392 -161 392 -161 403.5 -139.5 c 128,-1,30
 415 -118 415 -118 434.5 -98 c 128,-1,31
 454 -78 454 -78 489 -55 c 128,-1,32
 524 -32 524 -32 571 -13 c 1,33,34
 495 1 495 1 429.5 38 c 128,-1,35
 364 75 364 75 311.5 135.5 c 128,-1,36
 259 196 259 196 229 287 c 128,-1,37
 199 378 199 378 199 489 c 0,38,39
 199 624 199 624 236.5 763 c 128,-1,40
 274 902 274 902 345.5 1025 c 128,-1,41
 417 1148 417 1148 511 1244.5 c 128,-1,42
 605 1341 605 1341 727.5 1397.5 c 128,-1,43
 850 1454 850 1454 981 1454 c 0,44,45
 1088 1454 1088 1454 1179 1423 c 128,-1,46
 1270 1392 1270 1392 1340.5 1332 c 128,-1,47
 1411 1272 1411 1272 1451 1173.5 c 128,-1,48
 1491 1075 1491 1075 1491 948 c 0,49,50
 1491 863 1491 863 1475 772 c 128,-1,51
 1459 681 1459 681 1425 586 c 128,-1,52
 1391 491 1391 491 1342.5 403.5 c 128,-1,53
 1294 316 1294 316 1224.5 238.5 c 128,-1,54
 1155 161 1155 161 1072.5 103.5 c 128,-1,55
 990 46 990 46 883.5 13 c 128,-1,56
 777 -20 777 -20 659 -20 c 2,57,-1
 642 -20 l 1,18,19
EndSplineSet
Validated: 1
EndChar

StartChar: uni01EB
Encoding: 491 491 379
Width: 1013
VWidth: 0
Flags: W
HStem: -319 37<451 530> -20 102<427 637> 819 102<586 795>
VStem: 147 244<117 508> 260 152<-267 -104> 821 244<380 773>
LayerCount: 2
Fore
SplineSet
821 664 m 0,0,1
 821 819 821 819 702 819 c 0,2,3
 627 819 627 819 568 763 c 128,-1,4
 509 707 509 707 477 631 c 128,-1,5
 445 555 445 555 424.5 466.5 c 128,-1,6
 404 378 404 378 397.5 323.5 c 128,-1,7
 391 269 391 269 391 246 c 0,8,9
 391 165 391 165 424.5 123.5 c 128,-1,10
 458 82 458 82 532 82 c 0,11,12
 601 82 601 82 656 138 c 128,-1,13
 711 194 711 194 740.5 271 c 128,-1,14
 770 348 770 348 789.5 437 c 128,-1,15
 809 526 809 526 815 582.5 c 128,-1,16
 821 639 821 639 821 664 c 0,0,1
432 -18 m 1,17,18
 293 -6 293 -6 220 77 c 128,-1,19
 147 160 147 160 147 301 c 0,20,21
 147 430 147 430 197.5 547.5 c 128,-1,22
 248 665 248 665 327 745.5 c 128,-1,23
 406 826 406 826 504 874 c 128,-1,24
 602 922 602 922 696 922 c 0,25,26
 867 922 867 922 966 838 c 128,-1,27
 1065 754 1065 754 1065 594 c 0,28,29
 1065 527 1065 527 1048.5 452 c 128,-1,30
 1032 377 1032 377 991 294.5 c 128,-1,31
 950 212 950 212 890 146 c 128,-1,32
 830 80 830 80 733 33.5 c 128,-1,33
 636 -13 636 -13 518 -19 c 1,34,35
 476 -49 476 -49 444 -94.5 c 128,-1,36
 412 -140 412 -140 412 -193 c 0,37,38
 412 -283 412 -283 539 -283 c 1,39,-1
 530 -319 l 1,40,41
 387 -319 387 -319 323.5 -285 c 128,-1,42
 260 -251 260 -251 260 -203 c 0,43,44
 260 -186 260 -186 266 -167 c 128,-1,45
 272 -148 272 -148 288.5 -122.5 c 128,-1,46
 305 -97 305 -97 342 -69.5 c 128,-1,47
 379 -42 379 -42 432 -18 c 1,17,18
EndSplineSet
Validated: 1
EndChar

StartChar: afii10051
Encoding: 1026 1026 382
Width: 1449
VWidth: 0
Flags: W
HStem: -348 102<744 982> 0 43G<487 761> 819 102<958 1212> 1331 102<352 795 1059 1526>
VStem: 1229 248<418 804>
AnchorPoint: "top" 954 1434 basechar 0
LayerCount: 2
Fore
SplineSet
752 0 m 1,0,-1
 487 0 l 1,1,-1
 795 1331 l 1,2,-1
 328 1331 l 1,3,-1
 352 1434 l 1,4,-1
 1554 1434 l 1,5,-1
 1526 1331 l 1,6,-1
 1059 1331 l 1,7,-1
 956 891 l 1,8,9
 1044 922 1044 922 1128 922 c 0,10,11
 1477 922 1477 922 1477 641 c 0,12,13
 1477 574 1477 574 1456 492 c 1,14,-1
 1380 160 l 2,15,16
 1352 39 1352 39 1312 -50 c 128,-1,17
 1272 -139 1272 -139 1225 -196 c 128,-1,18
 1178 -253 1178 -253 1116 -287 c 128,-1,19
 1054 -321 1054 -321 989.5 -334.5 c 128,-1,20
 925 -348 925 -348 844 -348 c 0,21,22
 699 -348 699 -348 541 -256 c 1,23,-1
 668 -150 l 1,24,25
 784 -246 784 -246 897 -246 c 0,26,27
 1030 -246 1030 -246 1114 115 c 2,28,-1
 1196 467 l 2,29,30
 1229 608 1229 608 1229 690 c 0,31,32
 1229 761 1229 761 1205 790 c 128,-1,33
 1181 819 1181 819 1135 819 c 0,34,35
 1032 819 1032 819 926 758 c 1,36,-1
 752 0 l 1,0,-1
EndSplineSet
Validated: 1
EndChar

StartChar: afii10053
Encoding: 1028 1028 384
Width: 1325
VWidth: 0
Flags: W
HStem: -20 102<617 918> 713 102<518 1061> 1352 102<857 1143>
VStem: 201 264<279 708>
AnchorPoint: "top" 1008 1434 basechar 0
LayerCount: 2
Fore
SplineSet
492 713 m 1,0,1
 465 578 465 578 465 483 c 0,2,3
 465 381 465 381 490.5 301.5 c 128,-1,4
 516 222 516 222 558 175.5 c 128,-1,5
 600 129 600 129 649 105.5 c 128,-1,6
 698 82 698 82 750 82 c 0,7,8
 931 82 931 82 1108 285 c 1,9,-1
 1257 209 l 1,10,11
 1153 106 1153 106 1005 43 c 128,-1,12
 857 -20 857 -20 696 -20 c 0,13,14
 626 -20 626 -20 557 -0.5 c 128,-1,15
 488 19 488 19 423.5 61.5 c 128,-1,16
 359 104 359 104 310 164.5 c 128,-1,17
 261 225 261 225 231 314.5 c 128,-1,18
 201 404 201 404 201 510 c 0,19,20
 201 683 201 683 266.5 855 c 128,-1,21
 332 1027 332 1027 439.5 1158.5 c 128,-1,22
 547 1290 547 1290 694.5 1372 c 128,-1,23
 842 1454 842 1454 997 1454 c 0,24,25
 1371 1454 1371 1454 1489 1245 c 1,26,-1
 1270 1157 l 1,27,28
 1232 1238 1232 1238 1162 1295 c 128,-1,29
 1092 1352 1092 1352 1004 1352 c 0,30,31
 922 1352 922 1352 845 1307 c 128,-1,32
 768 1262 768 1262 707 1185 c 128,-1,33
 646 1108 646 1108 598.5 1014.5 c 128,-1,34
 551 921 551 921 518 815 c 1,35,-1
 1085 815 l 1,36,-1
 1061 713 l 1,37,-1
 492 713 l 1,0,1
EndSplineSet
Validated: 1
EndChar

